<?xml version="1.0" standalone="no"?>
<!DOCTYPE svg PUBLIC "-//W3C//DTD SVG 1.1//EN" "http://www.w3.org/Graphics/SVG/1.1/DTD/svg11.dtd" >
<svg xmlns="http://www.w3.org/2000/svg" xmlns:xlink="http://www.w3.org/1999/xlink" version="1.1">
<metadata></metadata>
<defs>
<font id="pacienciaregular" horiz-adv-x="624" >
<font-face units-per-em="2048" ascent="1638" descent="-410" />
<missing-glyph horiz-adv-x="409" />
<glyph horiz-adv-x="0" />
<glyph horiz-adv-x="682" />
<glyph unicode=" "  horiz-adv-x="409" />
<glyph unicode="&#x09;" horiz-adv-x="409" />
<glyph unicode="&#xa0;" horiz-adv-x="409" />
<glyph unicode="!" horiz-adv-x="655" d="M246 80q0 41 28 69.5t68 28.5q41 0 69.5 -28.5t28.5 -69.5q0 -40 -28.5 -68t-69.5 -28q-40 0 -68 28t-28 68zM250 1409q-4 23 14 25l170 10q2 0 5 -1t8 -6t4 -14l-80 -1126q0 -10 -6 -10h-48q-6 0 -6 12z" />
<glyph unicode="&#x22;" horiz-adv-x="845" d="M164 1403q-2 27 14 31l160 10q12 -1 16 -21q2 -9 -18 -140.5t-41 -258.5l-21 -127q0 -10 -6 -10h-37q-6 0 -6 12zM492 1403q-2 27 14 31l160 10q12 -1 16 -21q2 -9 -18 -140.5t-41 -258.5l-21 -127q0 -10 -6 -10h-37q-6 0 -6 12z" />
<glyph unicode="#" horiz-adv-x="1376" d="M164 215l31 94q2 4 6 6h207l71 240h-203q-6 -2 -6 2l31 100q2 5 6 5h205q16 52 33 105.5t25 78.5t8 26l6 5h104q3 0 2 -3l-2 -4q-26 -87 -63 -208h264q16 51 32.5 105t24.5 79t8 26l7 5h104q3 0 1 -3l-1 -4q-27 -87 -64 -208l207 2q4 -1 4 -5l-30 -100q0 -4 -6 -4h-207 l-72 -240h205l2 -6l-29 -96q0 -4 -6 -4h-7h-16.5t-24.5 -0.5t-32.5 -0.5h-38t-42 0.5t-44.5 0.5q-63 -203 -63 -205l-6 -4h-105l-2 4q27 86 64 205h-265q-63 -199 -63 -205l-6 -4h-105l-2 4q27 86 64 205h-205h-2t-3 1.5t-1 4.5zM520 315h264l72 240h-264z" />
<glyph unicode="$" horiz-adv-x="1284" d="M206 1089q1 53 17 97q43 123 133.5 187t208.5 81l4 174q0 4 4 4h142l4 -4l-4 -174q38 -3 73 -12q74 -18 156 -64q12 -9 12 -14l25 -180q0 -4 -2 -4l-45 -4q-2 2 -2 4q-29 104 -116.5 160.5t-192 52t-187.5 -65.5q-35 -26 -60.5 -66.5t-33 -91t3.5 -100.5t55 -98.5 t117 -81.5q31 -14 103 -44.5t112.5 -48.5t101 -52t98 -65.5t73.5 -77.5t55 -99q18 -52 18.5 -111t-19 -118t-55 -111.5t-94 -94.5t-131.5 -63q-71 -18 -137 -24l-6 -168q0 -5 -4 -5h-141l-5 5l7 174q-93 13 -169 47t-118 76l12 202q-2 7 6 11q4 2 21.5 0.5t21.5 -5.5 q6 -3 6 -10q18 -86 80 -147.5t140 -85.5t163 -15t148 54q77 56 107.5 152.5t-5.5 180.5q-22 50 -58.5 88t-88.5 67t-102.5 50.5t-127 54.5t-135.5 64q-71 37 -116 92.5t-59.5 114.5t-13.5 112z" />
<glyph unicode="%" horiz-adv-x="1720" d="M164 1141q0 146 91 231.5t226 85.5q136 0 227 -85.5t91 -231.5q0 -148 -91 -233t-227 -85t-226.5 84.5t-90.5 233.5zM229 4q1086 1420 1090 1426l8 4h146q3 0 -3 -7l-1087 -1423l-6 -4h-146zM309 1141q0 -48 7 -89.5t24.5 -82t53.5 -64.5t87 -24t87 24t54 64.5t25.5 82.5 t7.5 89q0 46 -8.5 89.5t-27.5 84.5t-54.5 65.5t-83.5 24.5t-83.5 -24.5t-53.5 -65.5t-26.5 -84.5t-8.5 -89.5zM922 301q0 146 91 231.5t226 85.5t226 -85.5t91 -231.5q0 -148 -90.5 -232.5t-226.5 -84.5t-226.5 84.5t-90.5 232.5zM1067 301q0 -48 7 -89.5t24.5 -82 t53.5 -64.5t87 -24t87 24t54 64.5t25.5 82.5t7.5 89q0 46 -8.5 89.5t-27.5 84.5t-54.5 65.5t-83.5 24.5t-83.5 -24.5t-53.5 -65.5t-26.5 -84.5t-8.5 -89.5z" />
<glyph unicode="&#x26;" horiz-adv-x="1835" d="M164 340q-1 64 19 123.5t49 103.5t79 90.5t91.5 76.5t103.5 71q-312 437 -10 600q123 65 268 39q44 -9 83.5 -34.5t70.5 -65t44.5 -98.5t2.5 -126q-9 -55 -35.5 -103t-54.5 -78.5t-69 -58.5t-65 -40.5t-56 -27.5q-3 -1 -4 -1.5l-3 -1.5l-4 -2q91 -121 206 -240.5 t207 -197.5q37 40 60.5 130t11.5 167q-24 157 -196 157q-4 0 -7 1.5t-4 3.5v1q-2 35 0 41q1 3 3.5 4t4.5 0h3q59 -4 119 -6.5t90 -3.5h30q111 0 244 10q8 2 10 -4v-41q0 -6 -10 -6q-142 0 -162 -164q-8 -73 -25 -134t-42 -105.5t-37 -62.5t-33 -44q126 -88 215.5 -140.5 t153.5 -61.5q77 -12 134 3.5t128 65.5l13 -7q5 -4 -1 -9q-6 -6 -35.5 -32t-59.5 -52.5t-50 -42.5q-95 -79 -224 -43q-60 16 -175.5 82.5t-190.5 124.5q-86 -79 -174 -130t-165 -70t-150 -18t-132.5 23t-110 57.5t-85 80.5t-54 95.5t-20.5 100.5zM330 356 q18 -107 94.5 -169.5t175 -71.5t206.5 26t189 111q-102 86 -222.5 219.5t-219.5 261.5q-81 -44 -136 -109t-77 -134.5t-10 -133.5zM480.5 1216.5q-1.5 -60.5 35 -151.5t111.5 -197q197 112 200 291q1 62 -22.5 111t-61.5 73.5t-83 34t-87 -7.5q-43 -15 -67 -54t-25.5 -99.5z " />
<glyph unicode="'" horiz-adv-x="518" d="M164 1403q-2 27 14 31l160 10q12 -1 16 -21q2 -9 -18 -140.5t-41 -258.5l-21 -127q0 -10 -6 -10h-37q-6 0 -6 12z" />
<glyph unicode="(" horiz-adv-x="917" d="M164 573q0 120 21 235t54 204t73 168.5t80.5 135.5t73.5 97t54 61l21 19q14 14 24 4l17 -14q7 -6 8 -12.5t-2 -9.5l-2 -3l-28 -34q-120 -160 -182 -416q-48 -202 -48 -435q0 -442 163 -747q53 -97 95 -139q12 -9 -4 -25q-13 -12 -17 -14q-13 -7 -24 4q-8 7 -21.5 20.5 t-52.5 59.5t-75 98t-79.5 134.5t-74.5 169.5t-52.5 203t-21.5 236z" />
<glyph unicode=")" horiz-adv-x="917" d="M328 -324.5q-1 6.5 2 8.5l2 3l28 33q120 160 182 417q48 202 48 436q0 440 -163 745q-53 98 -95 140q-12 11 4 25q12 12 16 14q10 11 25 -4q8 -7 21.5 -20.5t52.5 -59.5t75 -97.5t79.5 -134t74.5 -169.5t52.5 -203t21.5 -236t-21 -235t-54 -204t-73 -169t-80.5 -135.5 t-73.5 -96.5t-54 -61l-21 -20q-11 -11 -25 -4l-16 14q-7 7 -8 13.5z" />
<glyph unicode="*" horiz-adv-x="854" d="M123 1159l31 133q2 9 12 11q5 1 66 -37.5t120 -77.5l58 -39l4 -4q0 -2 -4 -9t-4 -8q0 -6 -7 -4l-262 19q-14 2 -14 16zM164 952q1 4 57.5 52.5t112.5 94.5l57 46l8 2q1 -1 4 -4.5t5.5 -6.5t3.5 -3q4 -4 4 -7l-109 -247q0 -1 -1.5 -3t-6 -5t-10.5 1l-119 62q-1 1 -2 2.5 t-3 6.5t-1 9zM334 1423q-2 15 12 17l135 4q11 0 15 -10q1 -4 -18 -75t-38 -139l-20 -69q0 -4 -4 -4h-19q-4 0 -4 6zM397 1126q0 3 4 7q1 0 3.5 3t5.5 6.5t4 4.5l8 -2q225 -183 227 -193q1 -4 -0.5 -8.5t-3.5 -7.5l-2 -2q-107 -58 -119 -62q-7 -2 -11 -0.5t-5 4.5l-2 3z M399 1145l4 4l244 154q4 -1 7 -3.5t4 -5.5l1 -2q29 -121 31 -133q0 -6 -3.5 -10t-6.5 -5l-4 -1l-262 -19q-8 -3 -8 4q0 1 -3.5 8t-3.5 9z" />
<glyph unicode="+" horiz-adv-x="993" d="M164 399l20 86q1 4 5.5 6.5t8.5 3.5l5 1h239q4 207 0 231q-2 7 1 12.5t7 6.5l3 2l86 22q5 1 8 -3.5t3 -9.5l1 -5v-258q252 0 258 2q7 2 12 -1t7 -7l1 -3l-20 -86q-1 -5 -5.5 -8t-8.5 -3l-4 -1h-242q0 -238 2 -244t-1 -10.5t-7 -6.5l-4 -1l-86 -23q-4 -1 -6.5 4t-3.5 10 l-1 5v266q-235 4 -260 0q-6 -2 -10.5 1t-5.5 7z" />
<glyph unicode="," horiz-adv-x="581" d="M163.5 -271.5q1.5 3.5 4.5 5.5l2 2q4 1 10.5 3t24 11.5t32 22t28.5 36t20 52.5q19 84 -52 127q-63 35 -63 90q0 41 27 70.5t67 29.5q30 0 60 -16t55 -48t34.5 -80t-1.5 -112q-9 -47 -34.5 -87t-54 -64t-59.5 -41.5t-49 -24.5t-25 -8l-14 4q-10 12 -12 20q-2 4 -0.5 7.5z " />
<glyph unicode="-" horiz-adv-x="780" d="M123 399l20 86q2 4 6.5 6.5t8.5 3.5l4 1h475q7 2 12 -1t7 -7l1 -3l-20 -86q-3 -4 -7.5 -7t-7.5 -4l-4 -1h-477q-6 -2 -10.5 1t-6.5 7z" />
<glyph unicode="." horiz-adv-x="522" d="M164 80q0 41 28 69.5t68 28.5q41 0 69.5 -28.5t28.5 -69.5q0 -40 -28.5 -68t-69.5 -28q-40 0 -68 28t-28 68z" />
<glyph unicode="/" horiz-adv-x="892" d="M61 4q637 1420 639 1426l7 4h124q3 0 1 -4l-1 -3l-636 -1423q-1 -3 -2.5 -4t-2.5 0h-2h-125z" />
<glyph unicode="0" horiz-adv-x="1216" d="M123 465q0 225 138.5 362.5t346.5 137.5q104 0 191 -31t153.5 -91t104 -157t37.5 -221q0 -152 -66.5 -263.5t-175.5 -166.5t-244 -55t-243.5 55t-175 166.5t-66.5 263.5zM281 465q0 -109 40.5 -204.5t116.5 -155.5t170 -60q95 0 172 60t117.5 155.5t40.5 204.5 q0 66 -12.5 128.5t-39 119t-64.5 98.5t-93 67t-121 25q-103 0 -178.5 -62t-112 -160t-36.5 -216z" />
<glyph unicode="1" horiz-adv-x="741" d="M123 2v45q0 4 6 4h2q7 1 25 -1t42.5 5t46 18t37 39t15.5 68v576q0 40 -15.5 68t-37 39t-46 18t-42.5 5t-25 -1h-2l-6 4v51l6 2q39 -3 99.5 -4.5t101.5 -1.5h41q153 0 239 6q6 2 8 -2v-51q0 -4 -8 -4h-2q-7 -1 -25.5 1t-43 -5t-46.5 -18t-37.5 -39t-15.5 -68v-576 q0 -109 109 -127q20 -3 61 -2q4 0 6 -1t2 -2v-1v-45q0 -2 -2 -2.5t-4 0.5h-2q-38 3 -98 4.5t-100 1.5h-41q-154 0 -242 -6q-6 -2 -6 2z" />
<glyph unicode="2" horiz-adv-x="989" d="M123.5 3q-1.5 3 0 6.5t5.5 6.5q132 99 231 197t149.5 168.5t81 138t37.5 103.5t7 67q0 63 -41 114.5t-125 51.5q-46 0 -87.5 -14.5t-67.5 -34t-46 -41t-28.5 -35.5t-8.5 -16q-2 -4 -4.5 -5t-4.5 0l-1 1l-26 26q-4 4 0 11q32 70 89.5 121t124 72.5t133 22t124 -28 t90.5 -79.5q38 -64 37 -132.5t-33 -139.5t-79 -137t-102 -124t-102 -101t-79 -68l-31 -25h346q129 0 149 4q7 0 4 -8q-37 -107 -39 -117q-1 -7 -7.5 -10t-12.5 0l-23 2h-653q-6 0 -7.5 3z" />
<glyph unicode="3" horiz-adv-x="858" d="M123 -383l6 4q192 31 313 130t138 263q8 79 -15 140t-66.5 95t-98 50.5t-111.5 12.5t-105 -25q-2 -2 -4 0l-20 49l4 4q90 40 155.5 87t100 93.5t51.5 85.5t21 78q8 77 -36.5 126t-119.5 48q-32 -1 -61 -11.5t-47 -23.5t-33 -29t-20 -24t-7 -12t-4.5 -5t-3.5 0l-2 1 l-27 26q-4 4 0 11q32 59 82.5 99.5t105.5 58t112 14.5t102.5 -26.5t75.5 -71.5t32 -113q2 -54 -17 -107.5t-49.5 -94t-69.5 -77t-76 -60t-71 -38.5q35 9 76.5 2.5t83 -19.5t81 -42t69.5 -65t48.5 -89.5t18.5 -114.5q0 -87 -28 -159.5t-72 -121.5t-102.5 -87t-115 -59.5 t-114.5 -35t-96 -18t-64 -4.5q-4 0 -6 1t-2 2v1z" />
<glyph unicode="4" horiz-adv-x="1081" d="M41 3.5q-1 2.5 2 6.5l647 942q12 15 27 15q20 0 20 -19v-819q6 0 65 -1t94 0.5t56 6.5q3 1 5.5 -1t0.5 -5q-3 -7 -21 -63.5t-19 -59.5q-6 -15 -21 -8l-23 2h-137v-328q2 -8 -2 -12q-11 -11 -72.5 -66t-66.5 -55q-3 0 -4.5 1.5t-1.5 3.5v1v455h-545q-1 0 -2 0.5t-2 3z M211 129h379v573z" />
<glyph unicode="5" horiz-adv-x="948" d="M123 -383l6 4q94 10 188 50.5t171.5 103t124 152.5t42.5 188q-3 85 -40 150.5t-93 101.5t-123 54t-133 15t-121 -22q-4 -2 -7.5 0.5t-0.5 9.5l211 512q1 3 3.5 4.5t4.5 1.5h2h244q182 0 219 4q4 -1 2 -6q-78 -113 -84 -123q-8 -14 -20 -8l-23 2h-338l-131 -324 q69 19 140 20.5t137.5 -13t124.5 -49t101.5 -83.5t67.5 -120.5t23 -155.5q-2 -81 -31 -152.5t-75.5 -123t-107 -94.5t-124.5 -70.5t-128.5 -46.5t-117.5 -27t-94 -8l-8 2z" />
<glyph unicode="6" horiz-adv-x="1083" d="M125 645q6 110 42 224t105.5 222t162.5 191.5t224 132t279 43.5q4 0 4 -4v-47q0 -4 -4 -4q-92 -8 -179.5 -40t-168 -91t-144 -139t-107 -191t-56.5 -240q72 75 153 113t154 37.5t141 -30.5t117.5 -83.5t80 -128.5t32.5 -159q2 -82 -18 -152.5t-46 -114t-67 -82t-64 -53.5 t-55 -33q-46 -26 -101 -34.5t-113.5 3t-115 41t-106 85t-85.5 128.5t-53.5 178t-11.5 228zM276 606q-4 -102 13.5 -191t50 -151.5t76.5 -108.5t92 -67t96.5 -21t89.5 23q48 27 78.5 77t40 109t7 118t-16.5 116q-25 104 -88.5 163t-139.5 66.5t-157 -27t-142 -106.5z" />
<glyph unicode="7" horiz-adv-x="1042" d="M125 -403q2 2 127.5 222.5t293 524t251.5 469.5h-494q-131 0 -176 -2q-5 0 -2 6l41 119q5 13 20 8l23 -2h700q4 0 7 -2.5t4 -5.5v-2q-697 -1377 -701 -1383q-2 -6 -10 -6q-2 0 -42.5 20.5t-41.5 20.5q-4 4 0 13z" />
<glyph unicode="8" horiz-adv-x="1058" d="M123 324q0 52 11 98t34.5 84t46.5 66t61.5 58t63 46.5t66.5 42.5q-119 79 -180.5 183t-61.5 212q0 72 24 131.5t61.5 98t87 65t98 38t95.5 11.5q75 0 139 -19.5t114.5 -59.5t79 -108t28.5 -157q0 -109 -58 -187.5t-198 -174.5q67 -40 114.5 -77.5t93.5 -89t69.5 -117 t23.5 -142.5q0 -67 -23.5 -128t-70.5 -112.5t-127.5 -82t-184.5 -30.5q-84 0 -153 20.5t-115.5 54t-78 79.5t-46 95.5t-14.5 101.5zM260 322q-1 -118 79 -196.5t191 -78.5q109 0 185.5 78.5t77.5 196.5q1 114 -86 204t-211 142q-126 -83 -181 -158.5t-55 -187.5zM305 1122 q0 -182 242 -325q110 72 158.5 157t48.5 168q0 63 -22.5 121t-75 99.5t-126.5 41.5q-56 0 -100.5 -24t-71 -63t-40 -84t-13.5 -91z" />
<glyph unicode="9" horiz-adv-x="1052" d="M123 494q-2 82 17.5 153.5t48 117.5t66.5 83.5t66.5 56t55.5 29.5q62 26 127.5 28.5t130 -17t121 -71.5t98 -128t62 -193t12.5 -260q-7 -122 -42 -237.5t-100.5 -216.5t-153 -173t-208.5 -105t-258 -14q-4 0 -4 9v41q0 6 4 6q102 1 205.5 48.5t188.5 128t142.5 199 t65.5 250.5q-66 -76 -141.5 -113t-145 -35t-135 33.5t-113.5 87t-78 131.5t-32 161zM264.5 551.5q2.5 -61.5 16.5 -117.5q25 -105 82.5 -164.5t126.5 -67.5t144 26.5t136 107.5q3 112 -12 205.5t-43 156t-66 106.5t-81.5 62.5t-88.5 17t-88 -23.5q-48 -25 -78.5 -75.5 t-40.5 -111t-7.5 -122z" />
<glyph unicode=":" horiz-adv-x="522" d="M164 80q0 41 28 69.5t68 28.5q41 0 69.5 -28.5t28.5 -69.5q0 -40 -28.5 -68t-69.5 -28q-40 0 -68 28t-28 68zM164 694q0 41 28 70t68 29q41 0 69.5 -29t28.5 -70q0 -40 -28.5 -68t-69.5 -28q-40 0 -68 28t-28 68z" />
<glyph unicode=";" horiz-adv-x="583" d="M163.5 -271.5q1.5 3.5 4.5 5.5l2 2q4 1 10.5 3t24 11.5t32 22t28.5 36t20 52.5q19 84 -52 127q-63 35 -63 90q0 41 27 70.5t67 29.5q30 0 60 -16t55 -48t34.5 -80t-1.5 -112q-9 -47 -34.5 -87t-54 -64t-59.5 -41.5t-49 -24.5t-25 -8l-14 4q-10 12 -12 20q-2 4 -0.5 7.5z M164 694q0 41 28 70t68 29q41 0 69.5 -29t28.5 -70q0 -40 -28.5 -68t-69.5 -28q-40 0 -68 28t-28 68z" />
<glyph unicode="&#x3c;" horiz-adv-x="1132" d="M164 510q1 5 5.5 49t4.5 47q0 4 4 6q16 8 211 98t383 177t189 88q4 1 5 -0.5t1 -5.5q-7 -101 -9 -111l-4 -6q-434 -191 -651 -291q94 -44 259.5 -118.5t283.5 -126.5l119 -52q4 -2 4 -6l-8 -108q0 -3 -2 -5.5t-5 -1.5l-786 361q-4 2 -4 6z" />
<glyph unicode="=" horiz-adv-x="993" d="M164 281l20 86q2 4 6.5 6.5t8.5 2.5l4 1h262q34 0 126.5 -1t152 -1t65.5 2q7 2 12 -0.5t7 -6.5l1 -3l-20 -86q-3 -4 -7.5 -7.5t-7.5 -4.5l-3 -1h-269q-35 0 -125.5 1t-149 1t-65.5 -2q-6 -2 -10.5 1.5t-5.5 7.5zM164 520l20 86q2 4 6.5 6.5t8.5 3.5h4h262q34 0 126.5 -1 t152 -1t65.5 2q7 2 12 -0.5t7 -5.5l1 -4l-20 -86q-3 -4 -7.5 -7t-7.5 -4l-3 -1h-269q-35 0 -125.5 1t-149 1t-65.5 -2q-6 -2 -10.5 1t-5.5 7z" />
<glyph unicode="&#x3e;" horiz-adv-x="989" d="M123 258l4 6q450 197 661 297l-651 291q-4 2 -4 6l-8 111q0 7 3 7q2 -1 3 -1q1 -1 189 -88t382.5 -177t210.5 -98q5 -2 5 -6q0 -3 4.5 -47t5.5 -49q0 -4 -4 -6l-787 -361q-3 -1 -4.5 1t-1.5 6z" />
<glyph unicode="?" horiz-adv-x="1126" d="M246.5 1295q-2.5 8 3.5 18q6 12 20.5 29t51.5 42t82.5 39t119 11t156.5 -33q121 -44 183 -120.5t60 -165.5t-65.5 -187.5t-183.5 -186.5q-26 -19 -62.5 -44.5t-54 -38t-42.5 -32t-35.5 -30t-24 -27t-17 -29.5t-6.5 -31.5t0 -37.5t10 -43l15 -61q6 -15 -2 -21l-29 -14 q-13 -7 -29 14q-1 1 -14.5 17.5t-30 39.5t-34 51t-29.5 60t-13 59q-1 21 15 47t37 48t57 51.5t59 46.5t61 43.5t46 32.5q100 74 154 156.5t57.5 151t-27.5 124t-92 82.5q-56 23 -100.5 19t-78 -28t-53 -49.5t-24.5 -46.5q-2 -2 -5 -4.5t-12 -6.5t-18 1l-98 41q-2 1 -3.5 3 t-4 10zM369 80q0 41 28 69.5t68 28.5q41 0 69.5 -28.5t28.5 -69.5q0 -40 -28.5 -68t-69.5 -28q-40 0 -68 28t-28 68z" />
<glyph unicode="@" horiz-adv-x="2086" d="M164.5 537q1.5 139 44.5 268t124.5 246.5t191.5 205t255.5 141.5t306.5 58q138 3 258.5 -26.5t210 -84t160.5 -129t115 -159.5t67.5 -178t23.5 -183t-21.5 -174.5t-63.5 -152.5q-20 -32 -47 -66.5t-72 -77t-94.5 -73t-115.5 -47t-132 -7.5q-19 2 -44.5 10t-64 29t-70 51 t-56.5 82t-29 117q-11 -47 -50 -101.5t-101.5 -95t-124.5 -38.5q-61 2 -126 69t-87 164q-17 66 0 168.5t67 189.5q71 121 176 203t207 82q39 0 65.5 -19t28.5 -36q89 59 142 69q7 2 13 -2.5t5 -11.5q-26 -265 -51 -543q-5 -50 3.5 -104.5t29.5 -89.5q40 -68 120.5 -85 t164 17.5t135.5 104.5q57 78 79 174.5t9.5 192t-54.5 191.5t-106 176t-151 143t-185 95q-82 27 -174 38.5t-198 5.5t-214 -49t-196 -121q-84 -75 -143 -185.5t-81 -238.5t-9 -257.5t77.5 -254t173.5 -215.5q83 -70 180 -116t186.5 -64.5t179.5 -23t164.5 5t135.5 24.5t98 31 t47 28q3 3 10.5 0.5t8.5 -6.5q3 -4 4 -8.5t1 -7.5l-1 -3q-102 -62 -217.5 -103.5t-245.5 -60t-267.5 6.5t-258.5 96q-143 85 -239.5 202.5t-138 245.5t-40 267zM759 474q4 -72 39 -128t99 -70q97 -22 172 154q42 84 68 307q5 62 5.5 117t-20 90.5t-61.5 30.5 q-40 -5 -82.5 -25.5t-93 -74.5t-84.5 -132q-23 -54 -34.5 -125.5t-7.5 -143.5z" />
<glyph unicode="A" horiz-adv-x="1703" d="M61 4v41q1 6 11 6q143 0 237 164q84 165 218.5 477.5t219 518.5t97.5 241q2 5 4.5 7.5t3.5 2.5h2q6 0 10 -10q2 -9 90 -226t220 -525.5t219 -485.5q26 -47 59 -81t59 -49.5t55.5 -24t41 -8.5t22.5 -1h2l10 -6q2 -35 0 -41q-1 -3 -3.5 -4t-4.5 0h-2q-59 4 -135.5 6.5 t-122.5 3.5h-47q-107 0 -240 -10q-8 -2 -10 4v41q0 6 10 6q154 0 154 91q0 32 -18 73l-140 328q-84 -41 -178 -41h-366h-4q-27 -60 -67.5 -161t-51.5 -126q-14 -34 -14.5 -61.5t7.5 -44.5t25.5 -29t33 -17.5t36.5 -8.5t29 -3h18h2l10 -6q2 -35 0 -41q-1 -3 -3.5 -4t-4.5 0 h-2q-59 4 -119 6.5t-90 3.5h-31q-108 0 -241 -10q-9 -2 -11 4zM572 592q0 -3 3 -5.5t9 -2.5h481l-246 598q-1 4 -3 0q0 -1 -1 -2l-242 -586z" />
<glyph unicode="B" horiz-adv-x="1218" d="M61 0v41q1 6 11 6q132 0 158 111q6 24 6 53v1003q0 47 -16 81t-35 49.5t-46.5 24t-39.5 9t-25 0.5h-2q-4 0 -7 1.5t-3 2.5l-1 2q-2 35 0 41q1 3 3.5 4t5.5 1h2q59 -4 119 -7t90 -3l30 -1q109 3 246 21q35 4 67 6q16 1 37 1t45 -1q50 -2 91 -11.5t85.5 -31t76.5 -54 t54 -86t25 -122.5q1 -12 1 -23q0 -58 -17 -108q-20 -60 -51.5 -96t-63.5 -62t-55 -36l-23 -11q7 -1 19 -2.5t47 -12t66.5 -25.5t70 -46.5t65.5 -71t45 -102.5q16 -57 15 -124v-15q-1 -53 -15 -107t-53 -115.5t-99 -106t-162 -69.5q-71 -17 -157 -17q-37 0 -77 3 q-77 6 -148 9t-103 3h-32q-106 0 -239 -10q-9 -2 -11 4zM389 297q0 -51 10 -91t25 -66.5t41.5 -45t49 -28t58.5 -14.5t60 -6t63 -1q60 0 114 23t98 67t70 115.5t26 161.5t-32 158t-89 107.5t-129.5 59t-159.5 19.5h-41.5h-39.5t-31.5 -0.5t-33 -2t-28 -4t-31.5 -6.5v-446z M389 821q19 -6 43.5 -9t42.5 -3t56 1t61 1q138 0 218.5 78.5t80.5 216.5q0 77 -25.5 135t-67.5 90t-94 47q-41 12 -84 12q-11 0 -23 -1q-54 -4 -103 -23q-53 -19 -79 -61.5t-26 -116.5v-367z" />
<glyph unicode="C" horiz-adv-x="1495" d="M61 705q0 137 41.5 258.5t112.5 210.5t163 154t195 97.5t207 32.5q91 0 172.5 -14.5t133.5 -36t90.5 -42.5t55.5 -35l17 -15l27 -256l-8 -6h-35q-2 0 -3.5 1.5t-1.5 3.5l-1 1q-11 72 -41.5 131.5t-83.5 108.5q-54 49 -140 75q-78 23 -175 23h-23q-99 -2 -192 -48.5 t-168.5 -130.5t-121.5 -217.5t-46 -295.5q0 -81 22.5 -167t70.5 -169t115 -148.5t164.5 -106t210.5 -40.5q169 0 291 77t162 168q2 4 5 5t5 0l2 -2l23 -15q1 0 2 -1t2 -4t0 -7q-7 -25 -27 -59t-63.5 -80t-100.5 -83.5t-147.5 -64t-194.5 -26.5t-204.5 25.5t-194 82 t-163.5 139t-112.5 205.5t-42.5 271z" />
<glyph unicode="D" horiz-adv-x="1581" d="M61 4v41l2 4q3 2 7 2q131 0 157 111q6 24 6 53v999q0 47 -15.5 81t-35 49.5t-47 24t-39.5 9t-24 0.5h-2q-4 0 -6.5 1.5t-2.5 2.5v2q-2 35 0 41q1 3 3 4t4 1h2q160 -17 256 -17q49 0 94 3t108 10t105 10q86 8 151 8q290 0 486 -154q114 -90 182 -235.5t68 -337.5 q0 -121 -30.5 -227t-83 -184.5t-113 -135t-130.5 -96.5q-147 -86 -399 -86q-107 0 -209 12q-95 14 -201 14q-60 0 -284 -14q-7 -2 -9 4zM387 272q0 -73 23 -112t73 -62q94 -43 252 -43q57 0 103 6q78 10 150 38.5t139.5 82t117 126.5t79.5 178.5t30 230.5q0 293 -155 471 t-400 192q-32 2 -63 2q-72 0 -132 -12q-86 -16 -121 -39q-47 -29 -71.5 -66.5t-24.5 -107.5l2 -440z" />
<glyph unicode="E" horiz-adv-x="1275" d="M61 4v41q1 6 11 6q132 0 158 111q6 24 6 53v1004q0 47 -16 81t-35 49.5t-46.5 23.5t-39.5 8.5t-25 0.5h-2q-4 0 -7 2t-3 4l-1 1q-2 35 0 41q1 3 3.5 4t5.5 0h2q92 -2 462.5 -2t571.5 4q8 0 10 -4l105 -304q0 -3 -1.5 -4.5t-3.5 -1.5h-2h-36q-4 0 -7 1t-3 2l-1 1 q-67 145 -182.5 200.5t-322.5 55.5q-171 0 -210 -10q-44 -11 -56 -49q-7 -26 -7 -104v-476h373q47 0 81 16t49.5 35t24 46.5t9 39.5t0.5 25v2q0 4 1.5 7t2.5 4h2q35 2 41 0q3 -1 4 -3.5t1 -4.5l-1 -3l-10 -192q0 -56 10 -189q2 -6 -4 -8h-41h-2q-1 -1 -2.5 1.5t-1.5 6.5 q0 132 -111 158q-24 6 -53 6h-373v-475q0 -42 3.5 -69.5t21 -46.5t30.5 -28t56.5 -14t72 -5t103.5 -1h14h12.5h14.5q207 0 323 55.5t183 200.5q0 4 10 4h37q6 0 6 -8l-105 -301q-2 -4 -10 -4q-210 4 -623 4h-151q-273 0 -315 -2q-9 -2 -11 4z" />
<glyph unicode="F" horiz-adv-x="1220" d="M61 4v41q1 6 11 6q132 0 158 111q6 24 6 53v1004q0 47 -16 81t-35 49.5t-46.5 23.5t-39.5 8.5t-25 0.5h-2q-4 0 -7 2t-3 4l-1 1q-2 35 0 41q1 3 3.5 4t5.5 0h2q92 -2 462.5 -2t571.5 4q8 0 10 -4l105 -304q0 -3 -1.5 -4.5t-3.5 -1.5h-2h-36q-4 0 -7 1t-3 2l-1 1 q-67 145 -182.5 200.5t-322.5 55.5q-171 0 -210 -10q-44 -11 -56 -49q-7 -26 -7 -104v-476h373q47 0 81 16t49.5 35t24 46.5t9 39.5t0.5 25v2q0 4 1.5 7t2.5 4h2q35 2 41 0q3 -1 4 -3.5t1 -4.5l-1 -3l-10 -192q0 -56 10 -189q2 -6 -4 -8h-41h-2q-1 -1 -2.5 1.5t-1.5 6.5 q0 132 -111 158q-24 6 -53 6h-373v-475q0 -47 16 -81t35 -49.5t46.5 -24t39.5 -8.5t25 -1h2l10 -6q2 -35 0 -41q-1 -3 -3.5 -4t-4.5 0h-2q-59 4 -119.5 6.5t-91.5 3.5h-31q-106 0 -239 -10q-9 -2 -11 4z" />
<glyph unicode="G" horiz-adv-x="1587" d="M61 707q0 137 41.5 258.5t112.5 210t163 153t195 97t207 32.5q91 0 172.5 -14.5t133.5 -36t90.5 -42.5t55.5 -35l17 -15l27 -256l-8 -6h-35q-2 0 -3.5 1.5t-1.5 3.5l-1 1q-11 72 -41.5 130.5t-83.5 106.5t-139 74.5t-199 26.5q-61 0 -124 -20t-124 -58t-114.5 -98 t-93.5 -134.5t-63.5 -172.5t-23.5 -207q0 -81 24.5 -168t75 -170.5t119.5 -149.5t168 -106.5t211 -40.5q206 0 326 73q53 32 53 131v226q0 47 -16 81t-35 49.5t-46.5 24t-39.5 9t-25 0.5h-2l-10 6q-2 35 0 41q1 3 3.5 4t4.5 1l2 -1q59 -4 119 -6.5t91 -2.5l30 -1 q109 0 242 10q8 2 10 -4v-41q0 -6 -10 -6q-132 0 -158 -111q-6 -24 -6 -53v-291q-265 -231 -574 -231q-104 0 -204.5 26t-194 83t-163.5 140t-112.5 206.5t-42.5 271.5z" />
<glyph unicode="H" horiz-adv-x="1617" d="M61 4v41q1 6 11 6q132 0 158 111q6 24 6 53v1004q0 47 -16 81t-35 49.5t-46.5 23.5t-39.5 8.5t-25 0.5h-2q-4 0 -7 2t-3 4l-1 1q-2 35 0 41q1 3 3.5 4t5.5 0h2q59 -4 119 -7t90 -3l30 -1q109 1 242 11q8 2 10 -4v-41q0 -7 -10 -7h-2h-8q-91 0 -130 -65q-24 -38 -24 -98 v-451h840v451q0 47 -16 81t-35 49.5t-46.5 23.5t-39.5 8.5t-25 0.5h-2q-4 0 -7 2t-4 4l-1 1q0 35 2 41q1 3 3.5 4t4.5 0h2q59 -4 119 -7t90 -3l31 -1q108 1 241 11q8 2 10 -4v-41q0 -7 -10 -7q-139 0 -160 -120q-4 -20 -4 -43v-1004q0 -47 16 -81t35 -49.5t46.5 -24 t39.5 -8.5t25 -1h2l10 -6q0 -35 -2 -41q-1 -3 -3 -4t-3 0h-2q-59 4 -119.5 6.5t-90.5 3.5h-31q-107 0 -240 -10q-8 -2 -10 4v41q0 6 10 6q132 0 158 111q6 24 6 53v471h-840v-471q0 -47 16 -81t35 -49.5t46.5 -24t39.5 -8.5t25 -1h2l10 -6q2 -35 0 -41q-1 -3 -3.5 -4t-4.5 0 h-2q-59 4 -119.5 6.5t-91.5 3.5h-31q-106 0 -239 -10q-9 -2 -11 4z" />
<glyph unicode="I" d="M61 4v41q1 6 11 6q132 0 158 111q6 24 6 53v1004q0 47 -16 81t-35 49.5t-46.5 23.5t-39.5 8.5t-25 0.5h-2q-4 0 -7 2t-3 4l-1 1q-2 35 0 41q1 3 3.5 4t5.5 0h2q59 -4 119 -7t90 -3l30 -1q109 1 242 11q8 2 10 -4v-41q0 -7 -10 -7h-2h-8q-91 0 -130 -65q-24 -38 -24 -98 v-1004q0 -47 16 -81t35 -49.5t46.5 -24t39.5 -8.5t25 -1h2l10 -6q2 -35 0 -41q-1 -3 -3.5 -4t-4.5 0h-2q-59 4 -119.5 6.5t-91.5 3.5h-31q-106 0 -239 -10q-9 -2 -11 4z" />
<glyph unicode="J" horiz-adv-x="784" d="M61 -455q73 25 131 75.5t92.5 111.5t59 128.5t34.5 130t15 113t5 80.5l-1 31v1004q0 58 -21 95.5t-54.5 50t-51 15t-35.5 2.5h-2l-10 7q-2 35 0 41q1 3 3.5 4t4.5 0h2q59 -4 119 -7t90 -3l31 -1q109 1 242 11q6 2 8 -4v-41l1 -1q0 -2 -2.5 -4t-6.5 -2q-139 0 -160 -120 q-4 -20 -4 -43v-1004q0 -102 -16.5 -190t-44.5 -151t-64.5 -115.5t-77 -86t-80.5 -59t-76.5 -39t-64.5 -21.5t-45 -10l-16 -2q-5 0 -5 4z" />
<glyph unicode="K" horiz-adv-x="1429" d="M61 4v41q1 6 11 6q132 0 158 111q6 24 6 53v1004q0 47 -16 81t-35 49.5t-46.5 23.5t-39.5 8.5t-25 0.5h-2q-4 0 -7 2t-3 4l-1 1q-2 35 0 41q1 3 3.5 4t5.5 0h2q59 -4 119 -7t90 -3l30 -1q109 1 242 11q8 2 10 -4v-41q0 -7 -10 -7h-2h-8q-91 0 -130 -65q-24 -38 -24 -98 v-467l467 467q33 33 49.5 60t18 43.5t-7.5 28.5t-21 18t-28.5 9t-24 3.5t-13.5 0.5l-10 7q-2 35 0 41q1 3 3.5 4t4.5 0h2q59 -4 118 -7t89 -3l29 -1q113 1 246 11q8 2 10 -4v-41q0 -7 -10 -7q-54 0 -80 -4q-154 -26 -287 -159l-424 -426q61 -7 131 -52q65 -43 145.5 -127 t190.5 -212.5t174 -196.5q85 -90 146.5 -122t132.5 -32l10 -6q2 -35 0 -41q-1 -3 -3.5 -4t-4.5 0h-2q-59 4 -122 6.5t-96 3.5h-34q-99 0 -232 -10q-8 -2 -10 4v41q0 4 10 6q59 6 59 47q0 44 -69 127q-157 189 -254 289t-180 150q-57 33 -104 33q-10 0 -19 -1v-481 q0 -47 16 -81t35 -49.5t46.5 -24t39.5 -8.5t25 -1h2l10 -6q2 -35 0 -41q-1 -3 -3.5 -4t-4.5 0h-2q-59 4 -119.5 6.5t-91.5 3.5h-31q-106 0 -239 -10q-9 -2 -11 4z" />
<glyph unicode="L" horiz-adv-x="1214" d="M61 4v41q1 6 11 7q132 0 158 110q6 24 6 53v1004q0 47 -16 81t-35 49.5t-46.5 23.5t-39.5 8.5t-25 0.5h-2q-4 0 -7 2t-3 4l-1 1q-2 35 0 41q1 3 3.5 4t5.5 0h2q59 -4 119 -7t90 -3l30 -1q109 1 242 11q8 2 10 -4v-41q0 -7 -10 -7h-2h-8q-91 0 -130 -65q-24 -38 -24 -98 v-1004q0 -25 1.5 -45t5 -35.5t8.5 -27.5t12 -21t16 -15t20 -10t23.5 -6t27.5 -3t32 -0.5t37 0.5h22q207 0 323 55t183 200q0 4 10 4h37q6 0 6 -8l-104 -301q-2 -4 -11 -4q-210 4 -562 4h-128q-233 0 -276 -2q-9 -2 -11 4z" />
<glyph unicode="M" horiz-adv-x="1900" d="M61 4v41q1 6 11 6q132 0 158 111q6 24 6 53v1004q0 47 -16 81t-35 49.5t-46.5 23.5t-39.5 8.5t-25 0.5h-2q-4 0 -7 2t-3 4l-1 1q-2 35 0 41q1 3 3.5 4t5.5 0h2l121 -11q34 1 147 11q12 2 16 -4l13 -27l581 -1167l578 1169l12 29q2 2 5.5 2.5t6.5 -0.5h2l150 -11l121 11 q8 2 10 -4v-41q0 -7 -10 -7q-160 0 -160 -159v-1010q0 -47 16 -81t35 -49.5t46.5 -24t39.5 -8.5t25 -1h2l10 -6q2 -35 0 -41l-10 -4q-59 4 -119.5 6.5t-91.5 3.5h-31q-106 0 -239 -10q-9 0 -11 4v41q1 6 11 6q131 0 157 111q6 24 6 53v963l-587 -1188q-3 -15 -11 -15l-10 5 l-586 1181v-946q0 -47 16 -81t35 -49.5t46.5 -24t39.5 -8.5t25 -1h2q4 0 7 -1.5t4 -3.5v-1q2 -35 0 -41q-1 -3 -3.5 -4t-4.5 0h-3q-59 4 -110.5 6.5t-72.5 3.5h-22q-71 0 -204 -10q-9 -2 -11 4z" />
<glyph unicode="N" horiz-adv-x="1669" d="M61 4v41q1 6 11 6q132 0 158 111q6 24 6 53v1004q0 47 -16 81t-35 49.5t-46.5 23.5t-39.5 8.5t-25 0.5h-2q-4 0 -7 2t-3 4l-1 1q-2 35 0 41q1 3 3.5 4t5.5 0h2q107 -8 107 -11h-1q39 1 150 11q10 2 14 -4q10 -5 1010 -1143v932q0 47 -16 81t-35 49.5t-46.5 23.5 t-39.5 8.5t-25 0.5h-2l-10 7q-2 35 0 41q1 3 3.5 4t4.5 0h2l205 -11q71 1 204 11q9 2 11 -4v-41q-1 -7 -11 -7q-139 0 -160 -122q-3 -19 -3 -41v-1229q-3 -15 -11 -15l-10 5l-1096 1249v-1014q0 -47 16 -81t35 -49.5t46.5 -24t39.5 -8.5t25 -1h2q4 0 7 -1.5t4 -3.5v-1 q2 -35 0 -41q-1 -3 -3.5 -4t-4.5 0h-3q-59 4 -110.5 6.5t-72.5 3.5h-22q-71 0 -204 -10q-9 -2 -11 4z" />
<glyph unicode="O" horiz-adv-x="1558" d="M74 596q-12 69 -12 136q0 125 42 244q65 184 210.5 311t336.5 161q62 11 125 11q80 -1 159 -19q141 -34 253 -113t191.5 -202t105.5 -269q12 -69 12 -136q-1 -126 -43 -248q-66 -188 -211.5 -318.5t-337.5 -163.5q-62 -11 -123 -11q-126 -1 -248 47q-180 70 -302.5 222 t-157.5 348zM244 627q27 -155 105.5 -285.5t187.5 -206.5q134 -94 277 -93q40 0 81 7q154 25 272 160q95 109 135 272q23 94 24 190q0 71 -13 144q-21 121 -75 228.5t-130 185.5q-94 97 -210 139q-78 28 -158 28q-39 0 -78 -7q-162 -29 -281 -170q-91 -109 -129 -267 q-21 -89 -20 -182q-1 -71 12 -143z" />
<glyph unicode="P" horiz-adv-x="1224" d="M61 0v41q1 6 11 6q132 0 158 111q6 24 6 53v1003q0 47 -15.5 81t-34.5 49.5t-46.5 24t-39.5 9t-24 0.5h-2q-8 0 -8 6l-3 41q0 3 2.5 4t4.5 1h2q59 -4 119.5 -7t90.5 -3l31 -1q107 3 244 21q31 4 69 4h7q35 0 81 -4q50 -6 97.5 -18.5t95.5 -38t84.5 -62t61 -94 t28.5 -129.5q1 -16 1 -32q0 -120 -55 -212q-62 -104 -169.5 -156.5t-243.5 -52.5q-166 0 -223 6v-440q0 -47 15.5 -81t34.5 -49.5t46.5 -24t39.5 -8.5t24 -1h2l10 -6q2 -35 0 -41q-1 -3 -3.5 -4t-4.5 0h-2q-59 4 -119.5 6.5t-91.5 3.5h-31q-106 0 -239 -10q-9 -2 -11 4z M391 772q0 -48 28.5 -56.5t179.5 -8.5h9q129 0 226.5 97.5t97.5 254.5q0 82 -30 147.5t-78 103t-106 57.5q-55 19 -111 19h-5q-58 -1 -108 -20q-52 -19 -77.5 -61t-25.5 -117v-416z" />
<glyph unicode="Q" horiz-adv-x="1572" d="M70 596q-12 69 -12 136q0 124 42 244q65 184 210.5 311t336.5 161q62 11 125 11q80 0 159 -19q141 -33 253 -112.5t191.5 -202.5t105.5 -269q12 -68 12 -135q0 -99 -25 -195q-43 -162 -146 -288t-249 -195q114 -88 204.5 -151t186.5 -119t179 -88.5t170 -50.5 q71 -15 142 -15l32 1q87 4 178 28q4 -4 4 -10q-51 -26 -208 -62q-141 -33 -224 -33h-17q-96 4 -200.5 42t-215 107t-199.5 135.5t-204 162.5q-62 -11 -123 -11q-126 0 -248 47q-179 71 -302 222.5t-158 347.5zM240 627q27 -155 105.5 -285.5t186.5 -206.5q134 -94 277 -94 q41 0 82 8q154 25 272 160q95 109 135 272q24 94 24 190q0 71 -13 144q-21 121 -75 228.5t-130 185.5q-94 95 -211 138q-79 29 -158 29q-39 0 -78 -7q-161 -28 -280 -170q-91 -109 -129 -267q-21 -90 -21 -182q0 -71 13 -143z" />
<glyph unicode="R" horiz-adv-x="1413" d="M61 0v41q1 6 11 6q132 0 158 111q6 24 6 53l-3 1003q0 47 -15.5 81t-35 49.5t-47 24t-39.5 9t-24 0.5h-2q-9 0 -9 6v41q0 3 2.5 4t4.5 1h2q59 -4 119.5 -7t90.5 -3l31 -1q107 3 244 21q31 4 69 4h7q35 0 81 -4q50 -6 97.5 -18.5t95.5 -38t84.5 -62t61 -94t28.5 -129.5 q1 -16 1 -31q0 -144 -76 -246q-84 -112 -230 -153q158 -61 277 -310q42 -89 94 -153t92.5 -92.5t84 -44t59 -17t27.5 -0.5h1l4 -2v-45l-4 -4q-33 -4 -61 -6q-9 0 -20 -1q-21 0 -47 2q-39 3 -73 14t-75 33.5t-77.5 56.5t-75.5 87t-73 121q-46 90 -86.5 154t-68.5 99t-55 54.5 t-44 24.5t-37 6h-4q-166 0 -223 6v-440q0 -47 16 -81t35 -49.5t46.5 -24t39.5 -9t25 -0.5h2l10 -6q2 -35 0 -41q-1 -3 -3.5 -4t-4.5 0h-2q-59 4 -119.5 6.5t-91.5 3.5h-31q-106 0 -239 -10q-9 -2 -11 4zM389 772q0 -48 28.5 -56.5t179.5 -8.5h9q129 0 226.5 97.5t97.5 254.5 q0 82 -30 147.5t-78 103t-106 57.5q-55 19 -111 19h-5q-58 -1 -108 -20q-54 -20 -78.5 -57.5t-24.5 -110.5v-426z" />
<glyph unicode="S" horiz-adv-x="1284" d="M206 1089q1 53 17 97q28 79 79 136t110 86q60 30 129 42q56 10 106 10q12 0 24 -1q61 -3 117 -17q74 -18 156 -64q12 -9 12 -14l25 -180q0 -4 -2 -4l-45 -4q-2 2 -2 4q-28 104 -116 160q-81 52 -177 53q-7 -1 -15 -1q-104 -4 -188 -65q-35 -26 -60.5 -66.5t-33.5 -90.5 q-3 -20 -2 -41q0 -30 6 -60q11 -50 55 -98.5t117 -81.5q31 -14 103 -44.5t112.5 -48.5t101 -52t98 -65.5t73.5 -77.5t55 -99t18 -114q-1 -58 -19 -115q-20 -59 -55 -111.5t-93.5 -94.5t-131.5 -63q-94 -27 -182 -27q-30 0 -58 3q-116 12 -201 47t-132 82l12 202q-2 7 6 11 q4 2 21.5 0.5t21.5 -5.5q6 -3 6 -10q18 -86 80 -147.5t140 -85.5q57 -17 117 -17q23 0 46 2q85 9 148 54q77 57 107 153q14 44 14 85q0 49 -19 95q-22 50 -58.5 88t-88.5 67t-102.5 50.5t-127 54.5t-135.5 64q-71 37 -116 92.5t-59 114.5q-14 55 -14 105v7z" />
<glyph unicode="T" horiz-adv-x="1423" d="M61 1128q82 300 84 304t11 4q98 -2 555 -2t557 2q8 0 10 -4l84 -304q0 -3 -2 -4.5t-4 -1.5h-2h-35l-10 4q-68 148 -132.5 193t-203.5 45h-185v-1149q0 -47 16 -81t35 -49.5t46.5 -24t39.5 -8.5t25 -1h2q4 0 7 -1.5t3 -3.5l1 -1q2 -35 0 -41q-1 -3 -3.5 -4t-5.5 0h-2 q-59 4 -119.5 6.5t-90.5 3.5h-31q-107 0 -240 -10q-8 -2 -10 4v41q0 6 10 6q132 0 158 111q6 24 6 53v1149h-184q-139 0 -203.5 -45t-132.5 -193q-1 -4 -11 -4h-36q-7 0 -7 6z" />
<glyph unicode="U" horiz-adv-x="1587" d="M61 1389q-2 35 0 41q1 3 3.5 4t5.5 0h2q59 -4 119 -7t90 -3l30 -1q109 1 242 11q8 2 10 -4v-41q0 -7 -10 -7h-2h-8q-91 0 -130 -65q-24 -38 -24 -98v-719q0 -134 51 -234t142 -157q109 -68 247 -68q160 0 269 86q153 121 153 373v719q0 47 -16 81t-35 49.5t-46.5 23.5 t-39.5 8.5t-25 0.5h-2l-10 7q-2 35 0 41q1 3 3.5 4t4.5 0h2l205 -11q91 1 224 11q8 2 10 -4v-41q0 -7 -10 -7q-139 0 -160 -120q-4 -20 -4 -43v-719q0 -127 -43.5 -228t-120 -164.5t-177.5 -97t-218 -33.5t-217 33.5t-176.5 97t-120 164.5t-43.5 228v719q0 47 -16 81 t-35 49.5t-46.5 23.5t-39.5 8.5t-25 0.5h-2q-4 0 -7 2t-3 4z" />
<glyph unicode="V" horiz-adv-x="1703" d="M61 1389q-2 35 0 41q1 3 3.5 4t5.5 0h2q59 -4 135.5 -7t122.5 -3l47 -1q106 1 239 11q9 2 11 -4v-41q-1 -7 -11 -7h-1h-19t-29.5 -3t-36.5 -8.5t-33.5 -17.5t-25.5 -28.5t-6.5 -44t16.5 -61.5l400 -945q2 -3 4 5q270 628 403 940q14 34 14.5 61.5t-7.5 44.5t-25.5 29 t-32.5 17t-36.5 8t-29.5 3h-18h-2l-10 7q-2 35 0 41q1 3 3.5 4t4.5 0h2q59 -4 119 -7t90 -3l31 -1q108 1 241 11q8 2 10 -4v-41q0 -7 -10 -7q-141 0 -237 -163q-83 -165 -217 -474t-220.5 -517.5t-97.5 -237.5q-2 -5 -4.5 -7.5t-3.5 -2.5h-2h-2q-1 -1 -3.5 2t-4.5 8 q-2 9 -90 224t-220 521.5t-219 483.5q-88 163 -239 163q-4 0 -7 2t-3 4z" />
<glyph unicode="W" horiz-adv-x="2213" d="M61 1389q-2 35 0 41q1 3 3.5 4t5.5 0h2q59 -4 135.5 -7t122.5 -3l47 -1q102 1 235 11q9 2 11 -4v-41q-1 -7 -11 -7q-6 0 -11 -0.5t-21.5 -1.5t-29.5 -5.5t-30 -11.5t-28 -19.5t-19.5 -29t-8 -41t10.5 -54.5l283 -904q2 -2 4 4q373 910 375 912q0 1 2.5 1t3.5 -1l379 -918 q2 -2 4 4q184 559 282 902q8 27 7.5 49.5t-6 38t-17 28.5t-23 20.5t-28 13t-27.5 8t-25.5 4t-18.5 1.5h-9l-10 7q-2 35 0 41q1 3 3.5 4t4.5 0h2q59 -4 119 -7t90 -3l31 -1q108 1 241 11q8 2 10 -4v-41q0 -7 -10 -7q-13 0 -24.5 -0.5t-47.5 -9t-63.5 -23.5t-57.5 -49t-44 -81 q-59 -192 -155.5 -495.5t-164.5 -513t-72 -220.5q-2 -5 -4.5 -7.5t-4.5 -2.5h-1h-1q-2 -1 -4.5 2t-4.5 8l-387 956q-385 -948 -389 -956q-2 -5 -4.5 -7.5t-4.5 -2.5h-1q-7 -2 -11 10l-385 1229q-13 42 -35 73.5t-45 47.5t-48.5 27.5t-46.5 12.5t-38 3t-23 -1h-3q-4 0 -7 2 t-3 4z" />
<glyph unicode="X" horiz-adv-x="1525" d="M61 4v41q1 6 11 6q125 0 241 144l375 501q-350 503 -364 523q-55 77 -128.5 120t-123.5 43q-4 0 -7 2t-3 4l-1 1q-2 35 0 41q1 3 3.5 4t5.5 0h2q59 -4 118.5 -7t89.5 -3l29 -1q154 1 287 11q8 2 10 -4v-41q0 -7 -10 -7q-63 0 -94 -21q-26 -18 -26 -56v-13q6 -48 56 -123 q177 -254 248 -352q50 67 115 155t105.5 142.5t56.5 77.5q24 32 36 64t10.5 61t-29.5 47t-81 18l-10 7q-2 35 0 41q1 3 3.5 4t4.5 0h2q59 -4 124 -7t101 -3l35 -1q68 1 201 11q8 2 10 -4v-41q0 -7 -10 -7q-127 0 -242 -143l-374 -502q223 -333 364 -522q56 -75 129.5 -119.5 t122.5 -44.5l10 -6q2 -35 0 -41q-1 -3 -3.5 -4t-4.5 0h-2q-59 4 -119 6.5t-91 3.5h-30q-151 0 -284 -10q-8 -2 -10 4v41q0 6 10 6q47 0 76.5 12t40.5 37q5 11 5 26q0 18 -8 40q-14 42 -51 98q-177 254 -248 352l-278 -374q-16 -21 -27.5 -51t-13.5 -62.5t24.5 -55 t81.5 -22.5q4 0 6.5 -1.5t2.5 -3.5v-1q2 -35 0 -41q-1 -3 -3 -4t-4 0h-2q-59 4 -124 6.5t-100 3.5h-36q-67 0 -200 -10q-9 -2 -11 4z" />
<glyph unicode="Y" horiz-adv-x="1484" d="M61 1389q-2 35 0 41q1 3 3.5 4t5.5 0h2q59 -4 135 -7t122 -3l46 -1q88 1 221 11q8 2 10 -4v-41q0 -7 -10 -7q-46 0 -75.5 -9.5t-44.5 -32.5q-10 -14 -10 -36q0 -14 3 -30q9 -43 45 -105q78 -138 258 -442q25 41 266 451q29 50 31.5 89t-13.5 60t-40 34t-40.5 17t-23.5 4 l-10 7q-2 35 0 41q1 3 3.5 4t4.5 0h2q59 -4 119.5 -7t91.5 -3l31 -1q86 1 219 11q8 2 10 -4v-41q0 -7 -10 -7q-5 0 -20 -3t-43 -14t-56.5 -27.5t-61 -47.5t-56.5 -71q-263 -434 -322 -539q-14 -27 -19.5 -48.5t-5.5 -68.5v-348q0 -47 16 -81t35 -49.5t46.5 -24t39.5 -9 t25 -0.5h2q4 0 7 -1.5t4 -3.5v-1q2 -35 0 -41q-1 -3 -3.5 -4t-4.5 0h-3q-59 4 -119.5 6.5t-91.5 3.5h-30q-107 0 -240 -10q-8 -2 -10 4v41q0 6 10 6q132 0 158 111q6 24 6 53v348q0 49 -37 113l-330 543q-29 46 -58 78t-51 48.5t-48.5 25t-41.5 10t-38 1.5q-4 0 -7 2t-3 4z " />
<glyph unicode="Z" horiz-adv-x="1359" d="M61 0v2l975 1380q-528 -5 -602 -20q-56 -11 -103 -40t-75 -61.5t-47.5 -63t-26.5 -51.5l-8 -20q0 -4 -10 -4h-37q-6 0 -6 6l104 306q5 4 11 4q2 0 8 -2t12 -2q90 -3 260 -4h164h152q146 1 280 2.5t141 1.5l2 -2l-974 -1382q587 6 663 22q55 11 102 39.5t75 61t48 63.5 t27 51l8 20q0 4 10 4h35q8 0 8 -8l-104 -303q-6 -4 -10 -4q-3 0 -9 2t-12 2q-92 3 -272 4h-175h-163q-158 -1 -303 -2.5t-148 -1.5z" />
<glyph unicode="[" horiz-adv-x="823" d="M164 -352v1853q0 2 4 2h4q28 0 108 -1t127.5 -0.5t67.5 3.5q7 1 12.5 -1.5t6.5 -5.5l2 -3l-21 -63q-3 -4 -7.5 -7.5t-7.5 -4.5l-3 -1h-164v-1687q170 -4 180 0q7 2 12.5 -1t6.5 -7l2 -3l-21 -65q-3 -4 -7.5 -7t-7.5 -4l-3 -1h-287z" />
<glyph unicode="\" horiz-adv-x="894" d="M63 1427q-4 7 0 7h125q5 0 7 -4l639 -1426q1 -4 -3 -4h-124q-5 -2 -7 4z" />
<glyph unicode="]" horiz-adv-x="823" d="M328 1495q0 1 1.5 3t6.5 5t12 2q20 -3 67.5 -3.5t127.5 0.5t108 1h4l4 -2v-1853q0 -4 -4 -4h-286q-13 2 -19 12l-20 65q0 2 1.5 4t6.5 5.5t12 1.5q10 -4 180 0v1687h-163q-13 3 -19 13z" />
<glyph unicode="^" horiz-adv-x="868" d="M58 949l1 3q343 472 355 482q8 8 20 8q10 0 21 -8l352 -482q4 -12 -4 -20q-3 -4 -9 -8.5t-11 -7.5l-5 -3q-10 -1 -20 7l-324 360q-315 -354 -325 -360q-4 -4 -9 -5.5t-8 -1.5h-2q-21 11 -27 19q-3 4 -4 9t-1 8z" />
<glyph unicode="_" horiz-adv-x="1003" d="M59 -221l21 86q2 4 6.5 6.5t7.5 2.5l4 1h314q28 0 166.5 -1t238 -1t105.5 2q7 2 12 -0.5t6 -6.5l2 -3l-20 -86q-3 -4 -7.5 -7t-8.5 -4l-3 -1h-434q-33 0 -138 1t-175.5 1t-77.5 -2q-6 -2 -11 1t-7 7z" />
<glyph unicode="`" horiz-adv-x="372" d="M68 1423l90 90q4 7 15.5 5.5t16.5 -17.5l121 -411q2 -11 -6 -17l-20 -8q-9 0 -17 8l-198 307q-20 25 -2 43z" />
<glyph unicode="a" horiz-adv-x="880" d="M63 217q-1 15 13 21l338 178q33 18 59.5 38t43 36.5t28 39t17 36t8.5 37t3 33v32.5v14q-7 77 -53 109t-108 32q-74 0 -133 -43q-41 -30 -41 -71l8 -37q3 -6 -2 -6l-117 -54q-8 -5 -12 4q-2 6 -5 17t1 42.5t20.5 61t65 65.5t122.5 62q59 20 109 28q40 6 69 5h15 q34 -2 65.5 -14.5t49 -24t34.5 -32.5t22.5 -30.5t14.5 -25.5q9 -18 14 -54t6 -62l1 -27v-320q0 -94 13 -149.5t30.5 -71.5t40.5 -14q6 2 8 -6q6 -24 6 -26t-4 -5l-133 -55q-13 -4 -29 4q-21 11 -42.5 50t-28.5 83q-193 -124 -250 -137q-11 -2 -24 -2q-28 0 -66 10 q-56 14 -95 57q-32 33 -52.5 76t-24.5 69zM217 238q13 -49 37 -82q32 -42 75 -59q29 -12 56 -11q13 0 25 2q18 4 35.5 11t42.5 25t43 42.5t31 67t13 94.5v143q-3 -16 -27.5 -39t-64.5 -45z" />
<glyph unicode="b" horiz-adv-x="1126" d="M61 1393v39q1 4 7 6l282 104q10 4 10 -2v-735q100 61 206 82q54 11 104 10q50 1 98 -9q96 -20 170.5 -94.5t105.5 -193.5q18 -64 18 -123v-20q-4 -68 -22.5 -131t-54 -115t-79.5 -96t-98.5 -73t-110.5 -47t-116 -18t-115.5 14.5t-107.5 51t-92 90.5q-34 -43 -81 -75.5 t-73.5 -44t-31.5 -11.5q-4 0 -4 6l6 4q39 25 66 77t38 111.5t15 99t4 69.5v934v35t-5 23t-11 16t-24 7.5t-36.5 4.5h-56.5q-11 0 -11 4zM360 420q0 -89 25 -160.5t67 -114.5t94 -65q46 -20 96 -21q6 1 11 1q56 2 107 28q80 39 124 161q26 74 26 158q0 54 -11 111 q-18 98 -64.5 166.5t-106.5 97t-126 31.5h-14q-59 0 -116 -23q-63 -26 -112 -73v-297z" />
<glyph unicode="c" horiz-adv-x="892" d="M65 344q-4 29 -4 64.5t4 77.5q8 84 39 153q33 72 95.5 134.5t144.5 94.5q81 29 156 29q23 -1 45 -3q96 -12 170 -70t98 -144q2 -19 0 -23q-4 -8 -10 -8h-131q-1 7 -4 18.5t-17 41.5t-32.5 53.5t-53.5 45.5t-78 26q-12 1 -23 1q-40 0 -78 -13q-49 -17 -90.5 -56.5 t-67 -112t-25.5 -168.5q0 -49 10.5 -100t32 -101.5t60.5 -92.5t89 -64q61 -27 125 -30q11 -1 22 -1q50 0 90 12q48 14 89 37.5t64 44t30 33.5q2 2 6 2q2 0 8 -6q0 -2 -4 -10q-73 -146 -202 -202q-67 -29 -143 -29q-72 0 -152 26q-75 25 -139 87.5t-101 156.5q-15 38 -23 96z " />
<glyph unicode="d" horiz-adv-x="1079" d="M63 417v7q1 71 19 133q20 65 57.5 123t87.5 101.5t113.5 72.5t131.5 39q30 4 62 4q40 -1 82 -7q76 -12 148 -48v458v35t-5.5 22.5t-10.5 15.5t-24 7t-36.5 4h-56.5q-10 1 -10 7v39q0 4 6 4l280 106q11 4 11 -4v-1229q0 -94 13 -149.5t30 -71.5t40 -14q7 2 9 -6 q6 -24 6 -26t-4 -5l-133 -55q-13 -4 -29 4q-24 12 -47 56t-29 93q-71 -58 -156 -102.5t-143 -48.5q-12 -1 -24 -1q-109 -1 -209 73q-110 82 -154 214q-24 74 -25 149zM213 473q0 -81 23 -158q23 -76 76 -131q52 -56 116 -79q44 -16 91 -16q22 -1 44 3q71 10 129 60 q41 35 55.5 92.5t16.5 161.5v354q-50 39 -109 59q-56 19 -107 19h-5q-53 -1 -105 -11q-74 -18 -126.5 -71t-75.5 -125q-23 -74 -23 -158z" />
<glyph unicode="e" horiz-adv-x="892" d="M65 342q-4 28 -4 63t4 77q8 82 39 151q32 71 95 133t145 96q91 35 169 35q37 0 71 -8q106 -24 172.5 -103.5t68.5 -183.5q2 -18 0 -22q-5 -9 -10 -9h-598q-12 -44 -12 -94q-1 -15 1 -31q4 -68 22 -130t61.5 -113.5t105.5 -75.5q71 -27 137 -29h19q53 0 93 12q46 14 85 37 t59 42.5t27 33.5q2 2 6 2q2 0 8 -6q0 -2 -4 -10q-73 -146 -202 -202q-67 -29 -143 -29q-72 0 -152 26q-75 25 -139 87.5t-101 156.5q-15 37 -23 94zM236 633h440q1 21 -9.5 52t-32.5 65.5t-65 59t-98 24.5q-77 0 -140 -52.5t-95 -148.5z" />
<glyph unicode="f" horiz-adv-x="727" d="M63 754q-4 0 0 4q1 0 19.5 12.5t38.5 27t22 15.5q5 2 7 2h102v117q0 334 231 502q44 33 91.5 57.5t108.5 40.5q32 9 65 9q30 0 61 -7q65 -15 121 -64q3 -2 2.5 -4.5t-2.5 -3.5l-2 -2q-127 -88 -133 -94q-3 -2 -6.5 -0.5t-6.5 4.5l-2 2q-38 58 -128 58h-6q-95 -2 -152 -66 q-56 -64 -72 -163.5t-16 -258.5v-127h307q4 0 0 -4q-1 0 -19.5 -12.5t-38.5 -27t-22 -15.5q-4 -2 -6 -2h-221v-539q0 -47 15.5 -81t35 -49.5t47 -24t39.5 -9t24 -0.5h2q4 0 7 -1.5t4 -3.5v-1q2 -35 0 -41q-1 -3 -3.5 -4t-4.5 0h-3q-59 4 -119.5 6.5t-91.5 3.5h-30 q-107 0 -240 -10q-8 -2 -10 4v41q0 6 10 6q132 0 158 111q6 24 6 53v539h-189z" />
<glyph unicode="g" horiz-adv-x="983" d="M63 -221v11q0 96 69 162q72 69 192 95q-72 3 -110 46.5t-44 88.5q0 17 10 21q3 1 31 11.5t89 32.5t130 48q-12 -1 -25 -1q-41 0 -84 10q-56 13 -108 42.5t-88.5 85t-42.5 127.5q-1 13 -1 27q0 79 47 148q54 79 148.5 122t204.5 43q140 0 234 -78l127 88q6 8 14 0 q15 -15 51 -63q4 -5 0 -11t-8 -6l-147 -43q6 -6 16 -22.5t23.5 -59t13.5 -88.5q0 -38 -9 -73t-21.5 -63t-36.5 -55t-44 -46t-55 -40t-58.5 -33.5t-65 -30t-63.5 -26t-65.5 -24.5t-60.5 -22q-7 -52 170 -52q24 0 51 1h6h27q176 0 264 -72q75 -61 75 -174q0 -32 -6 -68 q-13 -82 -65.5 -150t-127.5 -108t-162 -64q-65 -17 -129 -17q-22 0 -44 2q-86 8 -156.5 36t-116 91.5t-49.5 150.5zM217 -178v-5q0 -105 79 -177q78 -70 197 -70h13q128 4 197 88.5t69 208.5q0 83 -60 129q-60 45 -198 45h-6q-51 -1 -98 -11.5t-92 -33t-72.5 -67.5 t-28.5 -107zM229 600q6 -103 61.5 -163.5t141.5 -74.5q16 -3 32 -3q26 0 52 7q44 13 84.5 59t54.5 122q6 35 6 67q0 77 -35 135q-50 83 -157 93q-11 1 -22 1l-62 -8q-42 -11 -80 -37t-59 -78q-18 -43 -18 -98q0 -11 1 -22z" />
<glyph unicode="h" horiz-adv-x="1269" d="M61 4v41q1 6 11 6q132 0 158 111q6 24 6 53v1069q0 37 -2 52.5t-15 31.5t-40 20.5t-77 4.5q-10 0 -10 6v39q0 4 6 4l281 106q10 4 10 -4l-2 -899q76 127 193 201q44 28 98 41q52 13 95 12q2 1 3 1q44 0 78 -11q63 -19 111 -69.5t61 -129.5q8 -51 8 -168v-307 q0 -47 16 -81t35 -49.5t46.5 -24t39.5 -8.5t25 -1h2l10 -6q2 -35 0 -41q-1 -3 -3.5 -4t-4.5 0h-2q-59 4 -119.5 6.5t-91.5 3.5h-31q-106 0 -239 -10q-8 -2 -10 4v41q0 6 10 6q132 0 158 111q6 24 6 53v326q0 157 -58 215q-23 24 -59 36q-25 9 -59 8q-15 0 -29 -1 q-52 -5 -107 -35q-48 -27 -102.5 -89.5t-77.5 -119.5v-340q0 -47 16 -81t35 -49.5t46.5 -24t39.5 -8.5t25 -1h2l10 -6q2 -35 0 -41q-1 -3 -3.5 -4t-4.5 0h-2q-59 4 -119.5 6.5t-91.5 3.5h-31q-106 0 -239 -10q-9 -2 -11 4z" />
<glyph unicode="i" d="M61 4v41q1 6 11 6q132 0 158 111q6 24 6 53v444v35.5t-5.5 22.5t-11 15t-24.5 7t-36.5 4h-56.5q-10 1 -10 7v38q0 5 6 5l281 106q10 4 10 -4v-680q0 -47 16 -81t35 -49.5t46.5 -24t39.5 -8.5t25 -1h2l10 -6q2 -35 0 -41q-1 -3 -3.5 -4t-4.5 0h-2q-59 4 -119.5 6.5 t-91.5 3.5h-31q-106 0 -239 -10q-9 -2 -11 4zM217 1169q0 41 28 70t68 29q41 0 70 -29t29 -70q0 -40 -29 -68t-70 -28q-40 0 -68 28t-28 68z" />
<glyph unicode="j" d="M0 -455q236 102 236 455v659v35.5t-5.5 22.5t-11 15t-24.5 7t-36.5 4h-56.5q-10 1 -10 7v38q0 5 6 5l281 106q10 3 10 -4v-895q0 -86 -21 -157.5t-55 -117.5t-75 -81.5t-82.5 -54t-75.5 -30.5t-55 -15l-21 -3zM215 1169q0 41 28 70t68 29q41 0 70 -29t29 -70 q0 -40 -29 -68t-70 -28q-40 0 -68 28t-28 68z" />
<glyph unicode="k" horiz-adv-x="1165" d="M61 4v41l2 4q3 2 7 2q131 0 157 111q6 24 6 53v1083v35t-5 23t-11 16t-24 7.5t-36.5 4.5h-56.5q-10 1 -10 7v36q0 7 8 7l279 104q10 4 10 -2v-1016l184 156q84 71 84 109q0 42 -104 42l-10 7q-2 36 0 40q1 3 3.5 4t4.5 1h2q59 -4 118 -7t88 -4h29q113 1 246 11q8 1 10 -5 v-40q0 -7 -10 -7h-3q-4 3 -22.5 1t-41 -3t-57.5 -11.5t-72 -25.5t-84.5 -45t-94.5 -69l-163 -137q42 -6 84 -35q30 -22 53 -41.5t52 -47.5t49 -48t68 -70t85 -88q52 -52 98.5 -86t86.5 -48t67 -18t61 -4q4 0 6 -1.5t2 -3.5v-1q2 -35 0 -41q-1 -3 -3 -4t-3 0h-2 q-59 4 -119.5 6.5t-91.5 3.5h-31q-108 0 -241 -10q-8 -2 -10 4v41q0 6 10 6q52 0 52 26q0 24 -44 77q-91 99 -203 211q-72 72 -133 92v-242q0 -47 16 -81t35 -49.5t46.5 -24t39.5 -8.5t25 -1h2l10 -6q2 -35 0 -41q-1 -3 -3.5 -4t-4.5 0h-2q-59 4 -119 6.5t-90 3.5h-31 q-108 0 -241 -10q-7 -2 -9 4z" />
<glyph unicode="l" d="M61 4v41q1 6 11 6q132 0 158 111q6 24 6 53v1083q0 25 -0.5 35.5t-5.5 23t-11 15.5t-24 7.5t-36.5 4.5h-56.5q-10 1 -10 7v36q0 5 6 7l281 104q10 4 10 -2v-1321q0 -47 16 -81t35 -49.5t46.5 -24t39.5 -8.5t25 -1h2l10 -6q2 -35 0 -41q-1 -3 -3.5 -4t-4.5 0h-2 q-59 4 -119.5 6.5t-91.5 3.5h-31q-106 0 -239 -10q-9 -2 -11 4z" />
<glyph unicode="m" horiz-adv-x="1914" d="M61 4v41q1 6 11 6q132 0 158 111q6 24 6 53v420q0 37 -2 52.5t-15 31t-40 20t-77 4.5q-10 1 -10 7v38q0 5 6 5l281 106q10 4 10 -4l-2 -250q76 127 193 201q44 28 98 41q52 13 95 12q2 1 3 1q44 0 78 -11q63 -19 111 -69.5t61 -129.5l6 -47q43 69 87 116t106 87 q43 28 97 41q52 13 96 12q2 1 3 1q44 0 78 -11q63 -19 111 -69.5t61 -129.5q8 -51 8 -168v-307q0 -47 16 -81t35 -49.5t46.5 -24t39.5 -8.5t25 -1h2l10 -6q2 -35 0 -41q-1 -3 -3.5 -4t-4.5 0h-2q-59 4 -119.5 6.5t-91.5 3.5h-30q-107 0 -240 -10q-8 -2 -10 4v41q0 6 10 6 q132 0 158 111q6 24 6 53v326q0 157 -58 215q-22 24 -58 36q-25 9 -60 8q-14 0 -28 -1q-52 -5 -108 -35q-48 -27 -102.5 -89.5t-77.5 -119.5v-352q1 -32 10 -57.5t21 -41t29.5 -27t31 -16.5t31.5 -7.5t24.5 -2.5h14.5h2l10 -6q2 -35 0 -41q-1 -3 -3.5 -4t-4.5 0h-2 q-59 4 -119.5 6.5t-91.5 3.5h-31q-106 0 -239 -10q-8 -2 -10 4v41q0 6 10 6q132 0 158 111q6 24 6 53v326q0 157 -58 215q-23 24 -59 36q-25 9 -59 8q-15 0 -29 -1q-52 -5 -107 -35q-48 -27 -102.5 -89.5t-77.5 -119.5v-340q0 -47 16 -81t35 -49.5t46.5 -24t39.5 -8.5t25 -1 h2l10 -6q2 -35 0 -41q-1 -3 -3.5 -4t-4.5 0h-2q-59 4 -119.5 6.5t-91.5 3.5h-31q-106 0 -239 -10q-9 -2 -11 4z" />
<glyph unicode="n" horiz-adv-x="1269" d="M61 4v41q1 6 11 6q132 0 158 111q6 24 6 53v420q0 37 -2 52.5t-15 31t-40 20t-77 4.5q-10 1 -10 7v38q0 5 6 5l281 106q10 4 10 -4l-2 -250q76 127 193 201q44 28 98 41q52 13 95 12q2 1 3 1q44 0 78 -11q63 -19 111 -69.5t61 -129.5q8 -51 8 -168v-307q0 -47 16 -81 t35 -49.5t46.5 -24t39.5 -8.5t25 -1h2l10 -6q2 -35 0 -41q-1 -3 -3.5 -4t-4.5 0h-2q-59 4 -119.5 6.5t-91.5 3.5h-31q-106 0 -239 -10q-8 -2 -10 4v41q0 6 10 6q132 0 158 111q6 24 6 53v326q0 157 -58 215q-23 24 -59 36q-25 9 -59 8q-15 0 -29 -1q-52 -5 -107 -35 q-48 -27 -102.5 -89.5t-77.5 -119.5v-340q0 -47 16 -81t35 -49.5t46.5 -24t39.5 -8.5t25 -1h2l10 -6q2 -35 0 -41q-1 -3 -3.5 -4t-4.5 0h-2q-59 4 -119.5 6.5t-91.5 3.5h-31q-106 0 -239 -10q-9 -2 -11 4z" />
<glyph unicode="o" horiz-adv-x="1024" d="M61 444q0 200 130.5 327.5t334.5 127.5q191 -1 315 -127q120 -123 120 -321v-13q-4 -214 -132.5 -335t-334.5 -123h-5q-80 0 -155 30q-77 30 -138.5 87t-98 147t-36.5 200zM221 506q-1 -17 -1 -34q0 -69 16 -136q20 -84 60.5 -152.5t106.5 -108.5q57 -35 125 -35 q10 0 21 1q65 5 114 39t75.5 86t40 105t16.5 110q1 22 1 43q0 98 -26 183q-32 103 -107 169q-72 64 -170 64h-6q-111 -1 -184.5 -96t-81.5 -238z" />
<glyph unicode="p" horiz-adv-x="1146" d="M61 -416l2 4q3 2 7 2q131 0 157 111q6 24 6 53v905v35t-5.5 22.5t-10.5 15.5t-24 7t-36.5 4h-56.5q-10 1 -10 7v38q0 3 8 5l279 106q10 4 10 -2v-92q79 48 165 73q72 20 142 20h26q82 -5 152.5 -36t123.5 -99t75 -165q14 -59 14 -113q0 -24 -3 -48q-9 -76 -36 -143 t-73 -121t-101 -95t-119 -65.5t-127 -32.5q-23 -2 -46 -2q-40 0 -80 8q-62 13 -113 47v-279q0 -47 16 -81t35 -49.5t46.5 -24t39.5 -9t25 -0.5h2l10 -6q2 -35 0 -41q-1 -3 -3.5 -4t-4.5 -1l-2 1q-59 4 -119 6.5t-90 2.5l-31 1q-108 0 -241 -10q-7 -2 -9 4v41zM387 365 q0 -79 26 -142t68.5 -100t94.5 -56q44 -16 90 -16q8 0 17 1q55 3 103 28q78 40 118 158q28 81 28 183q0 45 -6 95q-22 197 -170 268q-61 28 -128 28q-33 0 -67 -7q-103 -21 -174 -92v-348z" />
<glyph unicode="q" horiz-adv-x="1114" d="M63 394q-1 17 -1 33q0 46 8 87q12 57 37 110t60.5 96.5t81.5 78.5t97.5 58t110.5 33q41 7 82 7q19 0 37 -1q61 -5 125.5 -27t125.5 -62q23 32 51.5 58t44.5 36t19 10q4 0 4 -4q-11 -15 -18 -49q-10 -51 -10 -307l2 -797q0 -47 15.5 -81t35 -49.5t47 -24t39.5 -9t24 -0.5 h2q4 0 7 -1.5t4 -2.5v-2q2 -35 0 -41q-1 -3 -3.5 -4t-4.5 -1l-3 1q-59 4 -119.5 6.5t-91.5 2.5l-30 1q-107 0 -240 -10q-8 -2 -10 4v41q0 6 10 6q132 0 158 111q6 24 6 53l-2 377q-70 -61 -149.5 -103t-139.5 -46q-12 -1 -24 -1q-110 0 -209 73q-111 82 -154 214 q-21 63 -25 126zM212 474q0 -82 24 -159q23 -76 76 -131.5t116 -78.5q44 -16 91 -16q22 0 44 3q71 11 129 60q34 29 51 98.5t19 129t2 189.5v19v17.5v19.5q-13 65 -48.5 112.5t-80.5 69t-97 29.5q-19 2 -36 2q-33 0 -64 -9q-74 -18 -126.5 -71.5t-75.5 -125.5 q-24 -74 -24 -158z" />
<glyph unicode="r" horiz-adv-x="886" d="M61 4v41q1 6 11 6q132 0 158 111q6 24 6 53v444v35.5t-5.5 22.5t-11 15t-24.5 7t-36.5 4h-56.5q-10 1 -10 7v38q0 5 6 5l281 106q10 4 10 -4v-164q4 6 12 16t33 35.5t51 46.5t64.5 40.5t75.5 25.5q16 3 32 3q20 0 39 -4q34 -8 56.5 -22t39 -30t24 -28t7.5 -15t-3 -6.5 t-6 -6.5l-3 -2q-15 -15 -45 -37t-54.5 -39t-25.5 -18h-8q-31 23 -33 27v6l12 16q0 2 -1 5t-6 10.5t-13.5 14t-25 12t-38.5 7.5q-26 2 -55 -9.5t-51 -29.5t-40 -36t-28 -31l-10 -12v-455q0 -47 16 -81t35 -49.5t46.5 -24t39.5 -8.5t25 -1h2l10 -6q2 -35 0 -41q-1 -3 -3.5 -4 t-4.5 0h-2q-59 4 -119.5 6.5t-91.5 3.5h-31q-106 0 -239 -10q-9 -2 -11 4z" />
<glyph unicode="s" horiz-adv-x="761" d="M104 94l27 154q1 4 3.5 5.5t4.5 0.5h2q25 -12 29 -16q3 -2 4.5 -6t1.5 -8v-3q4 -68 48 -108.5t108 -53.5q22 -4 43 -4q35 0 69 12q54 20 82 66q15 21 15 49q0 20 -9 46q-20 58 -83 96q-25 15 -74.5 42.5t-79.5 45t-70 46.5t-63 55.5t-40 63.5t-18 78v7q0 82 46 139 q48 59 124 80q60 17 127 17q16 0 33 -1q86 -5 160 -37q10 -6 10 -14q0 -5 12 -76l13 -70l-2 -4l-49 -2q-3 0 -3 4q-11 74 -71 106q-49 27 -111 26q-14 0 -28 -1q-55 -5 -91.5 -32.5t-40.5 -75.5v-8q0 -33 23 -61q26 -30 86 -70q28 -19 79 -48t84 -48.5t73 -51.5t61.5 -63 t32.5 -77q6 -25 6 -53q0 -22 -4 -46q-12 -69 -57 -118t-100.5 -71t-119.5 -26q-16 -1 -32 -1q-55 0 -105 13q-66 17 -98 36t-47 35q-1 2 -3.5 5t-5.5 11t-2 15z" />
<glyph unicode="t" horiz-adv-x="684" d="M41.5 759q-1.5 5 3.5 9q169 58 285 274q4 8 12 2q3 -2 2 -4v-225h320q4 0 0 -4q-1 0 -19.5 -12.5t-38.5 -27t-22 -15.5q-4 -2 -6 -2h-234v-365q0 -126 5.5 -169t27.5 -73q31 -42 92 -42q75 0 197 63q6 4 10 -2l8 -12q1 -1 -58 -42t-125.5 -83t-82.5 -45q-12 -2 -25 -2 q-38 0 -80 18q-57 24 -84 72q-28 53 -34.5 112.5t-6.5 204.5v365h-137q-8 0 -9.5 5z" />
<glyph unicode="u" horiz-adv-x="1032" d="M20 811v39q1 4 7 4l254 33q10 4 10 -6v-502q0 -12 -0.5 -44t0 -44.5t2 -38.5t5 -40t10 -32.5t17 -32.5t25.5 -26q42 -34 111 -34q15 0 31 2q92 9 149 61q25 22 41.5 53t24.5 54t12 66.5t4 59v63.5v244q0 37 -2 53.5t-12.5 33.5t-34 22.5t-64.5 5.5q-10 0 -10 6v39 q0 4 6 4l254 33q10 4 10 -6v-602q0 -82 13.5 -131t31 -63.5t39.5 -12.5q7 2 9 -6q6 -24 6 -26t-4 -5l-134 -55q-15 -5 -28 4q-17 13 -30.5 29t-21.5 29t-15 30.5t-10 26.5t-7 24.5t-4 17.5q-61 -85 -155 -129q-75 -34 -149 -35l-39 3q-94 12 -155 73q-49 51 -61.5 113.5 t-12.5 191.5v332q0 27 -0.5 38t-3.5 28t-9.5 23t-19 14t-32 10t-47.5 2q-11 0 -11 6z" />
<glyph unicode="v" horiz-adv-x="1093" d="M0 827q-2 35 0 41q1 3 3.5 4t4.5 0h2q59 -4 120 -6.5t92 -3.5h32q102 0 235 10q9 2 11 -4v-41q-1 -6 -11 -6h-13.5t-24.5 -3t-32 -8t-28 -17.5t-21.5 -29.5t-2 -45t19.5 -63l217 -442q3 -2 4 4l207 440q11 31 12.5 57t-4 42.5t-17 29t-23.5 19t-25 10.5t-20 5t-11 1 l-10 6q-2 35 0 41q1 3 3.5 4t4.5 0h2l178 -10q45 0 178 10q9 2 11 -4v-41q-1 -6 -11 -6q-13 0 -26.5 -3.5t-40.5 -17t-59 -50.5t-62 -93q-318 -647 -324 -667q-2 -5 -4.5 -7.5t-4.5 -2.5h-1q-6 0 -10 10l-324 667q-90 164 -217 164z" />
<glyph unicode="w" horiz-adv-x="1501" d="M0 824v1q-2 35 0 41q1 3 3 4t3 0h2q59 -4 119.5 -6.5t91.5 -3.5h31q82 0 215 10q8 2 10 -4v-41q0 -6 -10 -6q-20 0 -44 -8.5t-48.5 -25.5t-36.5 -51q-6 -18 -5 -38q0 -19 5 -41q19 -79 46.5 -181.5t45.5 -165.5l18 -62l324 583l2 3q1 3 3 4.5t5 1.5t5 -1.5t4 -4.5l2 -3 l315 -577l108 399q6 27 6.5 50.5t-3 39.5t-13 29t-18.5 21t-23 14t-23.5 8.5t-23.5 4t-19.5 1.5h-15.5l-10 6q-2 35 0 41q1 3 3.5 4t4.5 0h2q59 -4 110.5 -6.5t72.5 -3.5h22q72 0 205 10q8 2 10 -4v-41q0 -6 -10 -6q-13 0 -26 -1.5t-38 -12t-45.5 -28t-42.5 -54t-36 -86.5 l-187 -647q-2 -15 -8 -15l-12 5l-340 651l-353 -641q-2 -15 -10 -15l-10 5l-201 710q-14 42 -34 69.5t-45 39.5t-46 16t-49 4q-4 0 -6 1.5t-2 3.5z" />
<glyph unicode="x" horiz-adv-x="1024" d="M20 4v41l2 4q3 2 7 2q48 0 84 8.5t67.5 31t50.5 41t54 58.5q14 16 159 226l-180 227q-40 49 -52.5 64t-42 46t-46 41t-42 19.5t-52.5 9.5q-4 0 -6.5 1.5t-2.5 3.5v1q-2 37 0 41q1 3 3 4t4 0h2q59 -4 104 -6t61 -2h15h38q96 0 206 8q6 2 8 -4v-41l1 -1q0 -2 -2.5 -3.5 t-6.5 -1.5q-34 0 -55.5 -3t-36.5 -13.5t-13.5 -29t18 -50t52.5 -76.5q10 -14 102 -129q62 90 129 174q40 55 40 86q0 6 -1 10q-8 32 -53 31q-4 0 -6 1.5t-2 3.5v1q-2 37 0 41q1 3 3 4t4 0h1l180 -10q45 0 178 10q6 2 8 -4v-41l1 -1q0 -2 -2.5 -3.5t-6.5 -1.5q-40 0 -73 -7.5 t-54 -16t-47.5 -31.5t-38.5 -36t-43 -48q-20 -25 -164 -229q11 -15 187 -224q47 -56 68.5 -80t53 -52.5t57 -38t56.5 -9.5q4 0 6.5 -1.5t2.5 -3.5v-1q2 -35 0 -41q-1 -3 -3 -4t-4 0h-2l-194 10q-119 0 -252 -10q-6 -2 -8 4v41l-1 1q0 2 2.5 3.5t6.5 1.5q48 0 77 7.5t42.5 26 t-2 54t-60.5 86.5q-8 9 -32.5 35.5t-42.5 47.5t-33 40q-66 -98 -123 -170q-25 -31 -34.5 -56t-4.5 -40t18 -23t33 -8q4 0 6 -1.5t2 -3.5v-1q2 -35 0 -41q-1 -3 -3 -4t-4 0h-1l-180 10q-45 0 -178 -10q-7 -2 -9 4z" />
<glyph unicode="y" horiz-adv-x="1091" d="M0 825q-2 35 0 41q1 3 3.5 4t4.5 0h2q59 -4 119.5 -6.5t91.5 -3.5h31q104 0 237 10q9 2 11 -4v-41q-1 -6 -11 -6h-14t-25 -3t-32.5 -8.5t-28.5 -18t-20.5 -29.5t-2 -44.5t20.5 -62.5l215 -436q4 -8 10 4l203 434q14 30 17 55t-3 41t-18 29t-25 20t-27 11.5t-22 6t-12 1.5 t-6 1.5t-2 3.5v1q-2 35 0 41q1 3 3 4t4 0h1l180 -10q45 0 178 10q7 2 9 -4v-41l-2 -4q-3 -2 -7 -2q-12 0 -25.5 -3.5t-40.5 -17t-59 -50.5t-63 -93q-43 -79 -120.5 -245t-141.5 -298.5t-162.5 -295t-198.5 -277.5q-7 -7 -16 -2q-105 70 -115 80q-2 1 -1 5t5 7 q97 50 201.5 156t181.5 254l-303 616q-89 164 -215 164z" />
<glyph unicode="z" horiz-adv-x="913" d="M61 2l582 819q-213 0 -281 -10q-42 -6 -78.5 -25.5t-58 -42.5t-37 -45t-22.5 -36l-6 -15q0 -4 -10 -4h-37q-7 0 -7 8l105 221q4 7 10 7q3 0 9 -3.5t12 -3.5q117 -4 251 -4t244 2t113 2l2 -2l-584 -820q244 0 326 13q42 6 78.5 24.5t58 41.5t37.5 45t22 36l7 15q0 4 10 4 h35q8 0 8 -8l-107 -221q-4 -4 -10 -4q-1 0 -7 2t-13 2q-116 4 -285 4h-118q-248 -2 -249 -2z" />
<glyph unicode="{" horiz-adv-x="923" d="M164 559v29q0 14 18 14l17 2q29 6 49 19.5t28 28.5t11.5 29.5t2.5 24.5l-1 9v555q0 65 30 113t72.5 70t84.5 34.5t72 14.5l30 1q9 0 13.5 -4.5t4.5 -8.5v-5v-17q0 -10 -4.5 -15.5t-9.5 -6.5h-4q-38 -9 -66.5 -30.5t-41 -46t-20 -47t-8.5 -37.5v-15v-553q0 -99 -69 -144 q69 -45 69 -143v-553q0 -6 0.5 -15.5t8 -36t20 -48.5t41 -44.5t66.5 -31.5q2 0 5 -0.5t8 -6.5t5 -16v-16q2 -18 -18 -18q-6 0 -16.5 0.5t-40.5 4.5t-57 12t-60.5 25.5t-57.5 41t-40.5 62.5t-16.5 87v555q1 4 1 10t-3 23t-11 30.5t-28 27.5t-49 20q-11 2 -17 2 q-7 0 -11.5 3.5t-5.5 7.5z" />
<glyph unicode="|" horiz-adv-x="456" d="M164 -389v1921q0 4 4 4h121l4 -4v-1921q0 -4 -4 -4h-121z" />
<glyph unicode="}" horiz-adv-x="923" d="M328 -322q0 10 4.5 16t9.5 6l4 1q38 9 66 30.5t41 46t20 47t7 37.5l1 15v553q0 97 70 143q-70 46 -70 144v553q0 6 -0.5 15.5t-7.5 36t-20 48.5t-41 44.5t-66 31.5q-2 0 -5 0.5t-8 6t-5 15.5v17q-2 18 18 18q6 0 16.5 -0.5t40.5 -5t57 -12.5t60.5 -25.5t57.5 -41 t40.5 -62t16.5 -86.5v-555q-1 -4 -1 -10t3 -23t11 -30.5t28 -27.5t49 -20q10 -2 16 -2q8 0 12.5 -3.5t5.5 -6.5l1 -4v-29q-3 -14 -19 -14l-16 -2q-29 -6 -49 -19.5t-28 -28.5t-11.5 -29.5t-2.5 -23.5l1 -10v-555q0 -66 -30 -114.5t-72.5 -70t-84.5 -34t-72 -13.5l-30 -1 q-9 0 -13.5 4.5t-4.5 9.5v4v16z" />
<glyph unicode="~" horiz-adv-x="1202" d="M63 399q-4 4 3 17q8 11 17.5 22.5t41 41.5t63 51.5t81.5 41.5t100 23.5t114.5 -14t128.5 -60.5q97 -65 181.5 -92t135 -23t92.5 26.5t56 38.5t24 30l1 2q6 6 14 0q17 -11 23 -17q5 -5 -2 -16l-9 -12q-8 -12 -18.5 -25.5t-29 -32.5t-39 -36.5t-48.5 -34t-58 -27 t-67.5 -14.5t-76 1.5t-85 24t-94.5 50.5q-69 47 -134.5 73.5t-113 33.5t-92 1t-71 -16.5t-52.5 -29t-33 -26.5t-15 -17l-1 -1q-6 -6 -14 0q-17 10 -23 16z" />
<glyph unicode="&#xa1;" horiz-adv-x="655" d="M205 -446l80 1126q0 10 6 10h47q6 0 6 -12l62 -1110q3 -23 -15 -25l-170 -10q-2 0 -5 1t-7.5 6t-3.5 14zM215 897q0 40 28.5 68t69.5 28q40 0 68.5 -28t28.5 -68q0 -41 -28.5 -69.5t-68.5 -28.5q-41 0 -69.5 28.5t-28.5 69.5z" />
<glyph unicode="&#xa2;" horiz-adv-x="993" d="M167 343.5q-8 58.5 0.5 142.5t39.5 153q46 102 127.5 165.5t183.5 86.5l19 373q0 4 4 4h121l4 -4l-19 -369q97 -14 170.5 -71.5t97.5 -143.5q2 -19 0 -23q-4 -8 -10 -8h-131q-1 5 -3.5 14t-12.5 33t-23 45t-37.5 43.5t-54.5 34.5l-35 -721q58 -6 115.5 8t97 37t65 44.5 t32.5 35.5q2 2 6 2q2 0 8 -6q0 -2 -4 -10q-77 -155 -217 -207q-52 -20 -109 -22l-18 -369q0 -4 -4 -4h-121l-4 4l18 381q-207 56 -283 256q-15 37 -23 95.5zM305 485q0 -103 43.5 -203t132.5 -147l33 694q-90 -19 -149.5 -105t-59.5 -239z" />
<glyph unicode="&#xa3;" horiz-adv-x="1167" d="M60 -5q-2 4 3 7q65 65 111.5 121t87 126t58.5 138t17 151t-28 171q-39 0 -98 1t-89.5 1t-37.5 -2q-6 -2 -10.5 1t-5.5 7l-2 4l20 86q2 4 6.5 6.5t7.5 2.5l4 1h160q-77 142 -102 247.5t7.5 191.5t131.5 141q96 52 204.5 61.5t189.5 -27t98 -110.5q0 -16 -11 -25l-106 -84 q-17 -5 -19 13q0 4 -5 22t-21.5 49t-40.5 52q-29 25 -76 37t-98 1q-152 -34 -127 -198q21 -134 139 -371q40 0 93 -1t78.5 -1t31.5 2q7 2 12 -0.5t7 -6.5l1 -3l-20 -86q-3 -4 -7.5 -7t-7.5 -4l-4 -1h-151q16 -94 -3 -189.5t-62.5 -173.5t-88 -135t-92.5 -102q-1 0 17.5 13.5 t51.5 32t74 37t92 30t97 9.5q51 -3 97.5 -21t97.5 -47.5t75 -39.5q23 -10 44 -12t37 -1t34.5 13t29 19t29 30t25.5 32t27 38q2 3 3.5 5t3 4.5t3.5 4.5q0 1 0.5 1.5t2 3t3.5 3.5l5 2.5t7 -0.5l27 -4q1 0 3 -0.5t4.5 -3t0.5 -6.5q-54 -103 -97.5 -162t-93.5 -89t-104.5 -23.5 t-126.5 45.5q-10 6 -50.5 29.5t-55.5 30.5t-49.5 20t-67.5 17t-74 3q-145 -4 -289 -139q-7 -7 -16 -4l-16 8q-1 1 -2.5 2t-3.5 5z" />
<glyph unicode="&#xa4;" horiz-adv-x="1406" d="M62 265l1 3l216 152q-73 110 -70 250q3 130 74 237l-220 154q-4 6 0 6l87 78q6 2 10 0l202 -144q136 123 359 123q206 0 338 -114l190 135h11q76 -70 86 -78q3 0 2 -3l-2 -3l-205 -143q68 -110 59 -252q-9 -136 -76 -242l222 -156q4 -6 0 -6l-86 -78q-7 -2 -11 0 l-205 146q-142 -129 -360 -123q-184 3 -324 121l-200 -144h-10q-77 70 -87 78q-3 0 -1 3zM369 690q-5 -126 42.5 -226.5t135.5 -153t198 -42.5q72 6 128.5 43.5t90.5 94t53 117.5t25 126q10 115 -32.5 214t-130.5 156t-201 46q-127 -12 -215 -116.5t-94 -258.5z" />
<glyph unicode="&#xa5;" horiz-adv-x="1484" d="M61 1389q-2 35 0 41q1 3 3.5 4t5.5 0h2q59 -4 135 -7t122 -3l46 -1q88 1 221 11q8 2 10 -4v-41q0 -7 -10 -7q-46 0 -75.5 -9.5t-45 -32t-6.5 -66t45 -105.5q78 -138 258 -442q25 41 266 451q29 50 31.5 89t-13.5 60t-40 34t-40.5 17t-23.5 4l-10 7q-2 35 0 41q1 3 3.5 4 t4.5 0h2q59 -4 119.5 -7t91.5 -3l31 -1q86 1 219 11q8 2 10 -4v-41q0 -7 -10 -7q-5 0 -20 -3t-43 -14t-56.5 -27.5t-61 -47.5t-56.5 -71q-263 -434 -322 -539q-20 -36 -25 -86q238 0 246 2q7 2 12.5 -0.5t6.5 -5.5l2 -4l-41 -66q-3 -4 -7.5 -7t-7.5 -4l-4 -1h-207v-154 q238 0 246 2q7 2 12.5 -0.5t6.5 -5.5l2 -4l-41 -65q-3 -4 -7.5 -7.5t-7.5 -4.5l-4 -1h-207v-53q0 -47 16 -81t35 -49.5t46.5 -24t39.5 -9t25 -0.5h2q4 0 7 -1.5t4 -3.5v-1q2 -35 0 -41q-1 -3 -3.5 -4t-4.5 0h-3q-59 4 -119.5 6.5t-91.5 3.5h-30q-107 0 -240 -10q-8 -2 -10 4 v41q0 6 10 6q132 0 158 111q6 24 6 53v55q-238 0 -248 -2q-6 -2 -10.5 1.5t-5.5 7.5l-2 4l41 65q2 4 6.5 6.5t8.5 3.5h3h207v154q-238 0 -248 -2q-6 -2 -10.5 1t-5.5 7l-2 4l41 66q2 4 6.5 6.5t8.5 3.5h3h205q-7 28 -35 80l-330 543q-29 46 -58 78t-51 48.5t-48.5 25 t-41.5 10t-38 1.5q-4 0 -7 2t-3 4z" />
<glyph unicode="&#xa6;" horiz-adv-x="251" d="M59 -389v797q0 4 4 4h121l4 -4v-797q0 -4 -4 -4h-121zM61 739v793q1 4 5 4h120l4 -4v-793q0 -4 -4 -4h-120z" />
<glyph unicode="&#xa7;" horiz-adv-x="954" d="M60.5 1101q-4.5 57 24.5 125.5t91 129.5q51 51 123 77.5t144 25.5t140 -20t120 -57t75 -86q1 -2 -16.5 -16.5t-40.5 -31t-35 -23.5q-15 -7 -20 -2l-8 12q-7 12 -17 25.5t-25.5 32t-36.5 34.5t-45.5 30.5t-56 23t-65.5 8.5q-81 0 -141.5 -45.5t-82 -108t-0.5 -115.5 q18 -45 77.5 -80t126 -54t152.5 -47.5t136 -57.5q62 -36 84 -84.5t7 -100.5t-44.5 -97.5t-71.5 -88.5q67 -30 101 -74q31 -40 35.5 -97t-24.5 -125.5t-91 -129.5q-51 -51 -123 -77.5t-144 -25.5t-140 19.5t-120 56.5t-75 86q-1 2 16.5 17t40.5 31.5t35 23.5q15 7 20 2l8 -12 q7 -12 17 -25.5t25.5 -32t36.5 -34.5t45.5 -30.5t56 -23t65.5 -8.5q81 0 141.5 45t82 107.5t0.5 115.5q-18 45 -77.5 80t-126 54.5t-152.5 48t-136 57.5t-73.5 67.5t-22.5 76.5t19 80.5t43.5 77.5t58.5 69q-67 30 -101 74q-31 40 -35.5 97zM193 706q45 -49 212 -106 q25 -8 77 -25q74 -25 112 -38q135 120 65 197q-45 49 -212 106q-25 8 -77 25q-74 25 -112 38q-135 -120 -65 -197z" />
<glyph unicode="&#xa8;" horiz-adv-x="651" d="M59 1169q0 41 28.5 70t68.5 29q41 0 69.5 -29t28.5 -70q0 -40 -28.5 -68t-69.5 -28q-40 0 -68.5 28t-28.5 68zM395 1169q0 41 28.5 70t68.5 29q41 0 69.5 -29t28.5 -70q0 -40 -28.5 -68t-69.5 -28q-40 0 -68.5 28t-28.5 68z" />
<glyph unicode="&#xa9;" horiz-adv-x="2017" d="M164 715q0 138 43.5 266t122.5 230.5t184 179.5t233.5 119t264.5 42q137 0 265.5 -42t232 -119t181 -179.5t120 -230.5t42.5 -266q0 -172 -66.5 -327.5t-179 -268t-268.5 -178.5t-327 -66q-136 0 -264.5 42t-233.5 119.5t-184 180.5t-122.5 231.5t-43.5 266.5zM289 715 q0 -146 58 -280t155 -231t231 -154.5t279 -57.5q196 0 362.5 97.5t263.5 264t97 361.5q0 196 -97 362.5t-263.5 263.5t-362.5 97q-146 0 -279.5 -57.5t-230.5 -154t-155 -230.5t-58 -281zM567 735q0 98 40 182t105.5 138.5t146 85t163.5 30.5q57 0 109.5 -8.5t86.5 -21 t60 -25t38 -20.5l11 -9l16 -161l-4 -4h-32l-4 4q-47 195 -271 190q-124 -3 -208.5 -103t-84.5 -282q0 -59 20 -119.5t57.5 -114t101 -86.5t141.5 -32q99 1 171 40t107 93q1 3 3 3.5t4 -0.5l2 -1l18 -14q4 -2 4 -8q-6 -18 -28 -44t-62 -57t-108.5 -52.5t-149.5 -21.5 q-66 0 -129.5 15t-122.5 47.5t-103.5 80.5t-71 119t-26.5 156z" />
<glyph unicode="&#xaa;" horiz-adv-x="768" d="M59 1075q0 14 13 21q8 4 49.5 23t57.5 27t56 27.5t59 31t51 30.5t48.5 34t35 33t26.5 35.5t8 34.5q0 167 -111 154q-67 -8 -113.5 -48.5t-31.5 -86.5q4 -8 -2 -11l-117 -51q-9 -3 -12 4q-2 6 -3.5 15.5t4.5 37.5t24 54t66.5 58t121.5 56q170 56 246 15q20 -9 33.5 -24.5 t22 -40.5t13 -48t5.5 -64t1 -71t-1 -86.5t-1 -93.5q0 -29 1.5 -53t3 -41.5t6 -31t7 -22t9 -14.5t10 -8.5t11.5 -3.5t11 -1t12.5 1.5t12.5 1.5q6 2 8 -6q6 -24 6 -26t-4 -5l-133 -55q-12 -4 -28 4q-23 12 -44.5 48t-27.5 85q-15 -13 -45.5 -39t-47.5 -40.5t-39 -31.5t-38 -26 q-21 -12 -50 -13.5t-66.5 14.5t-69.5 50q-54 56 -54 147zM190 1094q-3 -27 9 -58t26 -49q19 -25 50 -31t63 7.5t61 39t47.5 68t18.5 90.5v111q-6 -17 -21.5 -33t-78.5 -54t-175 -91z" />
<glyph unicode="&#xab;" horiz-adv-x="1234" d="M246 457q0 13 16 26l291 305l2.5 2.5t6 3.5t7.5 -3l25 -23q8 -8 0 -18l-184 -293l186 -295q4 -4 4.5 -9t-0.5 -7l-2 -3q-21 -18 -29 -24q-4 -3 -7.5 -2t-5.5 3l-3 3q-283 297 -293 309q-14 14 -14 25zM635 457q0 13 16 26l291 305l2.5 2.5t6 3.5t7.5 -3l25 -23 q8 -8 0 -18l-184 -293l186 -295q4 -4 4.5 -9t-1.5 -7l-1 -3q-21 -18 -29 -24q-4 -3 -7.5 -2t-6.5 3l-2 3q-283 297 -293 309q-14 14 -14 25z" />
<glyph unicode="&#xac;" horiz-adv-x="1298" d="M164 522l20 86q2 4 6.5 6.5t8.5 3.5h4h1014q14 2 18 -6l2 -4v-461q0 -4 -4 -4l-121 -41l-4 4v404h-926q-6 -2 -10.5 1t-5.5 7z" />
<glyph unicode="&#xad;" horiz-adv-x="780" d="M123 399l20 86q2 4 6.5 6.5t8.5 3.5l4 1h475q7 2 12 -1t7 -7l1 -3l-20 -86q-3 -4 -7.5 -7t-7.5 -4l-4 -1h-477q-6 -2 -10.5 1t-6.5 7z" />
<glyph unicode="&#xae;" horiz-adv-x="2017" d="M164 715q0 138 43.5 266t122.5 230.5t184 179.5t233.5 119t264.5 42q137 0 265.5 -42t232 -119t181 -179.5t120 -230.5t42.5 -266q0 -172 -66.5 -327.5t-179 -268t-268.5 -178.5t-327 -66q-136 0 -264.5 42t-233.5 119.5t-184 180.5t-122.5 231.5t-43.5 266.5zM289 715 q0 -146 58 -280t155 -231t231 -154.5t279 -57.5q178 0 331 80.5t254 218.5q-88 -20 -172.5 11.5t-152.5 103.5q-29 30 -79.5 97t-88.5 110t-60 44q-86 0 -163 17l-2 -205q-1 -33 15.5 -57t36.5 -35t47 -17.5t38.5 -7t19.5 -0.5q4 0 6 -1t2 -2v-1v-41q-1 -2 -3 -2.5t-3 -0.5 l-2 1q-36 3 -95.5 4.5t-101.5 1.5h-42q-119 0 -199 -6q-6 -2 -6 2v41q0 4 6 4q8 0 19 0.5t37 7t46 17.5t36 35t16 57v520q0 33 -16 57.5t-36 36t-45.5 18.5t-37.5 8t-19 1l-4 4q-2 39 0 41l4 2l201 -4q100 4 182 12q20 0 46.5 2t59 -3.5t65.5 -12.5t64.5 -24.5t56 -40.5 t41 -60.5t19.5 -83.5q7 -97 -36 -167.5t-115 -98.5q59 -20 111.5 -71t111.5 -136q57 -84 108 -107t121 -14q101 170 101 367q0 196 -97 362.5t-263.5 263.5t-362.5 97q-146 0 -279.5 -57.5t-230.5 -154t-155 -230.5t-58 -281zM881 770q0 -26 49 -39.5t100 -13.5q32 0 60 8.5 t55 29.5t43 63t16 102q0 49 -18 88.5t-46.5 62t-63 35t-69 12t-63.5 -11.5q-63 -22 -63 -115v-221z" />
<glyph unicode="&#xaf;" horiz-adv-x="778" d="M59 1079l74 84q2 4 6.5 6.5t8.5 3.5l4 1h223q35 0 121 -1t140 -1t60 2q7 2 12.5 -1t7.5 -7l1 -3l-74 -84q-3 -4 -7.5 -7t-7.5 -4l-3 -1h-547q-6 0 -11 3t-7 6z" />
<glyph unicode="&#xb0;" horiz-adv-x="632" d="M59 1229q0 106 75 181t181 75t181 -75t75 -181t-75 -181t-181 -75t-181 75t-75 181zM152 1229q0 -68 48 -116t115 -48t113.5 48t46.5 116q0 67 -46.5 113.5t-113.5 46.5q-68 0 -115.5 -46.5t-47.5 -113.5z" />
<glyph unicode="&#xb1;" horiz-adv-x="1071" d="M203 10l20 86q2 4 6.5 6.5t8.5 3.5h4h262q34 0 126.5 -1t152 -1t65.5 2q7 2 12 -0.5t6 -5.5l2 -4l-20 -86q-1 -5 -5.5 -8t-8.5 -4h-5h-268q-35 0 -125.5 1t-149 1t-65.5 -2q-6 -2 -10.5 1t-6.5 7zM203 502l20 86q1 4 5.5 6.5t9.5 3.5h4h239q4 207 0 231q-2 7 1 12.5 t6 6.5l4 2l86 22q5 1 8 -3.5t4 -9.5v-5v-258q252 0 258 2q7 2 12 -0.5t6 -5.5l2 -4l-20 -86q-1 -5 -5.5 -8.5t-8.5 -3.5l-5 -1h-241q0 -237 2 -243t-1 -11t-7 -7l-4 -1l-86 -22q-4 -1 -6.5 3.5t-3.5 9.5l-1 5v266q-235 4 -260 0q-6 -2 -10.5 1.5t-6.5 7.5z" />
<glyph unicode="&#xb2;" horiz-adv-x="813" d="M123 883v6l6 6q99 74 172 145t110.5 121.5t60 98.5t27.5 73.5t5 48.5q0 46 -30 84.5t-93 38.5q-34 0 -65 -10.5t-50.5 -25.5t-34 -30.5t-20.5 -25.5t-6 -12q-2 -3 -4 -4t-3 -1l-1 1l-21 20v8q29 64 92.5 105t131.5 50.5t132.5 -10t96.5 -65.5q32 -45 35 -96.5t-17 -98.5 t-54.5 -94.5t-75 -86t-82.5 -71t-73.5 -53t-50.5 -28.5h236q97 0 139 6q7 0 4 -6q-29 -84 -31 -92q-3 -10 -16 -6l-16 2h-500z" />
<glyph unicode="&#xb3;" horiz-adv-x="643" d="M123 874l4 3q110 17 173.5 61t70.5 133q3 42 -9.5 75t-35.5 51.5t-52 27.5t-59.5 7t-56.5 -13q-2 -2 -2 0l-13 26l2 2q168 74 177 178q5 41 -19 68t-65 27q-12 0 -24 -3.5t-20.5 -8.5t-16 -10.5t-13 -11.5t-9 -10.5t-5.5 -7.5l-3 -4l-4 -2l-14 15q-3 3 0 6q29 52 86 78.5 t112 23.5t99 -36.5t49 -90.5q3 -32 -5 -59t-26.5 -46.5t-36.5 -33.5t-46 -25t-42.5 -16t-37.5 -12q22 2 52.5 3t64 -11t61.5 -30.5t45.5 -55.5t15.5 -85q-1 -44 -17 -80.5t-39 -60t-56 -42t-63.5 -28t-67 -16.5t-61 -8.5t-50.5 -3t-31 -2.5h-4z" />
<glyph unicode="&#xb4;" horiz-adv-x="522" d="M59 1072v3q167 271 187 314q5 11 12.5 17t12.5 6l5 1h173q9 0 11.5 -5t-0.5 -12t-11 -14l-347 -323q-4 -4 -8 -6t-6 -2h-2q-10 2 -20 8q-4 3 -5.5 7t-1.5 6z" />
<glyph unicode="&#xb6;" horiz-adv-x="1339" d="M61 1032q-2 130 65.5 223.5t182.5 139t266 45.5q137 0 361.5 -2.5t331.5 -3.5q8 2 10 -4v-41q0 -7 -10 -7q-139 0 -160 -120q-4 -20 -4 -43v-1004q0 -47 16 -81t35 -49.5t46.5 -24t39.5 -9t25 -0.5h2l10 -6q2 -35 0 -41q-1 -3 -3.5 -4t-4.5 0h-2q-50 2 -113 2t-123.5 -1 t-70.5 -1q-11 -2 -11 4v1313q0 17 -14 20.5t-52 3.5h-5h-13h-25.5t-17 -2t-13 -7t-3.5 -13v-1319q0 -3 -2.5 -4t-4.5 0h-3q-111 11 -308 0q-8 -2 -10 4v41q0 6 10 6q131 0 156 111q6 25 6 53v440q-77 -12 -147.5 -11.5t-137 12.5t-120.5 41.5t-95.5 74t-65 112t-24.5 152.5z " />
<glyph unicode="&#xb7;" horiz-adv-x="395" d="M59 692q0 58 39.5 98.5t96.5 40.5q59 0 99 -40.5t40 -98.5q0 -57 -40 -96t-99 -39q-57 0 -96.5 39t-39.5 96z" />
<glyph unicode="&#xb8;" horiz-adv-x="413" d="M66 -319q10 12 32 36t27 25q11 4 16 -10q13 -40 48 -59t65 8q24 22 11 47t-77 75q-79 63 -63 91q2 3 125 126q5 5 10 5h39l6 -7q0 -1 -39.5 -42t-40.5 -44q-3 -6 11 -18.5t42 -35.5t46 -42q21 -23 27.5 -50t-9 -64.5t-59.5 -73.5q-36 -29 -71 -39.5t-59.5 -5.5t-44.5 17 t-29.5 23t-12.5 17q-8 13 0 21z" />
<glyph unicode="&#xb9;" horiz-adv-x="743" d="M125 872v46q0 4 6 4h2q7 1 25 -1t42.5 5t46 18t37 39t15.5 68v346q0 40 -15.5 68t-37 39t-46 18t-42.5 5t-25 -1h-2l-6 4q-2 47 0 51l6 2q39 -3 99.5 -4.5t101.5 -1.5h41q153 0 239 6q7 2 9 -2v-51q-1 -4 -9 -4h-2q-7 -1 -25.5 1t-43 -5t-46.5 -18t-37.5 -39t-15.5 -68 v-346q0 -109 109 -127q20 -3 61 -2q4 0 6 -1t2 -2l1 -1v-46q-1 -2 -3 -2.5t-4 0.5h-2q-38 3 -98 4.5t-100 1.5l-41 1q-154 -1 -242 -7q-6 -2 -6 2z" />
<glyph unicode="&#xba;" horiz-adv-x="919" d="M63 1186q-18 165 80.5 273t274.5 130q170 22 299 -68.5t141 -238.5q8 -96 -18 -172t-77.5 -123t-113 -74.5t-133.5 -38.5q-58 -6 -116.5 -3.5t-115.5 26.5t-103 59.5t-78 95t-40 134.5zM223 1210q15 -135 93 -213t192 -61q97 13 148 106.5t36 217.5q-19 140 -93 211.5 t-181 56.5q-102 -15 -156 -103t-39 -215z" />
<glyph unicode="&#xbb;" horiz-adv-x="1234" d="M248 143q-6 9 2 19l186 295q-178 285 -184 293q-4 4 -4 8.5t2 7.5l2 2q16 17 24 23q4 3 8 2.5t6 -3.5l3 -2l291 -305q16 -13 16 -26q0 -11 -14 -25l-293 -309l-2.5 -2.5t-6.5 -3.5t-8 2zM637 143q-6 9 2 19l186 295q-178 285 -184 293q-4 4 -4 8.5t2 7.5l2 2q17 17 25 23 q4 3 7.5 2.5t6.5 -3.5l2 -2l291 -305q16 -13 16 -26q0 -11 -14 -25l-293 -309l-2.5 -2.5t-6 -3.5t-7.5 2z" />
<glyph unicode="&#xbc;" horiz-adv-x="2021" d="M225 637v45q0 4 6 4h2q7 1 25 -1t42.5 5t46 18t37 39t15.5 68v576q0 40 -15.5 68t-37 39t-46 18t-42.5 5t-25 -1h-2l-6 4v51l6 2q39 -3 99.5 -4.5t101.5 -1.5h41q154 0 240 6q6 2 8 -2v-51q0 -4 -8 -4h-2q-7 -1 -25.5 1t-43 -5t-46.5 -18t-37.5 -39t-15.5 -68v-576 q0 -109 109 -127q20 -3 61 -2q4 0 6 -1t2 -2v-1v-45q0 -2 -2 -2.5t-4 -0.5l-2 1q-38 3 -98 4.5t-101 1.5h-41q-154 0 -242 -6q-6 -2 -6 2zM377 4q1085 1420 1089 1426l9 4h145q3 0 -2 -7l-1088 -1423l-6 -4h-145zM940 3.5q-1 2.5 2 6.5l647 942q12 15 27 15q20 0 20 -19 v-819q6 0 65 -1t94 0.5t56 6.5q3 2 5.5 -0.5t1.5 -5.5q-3 -7 -21.5 -63.5t-19.5 -59.5q-6 -15 -21 -8l-22 2h-138v-328q2 -8 -2 -12q-11 -11 -72.5 -66t-66.5 -55q-3 0 -4.5 1.5t-1.5 3.5v1v455h-545q-1 0 -2 0.5t-2 3zM1110 129h379v573z" />
<glyph unicode="&#xbd;" horiz-adv-x="2148" d="M225 637v45q0 4 6 4h2q7 1 25 -1t42.5 5t46 18t37 39t15.5 68v576q0 40 -15.5 68t-37 39t-46 18t-42.5 5t-25 -1h-2l-6 4v51l6 2q39 -3 99.5 -4.5t101.5 -1.5h41q154 0 240 6q6 2 8 -2v-51q0 -4 -8 -4h-2q-7 -1 -25.5 1t-43 -5t-46.5 -18t-37.5 -39t-15.5 -68v-576 q0 -109 109 -127q20 -3 61 -2q4 0 6 -1t2 -2v-1v-45q0 -2 -2 -2.5t-4 -0.5l-2 1q-38 3 -98 4.5t-101 1.5h-41q-154 0 -242 -6q-6 -2 -6 2zM377 4q1085 1420 1089 1426l9 4h145q3 0 -2 -7l-1088 -1423l-6 -4h-145zM1219.5 3q-1.5 3 0 6.5t5.5 6.5q132 99 231 197t149.5 168.5 t81 138t37.5 103.5t7 67q0 63 -41 114.5t-125 51.5q-46 0 -87.5 -14.5t-67.5 -34t-46 -41t-28.5 -35.5t-8.5 -16q-2 -4 -4.5 -5t-4.5 0l-1 1q-23 22 -27 26t0 11q32 70 89.5 121t124 72.5t133 22t124 -28t90.5 -79.5q38 -64 37 -132.5t-33 -139.5t-79 -137t-102 -124 t-102 -101t-78 -68l-32 -25h346q130 0 150 4q7 0 4 -8q-37 -107 -39 -117q-1 -7 -7.5 -10t-12.5 0l-23 2h-653q-6 0 -7.5 3z" />
<glyph unicode="&#xbe;" horiz-adv-x="2123" d="M225 469l6 2q192 26 313 108t138 218q8 65 -15 115t-66.5 78t-97.5 42t-111 10.5t-105 -20.5q-2 -2 -4 0l-21 39l4 4q90 33 155.5 72t100 77.5t51.5 71t21 64.5q8 63 -36.5 103.5t-119.5 39.5q-108 -2 -167 -81h-1v-1q-2 -4 -4.5 -5t-3.5 0l-2 1l-27 23q-3 3 0 8 q38 58 102 94.5t132 44t129.5 -6t102.5 -57.5t44 -108q2 -56 -26 -109t-74 -92t-92 -66.5t-90 -43.5q54 9 118 -4t122.5 -44t97.5 -90t39 -133q0 -71 -28 -131.5t-72 -100.5t-102.5 -71.5t-115 -49.5t-114.5 -29.5t-96 -15t-64 -3.5q-4 0 -6 1t-2 2v1zM475 4 q1086 1420 1090 1426l8 4h145q3 0 -2 -7l-1087 -1423l-6 -4h-146zM1042 3.5q-2 2.5 2 6.5l648 942q12 15 26 15q21 0 21 -19v-819q6 0 65 -1t94 0.5t56 6.5q3 1 5.5 -1t0.5 -5q-3 -7 -21.5 -63.5t-19.5 -59.5q-6 -15 -21 -8l-22 2h-137v-328q2 -8 -2 -12 q-10 -10 -72.5 -65.5t-67.5 -55.5q-3 0 -4.5 1.5t-1.5 3.5v1v455h-544q-1 0 -2 0.5t-3 3zM1212 129h379v573z" />
<glyph unicode="&#xbf;" horiz-adv-x="1126" d="M203.5 -142.5q2.5 88.5 66 187t183.5 186.5q25 18 62 44.5t54 38.5t42.5 31.5t35.5 30t24 27.5t17 30t6 31.5t0 37.5t-10 43l-14 61q-6 15 2 21l28 14q13 7 29 -14q1 -1 14.5 -18t30 -39.5t34 -51t29.5 -60.5t13 -59q1 -21 -14.5 -47t-37 -48t-57 -51t-59.5 -46.5 t-61 -43t-46 -32.5q-100 -74 -154 -156.5t-57.5 -151t27.5 -124t92 -82.5q56 -23 100.5 -19.5t78 27.5t53 49.5t24.5 46.5q2 2 5 4.5t12 7t18 -0.5l98 -41q2 -1 3.5 -3t4.5 -10t-3 -18q-4 -7 -12 -18t-27 -28t-42.5 -32t-60 -27t-77 -16t-96.5 3.5t-116 29.5 q-121 44 -183 120.5t-59.5 165zM563 893q0 40 29 68t70 28q40 0 68 -28t28 -68q0 -41 -28 -69.5t-68 -28.5q-41 0 -70 28.5t-29 69.5z" />
<glyph unicode="&#xc0;" horiz-adv-x="1703" d="M61 4v41q1 6 11 6q143 0 237 164q84 165 218.5 477.5t219 518.5t97.5 241q2 5 4.5 7.5t3.5 2.5h2q6 0 10 -10q2 -9 90 -226t220 -525.5t219 -485.5q26 -47 59 -81t59 -49.5t55.5 -24t41 -9t22.5 -0.5h2l10 -6q2 -35 0 -41q-1 -3 -3.5 -4t-4.5 0h-2q-59 4 -135.5 6.5 t-122.5 3.5h-47q-107 0 -240 -10q-8 -2 -10 4v41q0 6 10 6q148 0 154 88q1 33 -18 76l-140 328q-84 -41 -178 -41h-366h-4q-27 -60 -67.5 -161t-51.5 -126q-14 -34 -14.5 -61.5t7.5 -44.5t25.5 -29t33 -17.5t36.5 -8.5t29 -3h18h2l10 -6q2 -35 0 -41q-1 -3 -3.5 -4t-4.5 0 h-2q-59 4 -119 6.5t-90 3.5h-31q-108 0 -241 -10q-9 -2 -11 4zM461.5 1832.5q2.5 5.5 7.5 6.5l133 37q30 7 43 -8l240 -228q6 -8 0 -16l-15 -16q-8 -4 -18 0l-369 194q-15 7 -19.5 16t-2 14.5zM572 592q0 -3 3 -5.5t9 -2.5h481l-246 598q-1 4 -3 0q0 -1 -1 -2l-242 -586z " />
<glyph unicode="&#xc1;" horiz-adv-x="1703" d="M61 4v41q1 6 11 6q143 0 237 164q84 165 218.5 477.5t219 518.5t97.5 241q2 5 4.5 7.5t3.5 2.5h2q6 0 10 -10q2 -9 90 -226t220 -525.5t219 -485.5q26 -47 59 -81t59 -49.5t55.5 -24t41 -9t22.5 -0.5h2l10 -6q2 -35 0 -41q-1 -3 -3.5 -4t-4.5 0h-2q-59 4 -135.5 6.5 t-122.5 3.5h-47q-107 0 -240 -10q-8 -2 -10 4v41q0 6 10 6q148 0 154 88q1 33 -18 76l-140 328q-84 -41 -178 -41h-366h-4q-27 -60 -67.5 -161t-51.5 -126q-14 -34 -14.5 -61.5t7.5 -44.5t25.5 -29t33 -17.5t36.5 -8.5t29 -3h18h2l10 -6q2 -35 0 -41q-1 -3 -3.5 -4t-4.5 0 h-2q-59 4 -119 6.5t-90 3.5h-31q-108 0 -241 -10q-9 -2 -11 4zM572 592q0 -3 3 -5.5t9 -2.5h481l-246 598q-1 4 -3 0q0 -1 -1 -2l-242 -586zM817.5 1628q-0.5 4 0.5 6l1 2q218 210 234 226q6 6 14.5 9.5t14.5 4.5h5h183q13 -5 10.5 -14t-16.5 -17l-406 -235q-4 -3 -8.5 -4 t-7.5 0h-2q-11 6 -19 14q-3 4 -3.5 8z" />
<glyph unicode="&#xc2;" horiz-adv-x="1703" d="M61 4v41q1 6 11 6q143 0 237 164q84 165 218.5 477.5t219 518.5t97.5 241q2 5 4.5 7.5t3.5 2.5h2q6 0 10 -10q2 -9 90 -226t220 -525.5t219 -485.5q26 -47 59 -81t59 -49.5t55.5 -24t41 -9t22.5 -0.5h2l10 -6q2 -35 0 -41q-1 -3 -3.5 -4t-4.5 0h-2q-59 4 -135.5 6.5 t-122.5 3.5h-47q-107 0 -240 -10q-8 -2 -10 4v41q0 6 10 6q148 0 154 88q1 33 -18 76l-140 328q-84 -41 -178 -41h-366h-4q-27 -60 -67.5 -161t-51.5 -126q-14 -34 -14.5 -61.5t7.5 -44.5t25.5 -29t33 -17.5t36.5 -8.5t29 -3h18h2l10 -6q2 -35 0 -41q-1 -3 -3.5 -4t-4.5 0 h-2q-59 4 -119 6.5t-90 3.5h-31q-108 0 -241 -10q-9 -2 -11 4zM558 1617q-1 5 0 8l1 3q260 246 270 256q11 8 21 8q12 0 20 -8l273 -256q8 -8 -4 -20l-27 -19q-8 -2 -18 6l-244 136q-234 -130 -242 -136q-3 -2 -6 -3.5t-5.5 -2t-4.5 -0.5h-3h-1q-19 11 -25 19q-4 4 -5 9z M572 592q0 -3 3 -5.5t9 -2.5h481l-246 598q-1 4 -3 0q0 -1 -1 -2l-242 -586z" />
<glyph unicode="&#xc3;" horiz-adv-x="1703" d="M61 4v41q1 6 11 6q143 0 237 164q84 165 218.5 477.5t219 518.5t97.5 241q2 5 4.5 7.5t3.5 2.5h2q6 0 10 -10q2 -9 90 -226t220 -525.5t219 -485.5q26 -47 59 -81t59 -49.5t55.5 -24t41 -9t22.5 -0.5h2l10 -6q2 -35 0 -41q-1 -3 -3.5 -4t-4.5 0h-2q-59 4 -135.5 6.5 t-122.5 3.5h-47q-107 0 -240 -10q-8 -2 -10 4v41q0 6 10 6q148 0 154 88q1 33 -18 76l-140 328q-84 -41 -178 -41h-366h-4q-27 -60 -67.5 -161t-51.5 -126q-14 -34 -14.5 -61.5t7.5 -44.5t25.5 -29t33 -17.5t36.5 -8.5t29 -3h18h2l10 -6q2 -35 0 -41q-1 -3 -3.5 -4t-4.5 0 h-2q-59 4 -119 6.5t-90 3.5h-31q-108 0 -241 -10q-9 -2 -11 4zM551 1669q-4 4 2 17q5 7 16 17.5t31.5 29t48 32.5t59 24.5t70 8t76.5 -19.5q57 -25 104 -35.5t73 -9.5t47.5 11t27 15.5t11.5 13.5l1 1q6 6 15 0q16 -11 22 -17q5 -5 -2 -16q-32 -37 -41 -45 q-117 -110 -258 -47q-55 25 -102 35t-73.5 8.5t-49 -11t-28.5 -15t-12 -12.5l-1 -1q-6 -6 -15 0q-16 10 -22 16zM572 592q0 -3 3 -5.5t9 -2.5h481l-246 598q-1 4 -3 0q0 -1 -1 -2l-242 -586z" />
<glyph unicode="&#xc4;" horiz-adv-x="1703" d="M61 4v41q1 6 11 6q143 0 237 164q84 165 218.5 477.5t219 518.5t97.5 241q2 5 4.5 7.5t3.5 2.5h2q6 0 10 -10q2 -9 90 -226t220 -525.5t219 -485.5q26 -47 59 -81t59 -49.5t55.5 -24t41 -9t22.5 -0.5h2l10 -6q2 -35 0 -41q-1 -3 -3.5 -4t-4.5 0h-2q-59 4 -135.5 6.5 t-122.5 3.5h-47q-107 0 -240 -10q-8 -2 -10 4v41q0 6 10 6q148 0 154 88q1 33 -18 76l-140 328q-84 -41 -178 -41h-366h-4q-27 -60 -67.5 -161t-51.5 -126q-14 -34 -14.5 -61.5t7.5 -44.5t25.5 -29t33 -17.5t36.5 -8.5t29 -3h18h2l10 -6q2 -35 0 -41q-1 -3 -3.5 -4t-4.5 0 h-2q-59 4 -119 6.5t-90 3.5h-31q-108 0 -241 -10q-9 -2 -11 4zM572 592q0 -3 3 -5.5t9 -2.5h481l-246 598q-1 4 -3 0q0 -1 -1 -2l-242 -586zM586 1722q0 41 28 70t68 29q41 0 69.5 -29t28.5 -70q0 -40 -28.5 -68t-69.5 -28q-40 0 -68 28t-28 68zM922 1722q0 41 28 70t68 29 q41 0 69.5 -29t28.5 -70q0 -40 -28.5 -68t-69.5 -28q-40 0 -68 28t-28 68z" />
<glyph unicode="&#xc5;" horiz-adv-x="1703" d="M61 4v41q1 6 11 6q143 0 237 164q84 165 218.5 477.5t219 518.5t97.5 241q2 5 4.5 7.5t3.5 2.5h2q6 0 10 -10q2 -9 90 -226t220 -525.5t219 -485.5q26 -47 59 -81t59 -49.5t55.5 -24t41 -9t22.5 -0.5h2l10 -6q2 -35 0 -41q-1 -3 -3.5 -4t-4.5 0h-2q-59 4 -135.5 6.5 t-122.5 3.5h-47q-107 0 -240 -10q-8 -2 -10 4v41q0 6 10 6q148 0 154 88q1 33 -18 76l-140 328q-84 -41 -178 -41h-366h-4q-27 -60 -67.5 -161t-51.5 -126q-14 -34 -14.5 -61.5t7.5 -44.5t25.5 -29t33 -17.5t36.5 -8.5t29 -3h18h2l10 -6q2 -35 0 -41q-1 -3 -3.5 -4t-4.5 0 h-2q-59 4 -119 6.5t-90 3.5h-31q-108 0 -241 -10q-9 -2 -11 4zM572 592q0 -3 3 -5.5t9 -2.5h481l-246 598q-1 4 -3 0q0 -1 -1 -2l-242 -586zM662 1741q0 77 54 122.5t134 45.5q81 0 135.5 -45.5t54.5 -122.5t-54.5 -123.5t-135.5 -46.5q-79 0 -133.5 46.5t-54.5 123.5z M758 1741q0 -44 25 -72.5t67 -28.5t67 28.5t25 72.5q0 41 -27 69.5t-65 28.5q-37 0 -64.5 -28.5t-27.5 -69.5z" />
<glyph unicode="&#xc6;" horiz-adv-x="2203" d="M61 4v41q1 6 11 6q7 0 18.5 1.5t39 11t55 25.5t64 49t68.5 77l813 1116q-44 51 -131 51l-10 7q-2 35 0 41q1 3 3.5 4t4.5 0h2q92 -2 463 -2t572 4q8 0 10 -4l104 -304q0 -3 -1.5 -4.5t-2.5 -1.5h-2h-37l-10 4q-67 145 -183 200.5t-323 55.5q-171 0 -210 -10 q-44 -11 -55 -49q-7 -26 -7 -104v-476h373q58 0 95.5 21t50 54.5t15 51t2.5 35.5v2q0 4 1.5 7t3.5 4h2q35 2 41 0q3 -1 4 -3.5t1 -4.5l-1 -3l-11 -192q1 -56 11 -189q2 -6 -4 -8h-41h-2q-1 -1 -3 1.5t-2 6.5q0 139 -120 160q-20 4 -43 4h-373v-475q0 -42 3.5 -69.5t21 -46.5 t30.5 -28t56.5 -14t72 -5.5t103.5 -0.5h41q207 0 322.5 55.5t182.5 200.5q1 4 11 4h37q6 0 6 -8l-105 -301q-2 -4 -10 -4q-210 3 -623.5 3.5t-466.5 -1.5q-8 -2 -10 4v41q0 6 10 6q132 0 158 111q6 24 6 53v475h-364l-328 -475q-28 -41 -30.5 -72.5t12.5 -48t38.5 -27 t39 -13.5t22.5 -3l10 -6q2 -35 0 -41q-1 -3 -3.5 -4t-4.5 0h-2q-59 4 -119.5 6.5t-91.5 3.5h-31q-106 0 -239 -10q-9 -2 -11 4zM838 743h325v453z" />
<glyph unicode="&#xc7;" horiz-adv-x="1495" d="M61 705q0 137 41.5 258.5t112.5 210.5t163 154t195 97.5t207 32.5q91 0 172.5 -14.5t133.5 -36t90.5 -42.5t55.5 -35l17 -15l27 -256l-8 -6h-35q-2 0 -3.5 1.5t-1.5 3.5l-1 1q-11 72 -41.5 131.5t-83.5 108.5t-139.5 75t-198.5 23q-99 -2 -192 -48.5t-168.5 -130.5 t-121.5 -217.5t-46 -295.5q0 -81 22.5 -167t70.5 -169t115 -148.5t164.5 -106t210.5 -40.5q169 0 291 77t162 168q2 4 5 5t5 0l2 -2l23 -15q1 0 2 -1t2 -4t0 -7q-9 -29 -29 -63.5t-64.5 -80.5t-103 -82t-151.5 -61.5t-203 -25.5q-8 -9 -19.5 -21.5t-18 -19.5t-7.5 -9 q-3 -6 10.5 -18.5t41.5 -35.5t46 -42q21 -23 27.5 -50t-9 -64.5t-59.5 -73.5q-36 -29 -71 -39.5t-59.5 -5.5t-44.5 17t-29.5 23t-12.5 17q-8 13 0 21q10 12 32 36t27 25q11 4 17 -10q13 -40 47.5 -59t64.5 8q24 22 11.5 47.5t-76.5 74.5q-44 35 -58 56t-6 35q1 2 91 92 q-98 9 -189 40t-174.5 89.5t-145 139t-98.5 196.5t-37 254z" />
<glyph unicode="&#xc8;" horiz-adv-x="1275" d="M61 4v41q1 6 11 6q132 0 158 111q6 24 6 53v1004q0 47 -16 81t-35 49.5t-46.5 23.5t-39.5 8.5t-25 0.5h-2q-4 0 -7 2t-3 4l-1 1q-2 35 0 41q1 3 3.5 4t5.5 0h2q92 -2 462.5 -2t571.5 4q8 0 10 -4l105 -304q0 -3 -1.5 -4.5t-3.5 -1.5h-2h-36q-4 0 -7 1t-3 2l-1 1 q-67 145 -182.5 200.5t-322.5 55.5q-171 0 -210 -10q-44 -11 -56 -49q-7 -26 -7 -104v-476h373q47 0 81 16t49.5 35t24 46.5t9 39.5t0.5 25v2q0 4 1.5 7t2.5 4h2q35 2 41 0q3 -1 4 -3.5t1 -4.5l-1 -3l-10 -192q0 -56 10 -189q2 -6 -4 -8h-41h-2q-1 -1 -2.5 1.5t-1.5 6.5 q0 132 -111 158q-24 6 -53 6h-373v-475q0 -42 3.5 -69.5t21 -46.5t30.5 -28t56.5 -14t72 -5.5t103.5 -0.5h14h12.5h14.5q207 0 323 55.5t183 200.5q0 4 10 4h37q6 0 6 -8l-105 -301q-2 -4 -10 -4q-210 3 -623 3.5t-466 -1.5q-9 -2 -11 4zM244.5 1832.5q2.5 5.5 7.5 6.5 l133 37q30 7 43 -8l240 -228q6 -8 0 -16l-15 -16q-8 -4 -18 0l-369 194q-15 7 -19.5 16t-2 14.5z" />
<glyph unicode="&#xc9;" horiz-adv-x="1275" d="M61 4v41q1 6 11 6q132 0 158 111q6 24 6 53v1004q0 47 -16 81t-35 49.5t-46.5 23.5t-39.5 8.5t-25 0.5h-2q-4 0 -7 2t-3 4l-1 1q-2 35 0 41q1 3 3.5 4t5.5 0h2q92 -2 462.5 -2t571.5 4q8 0 10 -4l105 -304q0 -3 -1.5 -4.5t-3.5 -1.5h-2h-36q-4 0 -7 1t-3 2l-1 1 q-67 145 -182.5 200.5t-322.5 55.5q-171 0 -210 -10q-44 -11 -56 -49q-7 -26 -7 -104v-476h373q47 0 81 16t49.5 35t24 46.5t9 39.5t0.5 25v2q0 4 1.5 7t2.5 4h2q35 2 41 0q3 -1 4 -3.5t1 -4.5l-1 -3l-10 -192q0 -56 10 -189q2 -6 -4 -8h-41h-2q-1 -1 -2.5 1.5t-1.5 6.5 q0 132 -111 158q-24 6 -53 6h-373v-475q0 -42 3.5 -69.5t21 -46.5t30.5 -28t56.5 -14t72 -5.5t103.5 -0.5h14h12.5h14.5q207 0 323 55.5t183 200.5q0 4 10 4h37q6 0 6 -8l-105 -301q-2 -4 -10 -4q-210 3 -623 3.5t-466 -1.5q-9 -2 -11 4zM600.5 1628q-0.5 4 0.5 6l1 2 q218 210 234 226q6 6 14.5 9.5t13.5 4.5h6h183q13 -5 10.5 -14t-16.5 -17l-406 -235q-4 -3 -8.5 -4t-6.5 0h-3q-11 6 -19 14q-3 4 -3.5 8z" />
<glyph unicode="&#xca;" horiz-adv-x="1275" d="M61 4v41q1 6 11 6q132 0 158 111q6 24 6 53v1004q0 47 -16 81t-35 49.5t-46.5 23.5t-39.5 8.5t-25 0.5h-2q-4 0 -7 2t-3 4l-1 1q-2 35 0 41q1 3 3.5 4t5.5 0h2q92 -2 462.5 -2t571.5 4q8 0 10 -4l105 -304q0 -3 -1.5 -4.5t-3.5 -1.5h-2h-36q-4 0 -7 1t-3 2l-1 1 q-67 145 -182.5 200.5t-322.5 55.5q-171 0 -210 -10q-44 -11 -56 -49q-7 -26 -7 -104v-476h373q47 0 81 16t49.5 35t24 46.5t9 39.5t0.5 25v2q0 4 1.5 7t2.5 4h2q35 2 41 0q3 -1 4 -3.5t1 -4.5l-1 -3l-10 -192q0 -56 10 -189q2 -6 -4 -8h-41h-2q-1 -1 -2.5 1.5t-1.5 6.5 q0 132 -111 158q-24 6 -53 6h-373v-475q0 -42 3.5 -69.5t21 -46.5t30.5 -28t56.5 -14t72 -5.5t103.5 -0.5h14h12.5h14.5q207 0 323 55.5t183 200.5q0 4 10 4h37q6 0 6 -8l-105 -301q-2 -4 -10 -4q-210 3 -623 3.5t-466 -1.5q-9 -2 -11 4zM341 1617q-1 5 0 8l1 3 q260 246 270 256q11 8 21 8q12 0 20 -8l273 -256q8 -8 -4 -20l-27 -19q-8 -2 -18 6l-244 136q-234 -130 -242 -136q-3 -2 -6 -3.5t-5.5 -2t-4.5 -0.5h-3h-1q-19 11 -25 19q-4 4 -5 9z" />
<glyph unicode="&#xcb;" horiz-adv-x="1275" d="M61 4v41q1 6 11 6q132 0 158 111q6 24 6 53v1004q0 47 -16 81t-35 49.5t-46.5 23.5t-39.5 8.5t-25 0.5h-2q-4 0 -7 2t-3 4l-1 1q-2 35 0 41q1 3 3.5 4t5.5 0h2q92 -2 462.5 -2t571.5 4q8 0 10 -4l105 -304q0 -3 -1.5 -4.5t-3.5 -1.5h-2h-36q-4 0 -7 1t-3 2l-1 1 q-67 145 -182.5 200.5t-322.5 55.5q-171 0 -210 -10q-44 -11 -56 -49q-7 -26 -7 -104v-476h373q47 0 81 16t49.5 35t24 46.5t9 39.5t0.5 25v2q0 4 1.5 7t2.5 4h2q35 2 41 0q3 -1 4 -3.5t1 -4.5l-1 -3l-10 -192q0 -56 10 -189q2 -6 -4 -8h-41h-2q-1 -1 -2.5 1.5t-1.5 6.5 q0 132 -111 158q-24 6 -53 6h-373v-475q0 -42 3.5 -69.5t21 -46.5t30.5 -28t56.5 -14t72 -5.5t103.5 -0.5h14h12.5h14.5q207 0 323 55.5t183 200.5q0 4 10 4h37q6 0 6 -8l-105 -301q-2 -4 -10 -4q-210 3 -623 3.5t-466 -1.5q-9 -2 -11 4zM369 1722q0 41 28 70t68 29 q41 0 69.5 -29t28.5 -70q0 -40 -28.5 -68t-69.5 -28q-40 0 -68 28t-28 68zM705 1722q0 41 28 70t68 29q41 0 69.5 -29t28.5 -70q0 -40 -28.5 -68t-69.5 -28q-40 0 -68 28t-28 68z" />
<glyph unicode="&#xcc;" d="M-79.5 1832.5q2.5 5.5 7.5 6.5l133 37q30 7 43 -8l240 -228q6 -8 0 -16l-14 -16q-9 -4 -19 0l-368 194q-15 7 -20 16t-2.5 14.5zM61 4v41q1 6 11 6q132 0 158 111q6 24 6 53v1004q0 47 -16 81t-35 49.5t-46.5 23.5t-39.5 8.5t-25 0.5h-2q-4 0 -7 2t-3 4l-1 1q-2 35 0 41 q1 3 3.5 4t5.5 0h2q59 -4 119 -7t90 -3l30 -1q109 1 242 11q8 2 10 -4v-41q0 -7 -10 -7h-2q-97 3 -138 -65q-24 -38 -24 -98v-1004q0 -47 16 -81t35 -49.5t46.5 -24t39.5 -9t25 -0.5h2l10 -6q2 -35 0 -41q-1 -3 -3.5 -4t-4.5 0h-2q-59 4 -119.5 6.5t-91.5 3.5h-31 q-106 0 -239 -10q-9 -2 -11 4z" />
<glyph unicode="&#xcd;" d="M61 4v41q1 6 11 6q132 0 158 111q6 24 6 53v1004q0 47 -16 81t-35 49.5t-46.5 23.5t-39.5 8.5t-25 0.5h-2q-4 0 -7 2t-3 4l-1 1q-2 35 0 41q1 3 3.5 4t5.5 0h2q59 -4 119 -7t90 -3l30 -1q109 1 242 11q8 2 10 -4v-41q0 -7 -10 -7h-2q-97 3 -138 -65q-24 -38 -24 -98 v-1004q0 -47 16 -81t35 -49.5t46.5 -24t39.5 -9t25 -0.5h2l10 -6q2 -35 0 -41q-1 -3 -3.5 -4t-4.5 0h-2q-59 4 -119.5 6.5t-91.5 3.5h-31q-106 0 -239 -10q-9 -2 -11 4zM277.5 1628q-0.5 4 0.5 6l1 2q217 210 233 226q6 6 15 9.5t15 4.5h5h182q13 -5 10.5 -14t-16.5 -17 l-406 -235q-4 -3 -8.5 -4t-6.5 0h-3q-10 6 -18 14q-3 4 -3.5 8z" />
<glyph unicode="&#xce;" d="M18 1617q-1 5 0 8v3q261 246 271 256q11 8 20 8q13 0 21 -8l272 -256q8 -8 -4 -20l-27 -19q-8 -2 -18 6l-244 136q-233 -130 -241 -136l-21 -6q-18 11 -24 19q-4 4 -5 9zM61 4v41q1 6 11 6q132 0 158 111q6 24 6 53v1004q0 47 -16 81t-35 49.5t-46.5 23.5t-39.5 8.5 t-25 0.5h-2q-4 0 -7 2t-3 4l-1 1q-2 35 0 41q1 3 3.5 4t5.5 0h2q59 -4 119 -7t90 -3l30 -1q109 1 242 11q8 2 10 -4v-41q0 -7 -10 -7h-2q-97 3 -138 -65q-24 -38 -24 -98v-1004q0 -47 16 -81t35 -49.5t46.5 -24t39.5 -9t25 -0.5h2l10 -6q2 -35 0 -41q-1 -3 -3.5 -4t-4.5 0 h-2q-59 4 -119.5 6.5t-91.5 3.5h-31q-106 0 -239 -10q-9 -2 -11 4z" />
<glyph unicode="&#xcf;" horiz-adv-x="651" d="M57 1722q0 41 28.5 70t68.5 29q41 0 69.5 -29t28.5 -70q0 -40 -28.5 -68t-69.5 -28q-40 0 -68.5 28t-28.5 68zM76 4v41q0 6 10 6q132 0 158 111q6 24 6 53v1004q0 47 -16 81t-35 49.5t-46.5 23.5t-39.5 8.5t-25 0.5h-2l-10 7q-2 35 0 41q1 3 3.5 4t4.5 0h2q59 -4 119 -7 t91 -3l30 -1q108 1 241 11q9 2 11 -4v-41q-1 -7 -11 -7h-2q-97 3 -138 -65q-24 -38 -24 -98v-1004q0 -47 16 -81t35 -49.5t46.5 -24t39.5 -9t25 -0.5h2q4 0 7 -1.5t4 -3.5v-1q2 -35 0 -41q-1 -3 -3.5 -4t-4.5 0h-3q-59 4 -119.5 6.5t-91.5 3.5h-30q-107 0 -240 -10 q-8 -2 -10 4zM393 1722q0 41 28 70t68 29q41 0 70 -29t29 -70q0 -40 -29 -68t-70 -28q-40 0 -68 28t-28 68z" />
<glyph unicode="&#xd0;" horiz-adv-x="1579" d="M61 4v41l2 4q3 2 7 2q131 0 157 111q6 24 6 53v418h-153q-6 -2 -11 1t-7 7l-1 4l21 86q2 4 6.5 6.5t7.5 2.5l4 1h133v473q0 47 -15.5 81t-35 49.5t-47 24t-39.5 9t-24 0.5h-2q-4 0 -6.5 1.5t-2.5 2.5v2q-2 35 0 41q1 3 3 4t4 1h2q160 -17 256 -17q49 0 94 3t108 10 t105 10q86 8 151 8q290 0 486 -154q114 -90 182 -235.5t68 -337.5q0 -121 -30.5 -227t-83 -184.5t-113 -135t-130.5 -96.5q-147 -86 -399 -86q-107 0 -209 12q-95 14 -201 14q-60 0 -284 -14q-7 -2 -9 4zM387 272q0 -73 23 -112t73 -62q94 -43 252 -43q57 0 103 6 q78 10 150 38.5t139.5 82t117 126.5t79.5 178.5t30 230.5q0 293 -155 471t-400 192q-109 7 -194.5 -9.5t-121.5 -39.5q-47 -29 -71.5 -66.5t-24.5 -107.5l2 -416h535q7 2 12 -0.5t6 -6.5l2 -3l-20 -86q-3 -4 -7.5 -7t-8.5 -4l-3 -1h-516z" />
<glyph unicode="&#xd1;" horiz-adv-x="1669" d="M61 4v41q1 6 11 6q132 0 158 111q6 24 6 53v1004q0 47 -16 81t-35 49.5t-46.5 23.5t-39.5 8.5t-25 0.5h-2q-4 0 -7 2t-3 4l-1 1q-2 35 0 41q1 3 3.5 4t5.5 0h2q116 -9 106 -11q39 1 150 11q10 2 14 -4q10 -5 1010 -1143v932q0 47 -16 81t-35 49.5t-46.5 23.5t-39.5 8.5 t-25 0.5h-2l-10 7q-2 35 0 41q1 3 3.5 4t4.5 0h2l205 -11q71 1 204 11q9 2 11 -4v-41q-1 -7 -11 -7q-139 0 -160 -122q-3 -19 -3 -41v-1229q-3 -15 -11 -15l-10 5l-1096 1249v-1014q0 -47 16 -81t35 -49.5t46.5 -24t39.5 -9t25 -0.5h2q4 0 7 -1.5t4 -3.5v-1q2 -35 0 -41 q-1 -3 -3.5 -4t-4.5 0h-3q-59 4 -110.5 6.5t-72.5 3.5h-22q-71 0 -204 -10q-9 -2 -11 4zM535 1669q-4 4 2 17q5 7 16 17.5t31.5 29t48 32.5t59 24.5t70 8t76.5 -19.5q57 -25 104 -35.5t73 -9.5t47.5 11t27 15.5t11.5 13.5l1 1q6 6 14 0q17 -11 23 -17q5 -5 -2 -16 q-32 -37 -41 -45q-117 -110 -258 -47q-187 84 -267 4q-6 -6 -14 0q-16 10 -22 16z" />
<glyph unicode="&#xd2;" horiz-adv-x="1558" d="M74 596q-35 196 30 380t210.5 311t336.5 161q143 26 284 -7.5t253 -113t191.5 -202.5t105.5 -269q35 -197 -30.5 -384.5t-211.5 -318t-338 -163.5q-191 -34 -370.5 36.5t-302.5 222t-158 347.5zM244 627q27 -155 105.5 -285.5t187.5 -206.5q172 -120 358 -86 q154 25 272 160q95 109 135.5 272t10.5 334q-21 121 -75 228.5t-130 185.5q-94 96 -210.5 138.5t-235.5 21.5q-162 -29 -281 -170q-91 -109 -128.5 -267.5t-8.5 -324.5zM367.5 1832.5q2.5 5.5 7.5 6.5l133 37q30 7 43 -8l240 -228q6 -8 0 -16l-15 -16q-8 -4 -18 0l-369 194 q-15 7 -19.5 16t-2 14.5z" />
<glyph unicode="&#xd3;" horiz-adv-x="1558" d="M74 596q-35 196 30 380t210.5 311t336.5 161q143 26 284 -7.5t253 -113t191.5 -202.5t105.5 -269q35 -197 -30.5 -384.5t-211.5 -318t-338 -163.5q-191 -34 -370.5 36.5t-302.5 222t-158 347.5zM244 627q27 -155 105.5 -285.5t187.5 -206.5q172 -120 358 -86 q154 25 272 160q95 109 135.5 272t10.5 334q-21 121 -75 228.5t-130 185.5q-94 96 -210.5 138.5t-235.5 21.5q-162 -29 -281 -170q-91 -109 -128.5 -267.5t-8.5 -324.5zM723.5 1628q-0.5 4 0.5 6l1 2q217 210 233 226q6 6 15 9.5t15 4.5h5h183q13 -5 10 -14t-17 -17 l-405 -235q-4 -3 -9 -4t-7 0h-3q-10 6 -18 14q-3 4 -3.5 8z" />
<glyph unicode="&#xd4;" horiz-adv-x="1558" d="M74 596q-35 196 30 380t210.5 311t336.5 161q143 26 284 -7.5t253 -113t191.5 -202.5t105.5 -269q35 -197 -30.5 -384.5t-211.5 -318t-338 -163.5q-191 -34 -370.5 36.5t-302.5 222t-158 347.5zM244 627q27 -155 105.5 -285.5t187.5 -206.5q172 -120 358 -86 q154 25 272 160q95 109 135.5 272t10.5 334q-21 121 -75 228.5t-130 185.5q-94 96 -210.5 138.5t-235.5 21.5q-162 -29 -281 -170q-91 -109 -128.5 -267.5t-8.5 -324.5zM464 1617q-1 5 0 8l1 3q260 246 270 256q11 8 21 8q12 0 20 -8l273 -256q7 -8 -5 -20l-26 -19 q-9 -2 -19 6l-243 136q-234 -130 -242 -136q-3 -2 -6 -3.5t-5.5 -2t-4.5 -0.5h-3h-1q-19 11 -25 19q-4 4 -5 9z" />
<glyph unicode="&#xd5;" horiz-adv-x="1558" d="M74 596q-35 196 30 380t210.5 311t336.5 161q143 26 284 -7.5t253 -113t191.5 -202.5t105.5 -269q35 -197 -30.5 -384.5t-211.5 -318t-338 -163.5q-191 -34 -370.5 36.5t-302.5 222t-158 347.5zM244 627q27 -155 105.5 -285.5t187.5 -206.5q172 -120 358 -86 q154 25 272 160q95 109 135.5 272t10.5 334q-21 121 -75 228.5t-130 185.5q-94 96 -210.5 138.5t-235.5 21.5q-162 -29 -281 -170q-91 -109 -128.5 -267.5t-8.5 -324.5zM457 1669q-4 4 2 17q5 7 16 17.5t31.5 29t48 32.5t59 24.5t70 8t76.5 -19.5q57 -25 104 -35.5t73 -9.5 t47.5 11t27 15.5t11.5 13.5l1 1q6 6 14 0q17 -11 23 -17q5 -5 -2 -16q-32 -37 -41 -45q-117 -110 -258 -47q-55 25 -102 35t-73.5 8.5t-49 -11t-28.5 -15t-12 -12.5l-1 -1q-6 -6 -15 0q-16 10 -22 16z" />
<glyph unicode="&#xd6;" horiz-adv-x="1558" d="M74 596q-35 196 30 380t210.5 311t336.5 161q143 26 284 -7.5t253 -113t191.5 -202.5t105.5 -269q35 -197 -30.5 -384.5t-211.5 -318t-338 -163.5q-191 -34 -370.5 36.5t-302.5 222t-158 347.5zM244 627q27 -155 105.5 -285.5t187.5 -206.5q172 -120 358 -86 q154 25 272 160q95 109 135.5 272t10.5 334q-21 121 -75 228.5t-130 185.5q-94 96 -210.5 138.5t-235.5 21.5q-162 -29 -281 -170q-91 -109 -128.5 -267.5t-8.5 -324.5zM492 1722q0 41 28 70t68 29q41 0 69.5 -29t28.5 -70q0 -40 -28.5 -68t-69.5 -28q-40 0 -68 28t-28 68z M827 1722q0 41 28.5 70t68.5 29q41 0 69.5 -29t28.5 -70q0 -40 -28.5 -68t-69.5 -28q-40 0 -68.5 28t-28.5 68z" />
<glyph unicode="&#xd7;" horiz-adv-x="794" d="M63 106q134 164 269 330l-269 328q-4 6 0 6h125q5 0 7 -4l202 -250l203 250l6 4h125q3 0 1 -3l-1 -3q-133 -164 -268 -328l270 -330q2 -4 -2 -4h-125q-4 -2 -6 4l-203 248q-200 -244 -200 -248q-1 -3 -2.5 -4t-2.5 0h-2h-124z" />
<glyph unicode="&#xd8;" horiz-adv-x="1552" d="M70 596q-35 196 30 380t210.5 311t336.5 161t371 -33l6 15l6 4h125q3 0 1 -4l-1 -3l-29 -63q138 -80 232 -212t123 -296q35 -197 -30.5 -384.5t-211.5 -318t-338 -163.5q-191 -34 -373 37l-10 -23l-6 -4h-125l-2 4l35 78q-135 81 -228 215.5t-122 298.5zM240 627 q23 -131 83 -245.5t144 -193.5l512 1139q-158 92 -322 62q-161 -28 -280 -170q-91 -109 -128.5 -267.5t-8.5 -324.5zM567 113q160 -93 324 -64q154 25 272 160q95 109 135.5 272t10.5 334q-23 130 -78 234.5t-154 203.5z" />
<glyph unicode="&#xd9;" horiz-adv-x="1587" d="M61 1389q-2 35 0 41q1 3 3.5 4t5.5 0h2q59 -4 119 -7t90 -3l30 -1q109 1 242 11q8 2 10 -4v-41q0 -7 -10 -7h-2q-97 3 -138 -65q-24 -38 -24 -98v-719q0 -134 51 -234t142 -157q109 -68 247 -68q160 0 269 86q153 121 153 373v719q0 47 -16 81t-35 49.5t-46.5 23.5 t-39.5 8.5t-25 0.5h-2l-10 7q-2 35 0 41q1 3 3.5 4t4.5 0h2l205 -11q91 1 224 11q8 2 10 -4v-41q0 -7 -10 -7q-139 0 -160 -120q-4 -20 -4 -43v-719q0 -127 -43.5 -228t-120 -164.5t-177.5 -97t-218 -33.5t-217 33.5t-176.5 97t-120 164.5t-43.5 228v719q0 47 -16 81 t-35 49.5t-46.5 23.5t-39.5 8.5t-25 0.5h-2q-4 0 -7 2t-3 4zM592.5 1832.5q2.5 5.5 7.5 6.5l133 37q30 7 43 -8l240 -228q6 -8 0 -16l-15 -16q-8 -4 -18 0l-369 194q-15 7 -19.5 16t-2 14.5z" />
<glyph unicode="&#xda;" horiz-adv-x="1587" d="M61 1389q-2 35 0 41q1 3 3.5 4t5.5 0h2q59 -4 119 -7t90 -3l30 -1q109 1 242 11q8 2 10 -4v-41q0 -7 -10 -7h-2q-97 3 -138 -65q-24 -38 -24 -98v-719q0 -134 51 -234t142 -157q109 -68 247 -68q160 0 269 86q153 121 153 373v719q0 47 -16 81t-35 49.5t-46.5 23.5 t-39.5 8.5t-25 0.5h-2l-10 7q-2 35 0 41q1 3 3.5 4t4.5 0h2l205 -11q91 1 224 11q8 2 10 -4v-41q0 -7 -10 -7q-139 0 -160 -120q-4 -20 -4 -43v-719q0 -127 -43.5 -228t-120 -164.5t-177.5 -97t-218 -33.5t-217 33.5t-176.5 97t-120 164.5t-43.5 228v719q0 47 -16 81 t-35 49.5t-46.5 23.5t-39.5 8.5t-25 0.5h-2q-4 0 -7 2t-3 4zM797.5 1628q-0.5 4 0.5 6l1 2q217 210 233 226q6 6 15 9.5t15 4.5h5h182q13 -5 10.5 -14t-16.5 -17l-405 -235q-4 -3 -9 -4t-7 0h-3q-10 6 -18 14q-3 4 -3.5 8z" />
<glyph unicode="&#xdb;" horiz-adv-x="1587" d="M61 1389q-2 35 0 41q1 3 3.5 4t5.5 0h2q59 -4 119 -7t90 -3l30 -1q109 1 242 11q8 2 10 -4v-41q0 -7 -10 -7h-2q-97 3 -138 -65q-24 -38 -24 -98v-719q0 -134 51 -234t142 -157q109 -68 247 -68q160 0 269 86q153 121 153 373v719q0 47 -16 81t-35 49.5t-46.5 23.5 t-39.5 8.5t-25 0.5h-2l-10 7q-2 35 0 41q1 3 3.5 4t4.5 0h2l205 -11q91 1 224 11q8 2 10 -4v-41q0 -7 -10 -7q-139 0 -160 -120q-4 -20 -4 -43v-719q0 -127 -43.5 -228t-120 -164.5t-177.5 -97t-218 -33.5t-217 33.5t-176.5 97t-120 164.5t-43.5 228v719q0 47 -16 81 t-35 49.5t-46.5 23.5t-39.5 8.5t-25 0.5h-2q-4 0 -7 2t-3 4zM532 1617q-1 5 0 8v3q261 246 271 256q11 8 20 8q13 0 21 -8l272 -256q8 -8 -4 -20l-27 -19q-8 -2 -18 6l-244 136q-233 -130 -241 -136l-21 -6q-18 11 -24 19q-4 4 -5 9z" />
<glyph unicode="&#xdc;" horiz-adv-x="1587" d="M61 1389q-2 35 0 41q1 3 3.5 4t5.5 0h2q59 -4 119 -7t90 -3l30 -1q109 1 242 11q8 2 10 -4v-41q0 -7 -10 -7h-2q-97 3 -138 -65q-24 -38 -24 -98v-719q0 -134 51 -234t142 -157q109 -68 247 -68q160 0 269 86q153 121 153 373v719q0 47 -16 81t-35 49.5t-46.5 23.5 t-39.5 8.5t-25 0.5h-2l-10 7q-2 35 0 41q1 3 3.5 4t4.5 0h2l205 -11q91 1 224 11q8 2 10 -4v-41q0 -7 -10 -7q-139 0 -160 -120q-4 -20 -4 -43v-719q0 -127 -43.5 -228t-120 -164.5t-177.5 -97t-218 -33.5t-217 33.5t-176.5 97t-120 164.5t-43.5 228v719q0 47 -16 81 t-35 49.5t-46.5 23.5t-39.5 8.5t-25 0.5h-2q-4 0 -7 2t-3 4zM555 1722q0 41 28 70t68 29q41 0 70 -29t29 -70q0 -40 -29 -68t-70 -28q-40 0 -68 28t-28 68zM891 1722q0 41 28 70t68 29q41 0 69.5 -29t28.5 -70q0 -40 -28.5 -68t-69.5 -28q-40 0 -68 28t-28 68z" />
<glyph unicode="&#xdd;" horiz-adv-x="1484" d="M61 1389q-2 35 0 41q1 3 3.5 4t5.5 0h2q59 -4 135 -7t122 -3l46 -1q88 1 221 11q8 2 10 -4v-41q0 -7 -10 -7q-46 0 -75.5 -9.5t-45 -32t-6.5 -66t45 -105.5q78 -138 258 -442q25 41 266 451q29 50 31.5 89t-13.5 60t-40 34t-40.5 17t-23.5 4l-10 7q-2 35 0 41q1 3 3.5 4 t4.5 0h2q59 -4 119.5 -7t91.5 -3l31 -1q86 1 219 11q8 2 10 -4v-41q0 -7 -10 -7q-5 0 -20 -3t-43 -14t-56.5 -27.5t-61 -47.5t-56.5 -71q-263 -434 -322 -539q-14 -27 -19.5 -48.5t-5.5 -68.5v-348q0 -47 16 -81t35 -49.5t46.5 -24t39.5 -9t25 -0.5h2q4 0 7 -1.5t4 -3.5v-1 q2 -35 0 -41q-1 -3 -3.5 -4t-4.5 0h-3q-59 4 -119.5 6.5t-91.5 3.5h-30q-107 0 -240 -10q-8 -2 -10 4v41q0 6 10 6q132 0 158 111q6 24 6 53v348q0 49 -37 113l-330 543q-29 46 -58 78t-51 48.5t-48.5 25t-41.5 10t-38 1.5q-4 0 -7 2t-3 4zM741.5 1628q-0.5 4 0.5 6l1 2 q218 210 234 226q6 6 15 9.5t14 4.5h6h182q13 -5 10.5 -14t-16.5 -17l-406 -235q-4 -3 -8.5 -4t-7.5 0h-2q-11 6 -19 14q-3 4 -3.5 8z" />
<glyph unicode="&#xde;" horiz-adv-x="1138" d="M61 4v41q1 6 11 6q132 0 158 111q6 24 6 53v1004q0 47 -16 81t-35 49.5t-46.5 23.5t-39.5 8.5t-25 0.5h-2q-4 0 -7 2t-3 4l-1 1q-2 35 0 41q1 3 3.5 4t5.5 0h2q59 -4 119 -7t90 -3l30 -1q109 1 242 11q8 2 10 -4v-41q0 -7 -10 -7h-2q-97 3 -138 -65q-24 -38 -24 -98v-111 q60 3 164 16q32 4 69.5 4.5t88.5 -5t98.5 -18t95.5 -38.5t84 -62t60.5 -93.5t27.5 -129.5q5 -106 -29 -191t-99 -139.5t-151 -85.5t-188 -36q-58 -3 -130 7.5t-91 22.5v-145q0 -47 16 -81t35 -49.5t46.5 -24t39.5 -9t25 -0.5h2l10 -6q2 -35 0 -41q-1 -3 -3.5 -4t-4.5 0h-2 q-59 4 -119.5 6.5t-91.5 3.5h-31q-106 0 -239 -10q-9 -2 -11 4zM389 477q0 -45 61.5 -69.5t153.5 -16.5q62 5 119 30.5t103.5 68t74 108.5t27.5 145q0 82 -30 147t-77.5 102.5t-106 57.5t-117 19.5t-108.5 -18.5q-34 -12 -63.5 -50.5t-36.5 -95.5v-428z" />
<glyph unicode="&#xdf;" horiz-adv-x="1251" d="M63 754q-4 0 0 4q1 0 19.5 12.5t38.5 27t22 15.5q5 2 7 2h102v117q0 99 19 183.5t53 144.5t73 102t86 72q89 57 191.5 74t202.5 -15q79 -27 128 -103t33 -180q-6 -35 -18 -67.5t-34 -63.5t-40 -53.5t-52 -52.5t-52 -45.5t-57.5 -47t-53.5 -42.5q-15 -13 -16 -25 t7.5 -21.5t27.5 -23.5q57 -41 154.5 -108.5t121.5 -84.5q220 -155 98 -415q-56 -110 -171.5 -153.5t-241.5 -20.5q-11 2 -11 14q0 2 25 71.5t31 84.5q3 10 10 10h18h5t3 -3.5t5 -12.5q11 -29 27.5 -48t35 -26t27.5 -8.5t18 -1.5q78 0 129 71q27 39 33.5 91t-19 112 t-85.5 104q-113 85 -365 263q-57 41 -12 75q7 5 41.5 31.5t51.5 40t52 43.5t55 51t47.5 53t42.5 59t27.5 60.5t14.5 65.5q5 60 -19 115.5t-72 91.5q-66 52 -169.5 44.5t-163.5 -73.5q-30 -33 -49 -78t-27 -106t-10 -110t-2 -128v-727q0 -47 15.5 -81t35 -49.5t47 -24 t39.5 -9t24 -0.5h2q4 0 7 -1.5t4 -3.5v-1q2 -35 0 -41q-1 -3 -3.5 -4t-4.5 0h-3q-59 4 -119.5 6.5t-91.5 3.5h-30q-107 0 -240 -10q-8 -2 -10 4v41q0 6 10 6q132 0 158 111q6 24 6 53v539h-189z" />
<glyph unicode="&#xe0;" horiz-adv-x="880" d="M63 217q-1 15 13 21l338 178q33 18 59.5 38t43 36.5t28 39t17 36t8.5 37t3 33v32.5v14q-7 77 -53 109t-108 32q-74 0 -133 -43q-41 -30 -41 -71l8 -37q3 -6 -2 -6l-117 -54q-8 -5 -12 4q-2 6 -5 17t1 42.5t20.5 61t65 65.5t122.5 62q58 20 108.5 27.5t85 5.5t65.5 -14.5 t48.5 -24t34.5 -32.5t22.5 -30.5t14.5 -25.5q9 -18 14 -54t6 -62l1 -27v-320q0 -94 13 -149.5t30.5 -71.5t40.5 -14q6 2 8 -6q6 -24 6 -26t-4 -5l-133 -55q-13 -4 -29 4q-21 11 -42.5 50t-28.5 83q-193 -124 -250 -137q-34 -7 -89.5 7.5t-95.5 57.5q-32 33 -52.5 76 t-24.5 69zM217 238q13 -49 37 -82q32 -42 75 -59t81 -9q18 4 35.5 11t42.5 25t43 42.5t31 67t13 94.5v143q-3 -16 -27.5 -39t-64.5 -45zM262 1423l90 90q4 7 16 5.5t17 -17.5l121 -411q2 -11 -6 -17l-21 -8q-8 0 -16 8l-199 307q-20 25 -2 43z" />
<glyph unicode="&#xe1;" horiz-adv-x="880" d="M63 217q-1 15 13 21l338 178q33 18 59.5 38t43 36.5t28 39t17 36t8.5 37t3 33v32.5v14q-7 77 -53 109t-108 32q-74 0 -133 -43q-41 -30 -41 -71l8 -37q3 -6 -2 -6l-117 -54q-8 -5 -12 4q-2 6 -5 17t1 42.5t20.5 61t65 65.5t122.5 62q58 20 108.5 27.5t85 5.5t65.5 -14.5 t48.5 -24t34.5 -32.5t22.5 -30.5t14.5 -25.5q9 -18 14 -54t6 -62l1 -27v-320q0 -94 13 -149.5t30.5 -71.5t40.5 -14q6 2 8 -6q6 -24 6 -26t-4 -5l-133 -55q-13 -4 -29 4q-21 11 -42.5 50t-28.5 83q-193 -124 -250 -137q-34 -7 -89.5 7.5t-95.5 57.5q-32 33 -52.5 76 t-24.5 69zM217 238q13 -49 37 -82q32 -42 75 -59t81 -9q18 4 35.5 11t42.5 25t43 42.5t31 67t13 94.5v143q-3 -16 -27.5 -39t-64.5 -45zM281 1072v3q166 271 186 314q5 11 13 17t13 6l5 1h172q9 0 11.5 -5t-0.5 -12t-11 -14l-346 -323q-4 -4 -8 -6t-6 -2h-3q-10 2 -20 8 q-4 3 -5 7t-1 6z" />
<glyph unicode="&#xe2;" horiz-adv-x="880" d="M63 217q-1 15 13 21l338 178q33 18 59.5 38t43 36.5t28 39t17 36t8.5 37t3 33v32.5v14q-7 77 -53 109t-108 32q-74 0 -133 -43q-41 -30 -41 -71l8 -37q3 -6 -2 -6l-117 -54q-8 -5 -12 4q-2 6 -5 17t1 42.5t20.5 61t65 65.5t122.5 62q58 20 108.5 27.5t85 5.5t65.5 -14.5 t48.5 -24t34.5 -32.5t22.5 -30.5t14.5 -25.5q9 -18 14 -54t6 -62l1 -27v-320q0 -94 13 -149.5t30.5 -71.5t40.5 -14q6 2 8 -6q6 -24 6 -26t-4 -5l-133 -55q-13 -4 -29 4q-21 11 -42.5 50t-28.5 83q-193 -124 -250 -137q-34 -7 -89.5 7.5t-95.5 57.5q-32 33 -52.5 76 t-24.5 69zM146 1072l1 3q261 246 271 256q11 8 20 8q13 0 21 -8l272 -256q8 -8 -4 -20l-27 -19q-8 -2 -18 6l-244 136q-233 -130 -241 -136l-21 -6q-18 11 -24 19q-4 4 -5 9t-1 8zM217 238q13 -49 37 -82q32 -42 75 -59t81 -9q18 4 35.5 11t42.5 25t43 42.5t31 67t13 94.5 v143q-3 -16 -27.5 -39t-64.5 -45z" />
<glyph unicode="&#xe3;" horiz-adv-x="880" d="M63 217q-1 15 13 21l338 178q33 18 59.5 38t43 36.5t28 39t17 36t8.5 37t3 33v32.5v14q-7 77 -53 109t-108 32q-74 0 -133 -43q-41 -30 -41 -71l8 -37q3 -6 -2 -6l-117 -54q-8 -5 -12 4q-2 6 -5 17t1 42.5t20.5 61t65 65.5t122.5 62q58 20 108.5 27.5t85 5.5t65.5 -14.5 t48.5 -24t34.5 -32.5t22.5 -30.5t14.5 -25.5q9 -18 14 -54t6 -62l1 -27v-320q0 -94 13 -149.5t30.5 -71.5t40.5 -14q6 2 8 -6q6 -24 6 -26t-4 -5l-133 -55q-13 -4 -29 4q-21 11 -42.5 50t-28.5 83q-193 -124 -250 -137q-34 -7 -89.5 7.5t-95.5 57.5q-32 33 -52.5 76 t-24.5 69zM139 1116q-4 4 2 17q5 7 16 17.5t31.5 29t48 32.5t59 24.5t70 8t76.5 -19.5q57 -25 104 -35.5t73 -9.5t48 11t27.5 15.5t11.5 13.5l1 1q6 6 14 0q16 -11 22 -17q5 -5 -2 -16q-32 -37 -41 -45q-117 -110 -258 -47q-55 25 -102 35t-73.5 8.5t-49 -11t-28.5 -15 t-12 -12.5l-1 -1q-6 -6 -14 0q-17 10 -23 16zM217 238q13 -49 37 -82q32 -42 75 -59t81 -9q18 4 35.5 11t42.5 25t43 42.5t31 67t13 94.5v143q-3 -16 -27.5 -39t-64.5 -45z" />
<glyph unicode="&#xe4;" horiz-adv-x="880" d="M63 217q-1 15 13 21l338 178q33 18 59.5 38t43 36.5t28 39t17 36t8.5 37t3 33v32.5v14q-7 77 -53 109t-108 32q-74 0 -133 -43q-41 -30 -41 -71l8 -37q3 -6 -2 -6l-117 -54q-8 -5 -12 4q-2 6 -5 17t1 42.5t20.5 61t65 65.5t122.5 62q58 20 108.5 27.5t85 5.5t65.5 -14.5 t48.5 -24t34.5 -32.5t22.5 -30.5t14.5 -25.5q9 -18 14 -54t6 -62l1 -27v-320q0 -94 13 -149.5t30.5 -71.5t40.5 -14q6 2 8 -6q6 -24 6 -26t-4 -5l-133 -55q-13 -4 -29 4q-21 11 -42.5 50t-28.5 83q-193 -124 -250 -137q-34 -7 -89.5 7.5t-95.5 57.5q-32 33 -52.5 76 t-24.5 69zM176 1169q0 41 28 70t68 29q41 0 70 -29t29 -70q0 -40 -29 -68t-70 -28q-40 0 -68 28t-28 68zM217 238q13 -49 37 -82q32 -42 75 -59t81 -9q18 4 35.5 11t42.5 25t43 42.5t31 67t13 94.5v143q-3 -16 -27.5 -39t-64.5 -45zM512 1169q0 41 28 70t68 29q41 0 70 -29 t29 -70q0 -40 -29 -68t-70 -28q-40 0 -68 28t-28 68z" />
<glyph unicode="&#xe5;" horiz-adv-x="880" d="M63 217q-1 15 13 21l338 178q33 18 59.5 38t43 36.5t28 39t17 36t8.5 37t3 33v32.5v14q-7 77 -53 109t-108 32q-74 0 -133 -43q-41 -30 -41 -71l8 -37q3 -6 -2 -6l-117 -54q-8 -5 -12 4q-2 6 -5 17t1 42.5t20.5 61t65 65.5t122.5 62q58 20 108.5 27.5t85 5.5t65.5 -14.5 t48.5 -24t34.5 -32.5t22.5 -30.5t14.5 -25.5q9 -18 14 -54t6 -62l1 -27v-320q0 -94 13 -149.5t30.5 -71.5t40.5 -14q6 2 8 -6q6 -24 6 -26t-4 -5l-133 -55q-13 -4 -29 4q-21 11 -42.5 50t-28.5 83q-193 -124 -250 -137q-34 -7 -89.5 7.5t-95.5 57.5q-32 33 -52.5 76 t-24.5 69zM217 238q13 -49 37 -82q32 -42 75 -59t81 -9q18 4 35.5 11t42.5 25t43 42.5t31 67t13 94.5v143q-3 -16 -27.5 -39t-64.5 -45zM252 1204q0 77 54 122.5t134 45.5q81 0 136 -45.5t55 -122.5t-55 -123.5t-136 -46.5q-79 0 -133.5 46.5t-54.5 123.5zM348 1204 q0 -44 25 -72t67 -28t67 28t25 72q0 41 -27 70t-65 29q-37 0 -64.5 -29t-27.5 -70z" />
<glyph unicode="&#xe6;" horiz-adv-x="1368" d="M63 217q-1 15 13 21l338 178q39 21 67.5 41.5t45.5 42t27 37t14 38.5t4.5 34t0.5 36v14q-7 77 -53.5 109.5t-107.5 32.5q-74 0 -133 -43q-41 -30 -41 -72l8 -37q3 -6 -2 -6l-117 -53q-8 -5 -12 4q-2 6 -5 17t1 42.5t20.5 61t65 65.5t122.5 62q276 96 373 -82q15 19 57 47 t89 45q57 20 113.5 24t112 -9t105.5 -51.5t86 -100.5q12 -21 29 -21q10 0 3 -12q-5 -7 -11 -10l-269 -97q-269 -97 -286 -102q0 -57 10.5 -110t33.5 -103.5t66 -89.5t101 -57q88 -28 195.5 10t164.5 106q2 2 6 2q7 0 7 -6q1 -3 -9 -26.5t-37 -59.5t-65.5 -70t-104.5 -58.5 t-145 -24.5q-89 0 -174 43.5t-133 122.5q-50 -35 -159.5 -95.5t-147.5 -72.5q-36 -5 -90.5 8.5t-94.5 56.5q-32 33 -52.5 75t-24.5 68zM211 231q11 -42 37 -77q31 -41 76.5 -55.5t85.5 -6.5q23 5 44.5 15t50 32t47.5 65t23 101l-2 162q-10 -33 -90 -80zM723 539l395 141 q-32 60 -92 101t-137 22q-55 -14 -94.5 -60t-55.5 -99t-16 -105z" />
<glyph unicode="&#xe7;" horiz-adv-x="892" d="M65 343.5q-8 58.5 0 142.5t39 153q33 72 95.5 134.5t144.5 94.5q105 38 201 26.5t170 -70t98 -144.5q2 -19 0 -23q-4 -8 -10 -8h-131q-1 7 -4 18.5t-17 41.5t-32.5 53.5t-53.5 45.5t-78 26q-52 5 -101 -12t-90.5 -56.5t-67 -112t-25.5 -168.5q0 -49 10.5 -100t32 -101.5 t60.5 -92.5t89 -64q62 -27 125.5 -30t111.5 11.5t89 37.5t64 43.5t30 33.5q2 2 6 2q2 0 8 -6q0 -2 -4 -10q-73 -146 -202 -202q-130 -56 -295 -3q-75 25 -139 87.5t-101 156.5q-15 37 -23 95.5zM311 -319q9 12 32 36t28 25q11 4 16 -10q13 -40 48 -59t65 8q24 22 11 47 t-77 75q-79 63 -63 91q2 3 125 126q5 5 10 5h39l6 -7q0 -1 -39.5 -42t-40.5 -44q-3 -6 10.5 -18.5t41.5 -35.5t46 -42q21 -23 27.5 -50t-9 -64.5t-59.5 -73.5q-36 -29 -71 -39.5t-59.5 -5.5t-44.5 17t-29.5 23t-12.5 17q-8 13 0 21z" />
<glyph unicode="&#xe8;" horiz-adv-x="892" d="M65 342q-8 57 0 139.5t39 151.5q32 71 95 133t145 96q134 51 240 27t172.5 -103.5t68.5 -183.5q2 -18 0 -22q-5 -9 -10 -9h-598q-15 -57 -10.5 -125t22 -130t61 -113.5t105.5 -75.5q70 -26 136.5 -28.5t113 11.5t85 37t58.5 42.5t27 33.5q2 2 6 2q2 0 8 -6q0 -2 -4 -10 q-73 -146 -202 -202q-130 -56 -295 -3q-75 25 -139 87.5t-101 156.5q-15 37 -23 94zM236 633h440q1 21 -9.5 52t-32.5 65.5t-65 59t-98 24.5q-77 0 -140 -52.5t-95 -148.5zM289 1423l90 90q4 7 16 5.5t17 -17.5l120 -411q2 -11 -6 -17l-20 -8q-9 0 -17 8l-198 307 q-20 25 -2 43z" />
<glyph unicode="&#xe9;" horiz-adv-x="892" d="M65 342q-8 57 0 139.5t39 151.5q32 71 95 133t145 96q134 51 240 27t172.5 -103.5t68.5 -183.5q2 -18 0 -22q-5 -9 -10 -9h-598q-15 -57 -10.5 -125t22 -130t61 -113.5t105.5 -75.5q70 -26 136.5 -28.5t113 11.5t85 37t58.5 42.5t27 33.5q2 2 6 2q2 0 8 -6q0 -2 -4 -10 q-73 -146 -202 -202q-130 -56 -295 -3q-75 25 -139 87.5t-101 156.5q-15 37 -23 94zM236 633h440q1 21 -9.5 52t-32.5 65.5t-65 59t-98 24.5q-77 0 -140 -52.5t-95 -148.5zM307 1072v3q167 271 187 314q5 11 12.5 17t12.5 6l5 1h172q9 0 11.5 -5t-0.5 -12t-11 -14l-346 -323 q-4 -4 -8 -6t-6 -2h-2q-11 2 -21 8q-4 3 -5 7t-1 6z" />
<glyph unicode="&#xea;" horiz-adv-x="892" d="M65 342q-8 57 0 139.5t39 151.5q32 71 95 133t145 96q134 51 240 27t172.5 -103.5t68.5 -183.5q2 -18 0 -22q-5 -9 -10 -9h-598q-15 -57 -10.5 -125t22 -130t61 -113.5t105.5 -75.5q70 -26 136.5 -28.5t113 11.5t85 37t58.5 42.5t27 33.5q2 2 6 2q2 0 8 -6q0 -2 -4 -10 q-73 -146 -202 -202q-130 -56 -295 -3q-75 25 -139 87.5t-101 156.5q-15 37 -23 94zM173 1064q-1 5 0 8l1 3q260 246 270 256q11 8 21 8q12 0 20 -8l273 -256q8 -8 -4 -20l-27 -19q-8 -2 -18 6l-244 136q-234 -130 -242 -136q-3 -2 -6 -3.5t-5.5 -2t-4.5 -0.5h-3h-1 q-19 11 -25 19q-4 4 -5 9zM236 633h440q1 21 -9.5 52t-32.5 65.5t-65 59t-98 24.5q-77 0 -140 -52.5t-95 -148.5z" />
<glyph unicode="&#xeb;" horiz-adv-x="892" d="M65 342q-8 57 0 139.5t39 151.5q32 71 95 133t145 96q134 51 240 27t172.5 -103.5t68.5 -183.5q2 -18 0 -22q-5 -9 -10 -9h-598q-15 -57 -10.5 -125t22 -130t61 -113.5t105.5 -75.5q70 -26 136.5 -28.5t113 11.5t85 37t58.5 42.5t27 33.5q2 2 6 2q2 0 8 -6q0 -2 -4 -10 q-73 -146 -202 -202q-130 -56 -295 -3q-75 25 -139 87.5t-101 156.5q-15 37 -23 94zM203 1169q0 41 28 70t68 29q41 0 69.5 -29t28.5 -70q0 -40 -28.5 -68t-69.5 -28q-40 0 -68 28t-28 68zM236 633h440q1 21 -9.5 52t-32.5 65.5t-65 59t-98 24.5q-77 0 -140 -52.5 t-95 -148.5zM539 1169q0 41 28 70t68 29q41 0 69.5 -29t28.5 -70q0 -40 -28.5 -68t-69.5 -28q-40 0 -68 28t-28 68z" />
<glyph unicode="&#xec;" d="M61 4v41q1 6 11 6q132 0 158 111q6 24 6 53v444v35.5t-5.5 22.5t-11 15t-24.5 7t-36.5 4h-56.5q-10 1 -10 7v38q0 5 6 5l281 106q10 4 10 -4v-680q0 -47 16 -81t35 -49.5t46.5 -24t39.5 -9t25 -0.5h2l10 -6q2 -35 0 -41q-1 -3 -3.5 -4t-4.5 0h-2q-59 4 -119.5 6.5 t-91.5 3.5h-31q-106 0 -239 -10q-9 -2 -11 4zM135 1423l90 90q4 7 16 5.5t17 -17.5l121 -411q2 -11 -6 -17l-21 -8q-8 0 -16 8l-199 307q-20 25 -2 43z" />
<glyph unicode="&#xed;" d="M61 4v41q1 6 11 6q132 0 158 111q6 24 6 53v444v35.5t-5.5 22.5t-11 15t-24.5 7t-36.5 4h-56.5q-10 1 -10 7v38q0 5 6 5l281 106q10 4 10 -4v-680q0 -47 16 -81t35 -49.5t46.5 -24t39.5 -9t25 -0.5h2l10 -6q2 -35 0 -41q-1 -3 -3.5 -4t-4.5 0h-2q-59 4 -119.5 6.5 t-91.5 3.5h-31q-106 0 -239 -10q-9 -2 -11 4zM154 1072v3q166 271 186 314q5 11 13 17t13 6l5 1h172q9 0 11.5 -5t-0.5 -12t-11 -14l-346 -323q-4 -4 -8 -6t-7 -2h-2q-10 2 -20 8q-4 3 -5 7t-1 6z" />
<glyph unicode="&#xee;" d="M20 1064q-1 5 0 8v3q261 246 271 256q11 8 20 8q13 0 21 -8l272 -256q8 -8 -4 -20l-27 -19q-8 -2 -18 6l-244 136q-233 -130 -241 -136l-21 -6q-18 11 -24 19q-4 4 -5 9zM61 4v41q1 6 11 6q132 0 158 111q6 24 6 53v444v35.5t-5.5 22.5t-11 15t-24.5 7t-36.5 4h-56.5 q-10 1 -10 7v38q0 5 6 5l281 106q10 4 10 -4v-680q0 -47 16 -81t35 -49.5t46.5 -24t39.5 -9t25 -0.5h2l10 -6q2 -35 0 -41q-1 -3 -3.5 -4t-4.5 0h-2q-59 4 -119.5 6.5t-91.5 3.5h-31q-106 0 -239 -10q-9 -2 -11 4z" />
<glyph unicode="&#xef;" d="M49 1169q0 41 28 70t68 29q41 0 70 -29t29 -70q0 -40 -29 -68t-70 -28q-40 0 -68 28t-28 68zM61 4v41q1 6 11 6q132 0 158 111q6 24 6 53v444v35.5t-5.5 22.5t-11 15t-24.5 7t-36.5 4h-56.5q-10 1 -10 7v38q0 5 6 5l281 106q10 4 10 -4v-680q0 -47 16 -81t35 -49.5 t46.5 -24t39.5 -9t25 -0.5h2l10 -6q2 -35 0 -41q-1 -3 -3.5 -4t-4.5 0h-2q-59 4 -119.5 6.5t-91.5 3.5h-31q-106 0 -239 -10q-9 -2 -11 4zM385 1169q0 41 28 70t68 29q41 0 70 -29t29 -70q0 -40 -29 -68t-70 -28q-40 0 -68 28t-28 68z" />
<glyph unicode="&#xf0;" horiz-adv-x="1105" d="M61 1362v41q0 5 5 8q133 37 302.5 17t288.5 -91q175 103 189 117q5 5 10.5 5.5t8.5 -1.5l3 -2l29 -84q2 -5 -0.5 -10t-6.5 -8l-3 -2l-139 -84q93 -85 160 -201t102 -246q32 -121 32 -240.5t-32 -228t-105 -196.5t-180 -138q-36 -17 -85.5 -26.5t-113 -10t-133.5 22.5 t-129 70q-89 72 -129 183.5t-23.5 227.5t85.5 205q80 104 205 159t245 46.5t191 -76.5q-12 104 -77.5 221t-119.5 162q-234 -139 -246 -151q-5 -4 -10 -3.5t-9 2.5l-3 3l-29 84q0 4 3 8.5t6 6.5l3 3l197 119q-56 37 -130 60t-142 28.5t-123 3.5t-90 -10q-7 0 -7 6z M253 476.5q9 -79.5 41 -153.5t79 -124q65 -70 149 -98.5t160.5 -11.5t122.5 75q64 79 72 193t-34.5 221t-119.5 174q-34 30 -89 49t-128.5 13t-132.5 -50q-70 -51 -99.5 -129.5t-20.5 -158z" />
<glyph unicode="&#xf1;" horiz-adv-x="1269" d="M61 4v41q1 6 11 6q132 0 158 111q6 24 6 53v420q0 37 -2 52.5t-15 31t-40 20t-77 4.5q-10 1 -10 7v38q0 5 6 5l281 106q10 4 10 -4l-2 -250q76 127 193 201q43 28 97.5 41t98.5 12.5t78 -10.5q63 -19 111 -69.5t61 -129.5q8 -51 8 -168v-307q0 -47 16 -81t35 -49.5 t46.5 -24t39.5 -9t25 -0.5h2l10 -6q2 -35 0 -41q-1 -3 -3.5 -4t-4.5 0h-2q-59 4 -119.5 6.5t-91.5 3.5h-31q-106 0 -239 -10q-8 -2 -10 4v41q0 6 10 6q132 0 158 111q6 24 6 53v326q0 157 -58 215q-23 23 -58.5 35.5t-88 7.5t-107.5 -35q-48 -27 -102.5 -89.5t-77.5 -119.5 v-340q0 -47 16 -81t35 -49.5t46.5 -24t39.5 -9t25 -0.5h2l10 -6q2 -35 0 -41q-1 -3 -3.5 -4t-4.5 0h-2q-59 4 -119.5 6.5t-91.5 3.5h-31q-106 0 -239 -10q-9 -2 -11 4zM354 1116q-4 4 2 17q5 7 16 17.5t31.5 29t48 32.5t59 24.5t70 8t76.5 -19.5q57 -25 104 -35.5t73 -9.5 t48 11t27.5 15.5t11.5 13.5l1 1q6 6 14 0q16 -11 22 -17q5 -5 -2 -16q-32 -37 -41 -45q-117 -110 -258 -47q-55 25 -102 35t-73.5 8.5t-49 -11t-28.5 -15t-12 -12.5l-1 -1q-6 -6 -14 0q-17 10 -23 16z" />
<glyph unicode="&#xf2;" horiz-adv-x="1024" d="M61 444q0 200 130.5 327.5t334.5 127.5q191 0 315 -126.5t120 -334.5q-4 -214 -132.5 -335t-334.5 -123q-83 -1 -160 29.5t-138.5 87.5t-98 147t-36.5 200zM221 506q-5 -86 15.5 -170t60.5 -152.5t106 -108.5t146 -34q65 5 114 39t75.5 86t40 105t16.5 110 q7 122 -25.5 226t-106.5 169.5t-176 63.5q-111 -1 -184.5 -96t-81.5 -238zM334 1423l90 90q4 7 16 5.5t17 -17.5l121 -411q1 -11 -7 -17l-20 -8q-8 0 -16 8l-199 307q-20 25 -2 43z" />
<glyph unicode="&#xf3;" horiz-adv-x="1024" d="M61 444q0 200 130.5 327.5t334.5 127.5q191 0 315 -126.5t120 -334.5q-4 -214 -132.5 -335t-334.5 -123q-83 -1 -160 29.5t-138.5 87.5t-98 147t-36.5 200zM221 506q-5 -86 15.5 -170t60.5 -152.5t106 -108.5t146 -34q65 5 114 39t75.5 86t40 105t16.5 110 q7 122 -25.5 226t-106.5 169.5t-176 63.5q-111 -1 -184.5 -96t-81.5 -238zM352 1072v3q167 271 187 314q5 11 12.5 17t12.5 6l5 1h172q9 0 11.5 -5t-0.5 -12t-11 -14l-346 -323q-4 -4 -8 -6t-6 -2h-2q-11 2 -21 8q-4 3 -5 7t-1 6z" />
<glyph unicode="&#xf4;" horiz-adv-x="1024" d="M61 444q0 200 130.5 327.5t334.5 127.5q191 0 315 -126.5t120 -334.5q-4 -214 -132.5 -335t-334.5 -123q-83 -1 -160 29.5t-138.5 87.5t-98 147t-36.5 200zM218 1064q-1 5 0 8l1 3q260 246 270 256q11 8 21 8q12 0 20 -8l273 -256q8 -8 -4 -20l-27 -19q-8 -2 -18 6 l-244 136q-234 -130 -242 -136q-3 -2 -6 -3.5t-5.5 -2t-4.5 -0.5h-3h-1q-19 11 -25 19q-4 4 -5 9zM221 506q-5 -86 15.5 -170t60.5 -152.5t106 -108.5t146 -34q65 5 114 39t75.5 86t40 105t16.5 110q7 122 -25.5 226t-106.5 169.5t-176 63.5q-111 -1 -184.5 -96t-81.5 -238z " />
<glyph unicode="&#xf5;" horiz-adv-x="1024" d="M61 444q0 200 130.5 327.5t334.5 127.5q191 0 315 -126.5t120 -334.5q-4 -214 -132.5 -335t-334.5 -123q-83 -1 -160 29.5t-138.5 87.5t-98 147t-36.5 200zM211 1116q-4 4 2 17q5 7 16 17.5t31.5 29t48 32.5t59 24.5t70 8t76.5 -19.5q57 -25 104 -35.5t73 -9.5t47.5 11 t27 15.5t11.5 13.5l1 1q6 6 15 0q16 -11 22 -17q5 -5 -2 -16q-32 -37 -41 -45q-117 -110 -258 -47q-55 25 -102 35t-73.5 8.5t-49 -11t-28.5 -15t-12 -12.5l-1 -1q-6 -6 -15 0q-16 10 -22 16zM221 506q-5 -86 15.5 -170t60.5 -152.5t106 -108.5t146 -34q65 5 114 39t75.5 86 t40 105t16.5 110q7 122 -25.5 226t-106.5 169.5t-176 63.5q-111 -1 -184.5 -96t-81.5 -238z" />
<glyph unicode="&#xf6;" horiz-adv-x="1024" d="M61 444q0 200 130.5 327.5t334.5 127.5q191 0 315 -126.5t120 -334.5q-4 -214 -132.5 -335t-334.5 -123q-83 -1 -160 29.5t-138.5 87.5t-98 147t-36.5 200zM221 506q-5 -86 15.5 -170t60.5 -152.5t106 -108.5t146 -34q65 5 114 39t75.5 86t40 105t16.5 110 q7 122 -25.5 226t-106.5 169.5t-176 63.5q-111 -1 -184.5 -96t-81.5 -238zM248 1169q0 41 28 70t68 29q41 0 69.5 -29t28.5 -70q0 -40 -28.5 -68t-69.5 -28q-40 0 -68 28t-28 68zM584 1169q0 41 28 70t68 29q41 0 69.5 -29t28.5 -70q0 -40 -28.5 -68t-69.5 -28q-40 0 -68 28 t-28 68z" />
<glyph unicode="&#xf7;" horiz-adv-x="993" d="M164 399l20 86q2 4 6.5 6.5t8.5 3.5l4 1h262q34 0 126.5 -1t152 -1t65.5 2q7 2 12 -1t7 -7l1 -3l-20 -86q-1 -5 -5.5 -8t-8.5 -3l-4 -1h-269q-35 0 -125.5 1t-149 1t-65.5 -2q-6 -2 -10.5 1t-5.5 7zM399 203q0 41 28.5 69.5t68.5 28.5q41 0 69.5 -28.5t28.5 -69.5 q0 -40 -28.5 -68.5t-69.5 -28.5q-40 0 -68.5 28.5t-28.5 68.5zM399 694q0 41 28.5 70t68.5 29q41 0 69.5 -29t28.5 -70q0 -40 -28.5 -68t-69.5 -28q-40 0 -68.5 28t-28.5 68z" />
<glyph unicode="&#xf8;" horiz-adv-x="1024" d="M61 444q0 110 41 199t108 143.5t150 84.5t171.5 28t166.5 -33l13 25q3 6 6 6h88l2 -4l-33 -66q90 -58 140 -159t47 -230q-2 -96 -31.5 -175.5t-77 -132t-109 -89t-129 -50.5t-134.5 -11.5t-126 22.5l-8 -16l-4 -2h-90l-2 2l26 51q-98 57 -156.5 161t-58.5 246zM221 506 q-6 -101 22 -200.5t85 -166.5l327 643q-77 61 -168 58q-111 -1 -184.5 -96t-81.5 -238zM393 80q67 -45 156 -39q65 5 114 39t75.5 86t40 105t16.5 110q10 203 -80 334z" />
<glyph unicode="&#xf9;" horiz-adv-x="1032" d="M20 811v39q1 4 7 4l254 33q10 4 10 -6v-502q0 -12 -0.5 -44t0 -44.5t2 -38.5t5 -40t10 -32.5t17 -32.5t25.5 -26q51 -41 142.5 -32t148.5 61q25 22 41.5 53t24.5 54t12 66.5t4 59v63.5v244q0 37 -2 53.5t-12.5 33.5t-34 22.5t-64.5 5.5q-10 0 -10 6v39q0 4 6 4l254 33 q10 4 10 -6v-602q0 -82 13.5 -131t31 -63.5t39.5 -12.5q7 2 9 -6q6 -24 6 -26t-4 -5l-134 -55q-15 -5 -28 4q-17 13 -30.5 29t-21.5 29t-15 30.5t-10 26.5t-7 24.5t-4 17.5q-60 -86 -154.5 -129.5t-189 -32t-154.5 73.5q-49 51 -61.5 113.5t-12.5 191.5v332q0 27 -0.5 38 t-3.5 28t-9.5 23t-19 14t-32 10t-47.5 2q-11 0 -11 6zM317 1423q85 84 91 90q4 7 15.5 5.5t16.5 -17.5l121 -411q2 -11 -6 -17l-20 -8q-9 0 -17 8l-199 307q-20 25 -2 43z" />
<glyph unicode="&#xfa;" horiz-adv-x="1032" d="M20 811v39q1 4 7 4l254 33q10 4 10 -6v-502q0 -12 -0.5 -44t0 -44.5t2 -38.5t5 -40t10 -32.5t17 -32.5t25.5 -26q51 -41 142.5 -32t148.5 61q25 22 41.5 53t24.5 54t12 66.5t4 59v63.5v244q0 37 -2 53.5t-12.5 33.5t-34 22.5t-64.5 5.5q-10 0 -10 6v39q0 4 6 4l254 33 q10 4 10 -6v-602q0 -82 13.5 -131t31 -63.5t39.5 -12.5q7 2 9 -6q6 -24 6 -26t-4 -5l-134 -55q-15 -5 -28 4q-17 13 -30.5 29t-21.5 29t-15 30.5t-10 26.5t-7 24.5t-4 17.5q-60 -86 -154.5 -129.5t-189 -32t-154.5 73.5q-49 51 -61.5 113.5t-12.5 191.5v332q0 27 -0.5 38 t-3.5 28t-9.5 23t-19 14t-32 10t-47.5 2q-11 0 -11 6zM336 1072v3q166 271 186 314q5 11 13 17t13 6l5 1h172q9 0 11.5 -5t-0.5 -12t-11 -14l-346 -323q-4 -4 -8 -6t-7 -2h-2q-10 2 -20 8q-4 3 -5 7t-1 6z" />
<glyph unicode="&#xfb;" horiz-adv-x="1032" d="M20 811v39q1 4 7 4l254 33q10 4 10 -6v-502q0 -12 -0.5 -44t0 -44.5t2 -38.5t5 -40t10 -32.5t17 -32.5t25.5 -26q51 -41 142.5 -32t148.5 61q25 22 41.5 53t24.5 54t12 66.5t4 59v63.5v244q0 37 -2 53.5t-12.5 33.5t-34 22.5t-64.5 5.5q-10 0 -10 6v39q0 4 6 4l254 33 q10 4 10 -6v-602q0 -82 13.5 -131t31 -63.5t39.5 -12.5q7 2 9 -6q6 -24 6 -26t-4 -5l-134 -55q-15 -5 -28 4q-17 13 -30.5 29t-21.5 29t-15 30.5t-10 26.5t-7 24.5t-4 17.5q-60 -86 -154.5 -129.5t-189 -32t-154.5 73.5q-49 51 -61.5 113.5t-12.5 191.5v332q0 27 -0.5 38 t-3.5 28t-9.5 23t-19 14t-32 10t-47.5 2q-11 0 -11 6zM202 1064q-1 5 0 8l1 3q260 246 270 256q11 8 21 8q12 0 20 -8l272 -256q8 -8 -4 -20l-26 -19q-9 -2 -19 6l-243 136q-234 -130 -242 -136l-21 -6q-18 11 -24 19q-4 4 -5 9z" />
<glyph unicode="&#xfc;" horiz-adv-x="1032" d="M20 811v39q1 4 7 4l254 33q10 4 10 -6v-502q0 -12 -0.5 -44t0 -44.5t2 -38.5t5 -40t10 -32.5t17 -32.5t25.5 -26q51 -41 142.5 -32t148.5 61q25 22 41.5 53t24.5 54t12 66.5t4 59v63.5v244q0 37 -2 53.5t-12.5 33.5t-34 22.5t-64.5 5.5q-10 0 -10 6v39q0 4 6 4l254 33 q10 4 10 -6v-602q0 -82 13.5 -131t31 -63.5t39.5 -12.5q7 2 9 -6q6 -24 6 -26t-4 -5l-134 -55q-15 -5 -28 4q-17 13 -30.5 29t-21.5 29t-15 30.5t-10 26.5t-7 24.5t-4 17.5q-60 -86 -154.5 -129.5t-189 -32t-154.5 73.5q-49 51 -61.5 113.5t-12.5 191.5v332q0 27 -0.5 38 t-3.5 28t-9.5 23t-19 14t-32 10t-47.5 2q-11 0 -11 6zM231 1169q0 41 28.5 70t68.5 29q41 0 69.5 -29t28.5 -70q0 -40 -28.5 -68t-69.5 -28q-40 0 -68.5 28t-28.5 68zM567 1169q0 41 28.5 70t68.5 29q41 0 69.5 -29t28.5 -70q0 -40 -28.5 -68t-69.5 -28q-40 0 -68.5 28 t-28.5 68z" />
<glyph unicode="&#xfd;" horiz-adv-x="1091" d="M0 825q-2 35 0 41q1 3 3.5 4t4.5 0h2q59 -4 119.5 -6.5t91.5 -3.5h31q104 0 237 10q9 2 11 -4v-41q-1 -6 -11 -6h-14t-25 -3t-32.5 -8.5t-28.5 -18t-20.5 -29.5t-2 -44.5t20.5 -62.5l215 -436q4 -8 10 4l203 434q14 30 17 55t-3 41t-18 29t-25 20t-27 11.5t-22 6t-12 1.5 t-6 1.5t-2 3.5v1q-2 35 0 41q1 3 3 4t4 0h1l180 -10q45 0 178 10q7 2 9 -4v-41l-2 -4q-3 -2 -7 -2q-12 0 -25.5 -3.5t-40.5 -17t-59 -50.5t-63 -93q-43 -79 -120.5 -245t-141.5 -298.5t-162.5 -295t-198.5 -277.5q-7 -7 -16 -2q-105 70 -115 80q-2 1 -1 5t5 7 q97 50 201.5 156t181.5 254l-303 616q-89 164 -215 164zM455 1072v3q166 271 186 314q5 11 13 17t13 6l5 1h172q9 0 11.5 -5t-0.5 -12t-11 -14l-346 -323q-4 -4 -8 -6t-6 -2h-3q-10 2 -20 8q-4 3 -5 7t-1 6z" />
<glyph unicode="&#xfe;" horiz-adv-x="1150" d="M63 -416l2 4l7 2q132 0 158 111q6 24 6 53v1544q0 25 -0.5 35.5t-5.5 23t-11 15.5t-24 7.5t-36.5 4.5h-56.5q-10 1 -10 7v36q0 5 6 7l281 104q10 4 10 -2v-731q79 48 164.5 72.5t168 20t153 -35.5t123.5 -99t75 -165q20 -85 11 -161t-36 -143t-73 -121t-101 -95 t-119 -65.5t-127 -32t-125.5 5.5t-113.5 47v-279q0 -47 16 -81t35 -49.5t46.5 -24t39.5 -9t25 -0.5h2l10 -6q2 -35 0 -41q-1 -3 -3.5 -4t-4.5 -1l-2 1q-59 4 -119 6.5t-90 2.5l-31 1q-108 0 -241 -10q-7 -2 -9 4v41zM389 365q0 -79 26 -142t68.5 -100t94.5 -56t107 -15.5 t103 28.5q78 40 118 158t22 278q-22 197 -170 268q-92 42 -195 21t-174 -92v-348z" />
<glyph unicode="&#xff;" horiz-adv-x="1091" d="M0 825q-2 35 0 41q1 3 3.5 4t4.5 0h2q59 -4 119.5 -6.5t91.5 -3.5h31q104 0 237 10q9 2 11 -4v-41q-1 -6 -11 -6h-14t-25 -3t-32.5 -8.5t-28.5 -18t-20.5 -29.5t-2 -44.5t20.5 -62.5l215 -436q4 -8 10 4l203 434q14 30 17 55t-3 41t-18 29t-25 20t-27 11.5t-22 6t-12 1.5 t-6 1.5t-2 3.5v1q-2 35 0 41q1 3 3 4t4 0h1l180 -10q45 0 178 10q7 2 9 -4v-41l-2 -4q-3 -2 -7 -2q-12 0 -25.5 -3.5t-40.5 -17t-59 -50.5t-63 -93q-43 -79 -120.5 -245t-141.5 -298.5t-162.5 -295t-198.5 -277.5q-7 -7 -16 -2q-105 70 -115 80q-2 1 -1 5t5 7 q97 50 201.5 156t181.5 254l-303 616q-89 164 -215 164zM350 1169q0 41 28 70t68 29q41 0 70 -29t29 -70q0 -40 -29 -68t-70 -28q-40 0 -68 28t-28 68zM686 1169q0 41 28 70t68 29q41 0 70 -29t29 -70q0 -40 -29 -68t-70 -28q-40 0 -68 28t-28 68z" />
<glyph unicode="&#x152;" horiz-adv-x="2224" d="M57 717q0 192 68 337.5t182 235.5q238 188 674 146q225 -16 1073 0q8 0 10 -4l105 -304q0 -3 -1.5 -4.5t-3.5 -1.5h-1h-37l-10 4q-67 145 -183 200.5t-323 55.5q-171 0 -210 -10q-44 -11 -56 -49q-7 -26 -7 -104v-476h373q47 0 81 16t49.5 35t24 46.5t9 39.5t0.5 25v2 q0 4 1.5 7t2.5 4h2q35 2 41 0q3 -1 4 -3.5t1 -4.5l-1 -3l-10 -192q0 -56 10 -189q2 -6 -4 -8h-41h-2q-1 -1 -2.5 1.5t-1.5 6.5q0 132 -111 158q-24 6 -53 6h-373v-475q0 -42 3.5 -69.5t21 -46.5t30.5 -28t56.5 -14t72 -5.5t103.5 -0.5h41q207 0 323 55.5t183 200.5q0 4 10 4 h37h2t3 -2t1 -6l-104 -301q-2 -4 -11 -4q-73 1 -318.5 10.5t-434 9t-334.5 -17.5q-115 -14 -206.5 -15.5t-204 19t-197.5 70.5q-70 40 -130.5 96.5t-113 135t-83 184.5t-30.5 227zM223 717q0 -125 30 -230.5t79.5 -178.5t117 -126.5t139.5 -82t150 -38.5q217 -27 357 35 q39 17 63.5 50.5t24.5 84.5v953q0 94 -90 147q-38 22 -123.5 39t-192.5 10q-245 -14 -400 -192t-155 -471z" />
<glyph unicode="&#x153;" horiz-adv-x="1650" d="M61 444q0 200 130.5 327.5t334.5 127.5q120 0 218 -53t155 -150q77 112 203 166q134 51 240 27t172.5 -103.5t68.5 -183.5q2 -18 0 -22q-5 -9 -10 -9h-598q-15 -57 -10.5 -125t22 -130t61 -113.5t105.5 -75.5q70 -26 136.5 -28.5t113 11.5t85 37t58.5 42.5t27 33.5 q2 2 6 2q2 0 8 -6q0 -2 -4 -10q-81 -162 -228 -212q-122 -41 -270 7q-123 42 -200 166q-61 -92 -162 -140t-229 -50q-83 -1 -160 29.5t-138.5 87.5t-98 147t-36.5 200zM221 506q-5 -86 15.5 -170t60.5 -152.5t106 -108.5t146 -34q65 5 114 39t75.5 86t40 105t16.5 110 q7 122 -25.5 226t-106.5 169.5t-176 63.5q-111 -1 -184.5 -96t-81.5 -238zM993 633h441q1 21 -9.5 52t-32.5 65.5t-65 59t-98 24.5q-77 0 -140.5 -52.5t-95.5 -148.5z" />
<glyph unicode="&#x178;" horiz-adv-x="1484" d="M61 1389q-2 35 0 41q1 3 3.5 4t5.5 0h2q59 -4 135 -7t122 -3l46 -1q88 1 221 11q8 2 10 -4v-41q0 -7 -10 -7q-46 0 -75.5 -9.5t-45 -32t-6.5 -66t45 -105.5q78 -138 258 -442q25 41 266 451q29 50 31.5 89t-13.5 60t-40 34t-40.5 17t-23.5 4l-10 7q-2 35 0 41q1 3 3.5 4 t4.5 0h2q59 -4 119.5 -7t91.5 -3l31 -1q86 1 219 11q8 2 10 -4v-41q0 -7 -10 -7q-5 0 -20 -3t-43 -14t-56.5 -27.5t-61 -47.5t-56.5 -71q-263 -434 -322 -539q-14 -27 -19.5 -48.5t-5.5 -68.5v-348q0 -47 16 -81t35 -49.5t46.5 -24t39.5 -9t25 -0.5h2q4 0 7 -1.5t4 -3.5v-1 q2 -35 0 -41q-1 -3 -3.5 -4t-4.5 0h-3q-59 4 -119.5 6.5t-91.5 3.5h-30q-107 0 -240 -10q-8 -2 -10 4v41q0 6 10 6q132 0 158 111q6 24 6 53v348q0 49 -37 113l-330 543q-29 46 -58 78t-51 48.5t-48.5 25t-41.5 10t-38 1.5q-4 0 -7 2t-3 4zM510 1722q0 41 28 70t68 29 q41 0 70 -29t29 -70q0 -40 -29 -68t-70 -28q-40 0 -68 28t-28 68zM846 1722q0 41 28 70t68 29q41 0 69.5 -29t28.5 -70q0 -40 -28.5 -68t-69.5 -28q-40 0 -68 28t-28 68z" />
<glyph unicode="&#x2c6;" horiz-adv-x="708" d="M60 1072l1 3q261 246 271 256q11 8 20 8q13 0 21 -8l272 -256q8 -8 -4 -20l-27 -19q-8 -2 -18 6l-244 136q-233 -130 -241 -136l-21 -6q-18 11 -24 19q-4 4 -5 9t-1 8z" />
<glyph unicode="&#x2dc;" horiz-adv-x="731" d="M63 1116q-4 4 3 17q5 7 16 17.5t31.5 29t48 32.5t59 24.5t70 8t76.5 -19.5q57 -25 104 -35.5t73 -9.5t47.5 11t27 15.5t11.5 13.5l1 1q6 6 14 0q17 -11 23 -17q5 -5 -2 -16q-32 -37 -41 -45q-117 -110 -258 -47q-187 84 -267 4q-6 -6 -14 0q-17 10 -23 16z" />
<glyph unicode="&#x2000;" horiz-adv-x="954" />
<glyph unicode="&#x2001;" horiz-adv-x="1909" />
<glyph unicode="&#x2002;" horiz-adv-x="954" />
<glyph unicode="&#x2003;" horiz-adv-x="1909" />
<glyph unicode="&#x2004;" horiz-adv-x="636" />
<glyph unicode="&#x2005;" horiz-adv-x="477" />
<glyph unicode="&#x2006;" horiz-adv-x="318" />
<glyph unicode="&#x2007;" horiz-adv-x="318" />
<glyph unicode="&#x2008;" horiz-adv-x="238" />
<glyph unicode="&#x2009;" horiz-adv-x="381" />
<glyph unicode="&#x200a;" horiz-adv-x="106" />
<glyph unicode="&#x2010;" horiz-adv-x="780" d="M123 399l20 86q2 4 6.5 6.5t8.5 3.5l4 1h475q7 2 12 -1t7 -7l1 -3l-20 -86q-3 -4 -7.5 -7t-7.5 -4l-4 -1h-477q-6 -2 -10.5 1t-6.5 7z" />
<glyph unicode="&#x2011;" horiz-adv-x="780" d="M123 399l20 86q2 4 6.5 6.5t8.5 3.5l4 1h475q7 2 12 -1t7 -7l1 -3l-20 -86q-3 -4 -7.5 -7t-7.5 -4l-4 -1h-477q-6 -2 -10.5 1t-6.5 7z" />
<glyph unicode="&#x2012;" horiz-adv-x="780" d="M123 399l20 86q2 4 6.5 6.5t8.5 3.5l4 1h475q7 2 12 -1t7 -7l1 -3l-20 -86q-3 -4 -7.5 -7t-7.5 -4l-4 -1h-477q-6 -2 -10.5 1t-6.5 7z" />
<glyph unicode="&#x2013;" horiz-adv-x="1538" d="M328 399l20 86q2 4 6.5 6.5t8.5 3.5l4 1h823q7 2 12 -1t6 -7l2 -3l-20 -86q-3 -4 -7.5 -7t-8.5 -4l-3 -1h-825q-6 -2 -10.5 1t-5.5 7z" />
<glyph unicode="&#x2014;" horiz-adv-x="2035" d="M328 399l20 86q2 4 6.5 6.5t8.5 3.5l4 1h1321q7 2 12 -1t6 -7l2 -3l-20 -86q-3 -4 -7.5 -7t-8.5 -4l-3 -1h-1323q-6 -2 -10.5 1t-5.5 7z" />
<glyph unicode="&#x2018;" horiz-adv-x="581" d="M168.5 1105q-9.5 48 1.5 112q9 47 34.5 87t54 64t59 41.5t48.5 24.5t25 8l15 -4q10 -13 12 -21q2 -4 0.5 -7t-4.5 -5l-2 -2q-4 -1 -10.5 -3t-24 -11.5t-32 -22t-28.5 -36t-20 -52.5q-19 -84 51 -127q64 -36 64 -90q0 -41 -27.5 -70.5t-67.5 -29.5q-30 0 -60 16t-54.5 48 t-34 80z" />
<glyph unicode="&#x2019;" horiz-adv-x="581" d="M161.5 996.5q1.5 3.5 4.5 5.5l2 2q4 1 10.5 3t24 11.5t32 22t28.5 35.5t20 52q19 84 -52 127q-63 35 -63 91q0 41 27 70.5t67 29.5q30 0 60 -16t55 -48t34.5 -80t-1.5 -112q-9 -47 -34.5 -87t-54 -64t-59.5 -41.5t-49 -24.5t-25 -8l-14 4q-10 12 -12 20q-2 4 -0.5 7.5z " />
<glyph unicode="&#x201a;" horiz-adv-x="581" d="M163.5 -271.5q1.5 3.5 4.5 5.5l2 2q4 1 10.5 3t24 11.5t32 22t28.5 36t20 52.5q19 84 -52 127q-63 35 -63 90q0 41 27 70.5t67 29.5q30 0 60 -16t55 -48t34.5 -80t-1.5 -112q-9 -47 -34.5 -87t-54 -64t-59.5 -41.5t-49 -24.5t-25 -8l-14 4q-10 12 -12 20q-2 4 -0.5 7.5z " />
<glyph unicode="&#x201c;" horiz-adv-x="950" d="M168.5 1105q-9.5 48 1.5 112q9 47 34.5 87t54 64t59 41.5t48.5 24.5t25 8l15 -4q10 -13 12 -21q2 -4 0.5 -7t-4.5 -5l-2 -2q-4 -1 -10.5 -3t-24 -11.5t-32 -22t-28.5 -36t-20 -52.5q-19 -84 51 -127q64 -36 64 -90q0 -41 -27.5 -70.5t-67.5 -29.5q-30 0 -60 16t-54.5 48 t-34 80zM537.5 1105q-9.5 48 1.5 112q9 47 34.5 87t54 64t59 41.5t48.5 24.5t25 8l14 -4q10 -13 12 -21q2 -4 0.5 -7t-4.5 -5l-2 -2q-4 -1 -10.5 -3t-23.5 -11.5t-31.5 -22t-28.5 -36t-20 -52.5q-19 -84 51 -127q63 -35 63 -90q0 -41 -27 -70.5t-67 -29.5q-30 0 -60 16 t-54.5 48t-34 80z" />
<glyph unicode="&#x201d;" horiz-adv-x="950" d="M163.5 996.5q1.5 3.5 4.5 5.5l2 2q4 1 10.5 3t24 11.5t32 22t28.5 35.5t20 52q19 84 -52 127q-63 35 -63 91q0 41 27 70.5t67 29.5q30 0 60 -16t55 -48t34.5 -80t-1.5 -112q-9 -47 -34.5 -87t-54 -64t-59.5 -41.5t-49 -24.5t-25 -8l-14 4q-10 12 -12 20q-2 4 -0.5 7.5z M532 989q-2 4 0 7.5t4 5.5l3 2q4 1 10.5 3t23.5 11.5t31.5 22t28.5 35.5t20 52q19 84 -51 127q-63 35 -63 91q0 41 27 70.5t67 29.5q30 0 60 -16t54.5 -48t34 -80t-1.5 -112q-9 -47 -34.5 -87t-54 -64t-59 -41.5t-48.5 -24.5t-25 -8l-14 4q-11 12 -13 20z" />
<glyph unicode="&#x201e;" horiz-adv-x="952" d="M165.5 -271.5q1.5 3.5 4.5 5.5l2 2q4 1 10.5 3t24 11.5t32 22t28.5 36t20 52.5q19 84 -51 127q-64 36 -64 90q0 41 27 70.5t67 29.5q30 0 60 -16t55 -48t34.5 -80t-1.5 -112q-9 -47 -34.5 -87t-54 -64t-59 -41.5t-48.5 -24.5t-25 -8l-15 4q-10 12 -12 20q-2 4 -0.5 7.5z M534.5 -271.5q1.5 3.5 3.5 5.5l3 2q4 1 10.5 3t23.5 11.5t31.5 22t28.5 36t20 52.5q19 84 -51 127q-63 35 -63 90q0 41 27 70.5t67 29.5q30 0 60 -16t54.5 -48t34 -80t-1.5 -112q-9 -47 -34.5 -87t-54 -64t-59 -41.5t-48.5 -24.5t-25 -8l-14 4q-10 12 -12 20q-2 4 -0.5 7.5z " />
<glyph unicode="&#x2022;" horiz-adv-x="632" d="M164 692q0 64 44 109t107 45q65 0 109.5 -45t44.5 -109q0 -63 -45 -107t-109 -44q-63 0 -107 44t-44 107z" />
<glyph unicode="&#x2026;" horiz-adv-x="1218" d="M164 80q0 41 28 69.5t68 28.5q41 0 69.5 -28.5t28.5 -69.5q0 -40 -28.5 -68t-69.5 -28q-40 0 -68 28t-28 68zM512 80q0 41 28 69.5t68 28.5q41 0 70 -28.5t29 -69.5q0 -40 -29 -68t-70 -28q-40 0 -68 28t-28 68zM860 80q0 41 28 69.5t68 28.5q41 0 70 -28.5t29 -69.5 q0 -40 -29 -68t-70 -28q-40 0 -68 28t-28 68z" />
<glyph unicode="&#x202f;" horiz-adv-x="381" />
<glyph unicode="&#x2039;" horiz-adv-x="845" d="M246 457q0 13 16 26l291 305l2.5 2.5t6 3.5t7.5 -3l25 -23q8 -8 0 -18l-184 -293l186 -295q4 -4 4.5 -9t-0.5 -7l-2 -3q-21 -18 -29 -24q-4 -3 -7.5 -2t-5.5 3l-3 3q-283 297 -293 309q-14 14 -14 25z" />
<glyph unicode="&#x203a;" horiz-adv-x="845" d="M248 143q-6 9 2 19l186 295q-178 285 -184 293q-4 4 -4 8.5t2 7.5l2 2q16 17 24 23q4 3 8 2.5t6 -3.5l3 -2l291 -305q16 -13 16 -26q0 -11 -14 -25l-293 -309l-2.5 -2.5t-6.5 -3.5t-8 2z" />
<glyph unicode="&#x205f;" horiz-adv-x="477" />
<glyph unicode="&#x20ac;" horiz-adv-x="1150" d="M59 500l41 65q2 4 6.5 6.5t8.5 2.5l4 1h117q-11 117 -3 234h-155q-6 -2 -11 1t-7 7l-1 4l41 66q2 4 6.5 6.5t8.5 2.5l4 1h123q15 109 47.5 201t85 168.5t131 126.5t176.5 65q68 10 128.5 -1t98.5 -34t66.5 -47.5t40.5 -42.5l12 -18q27 -170 27 -174l-8 -6h-35 q-2 0 -3.5 1.5t-2.5 3.5v1q-2 6 -9.5 30.5t-13.5 41t-17 41t-24 44.5q-40 62 -112.5 95t-163.5 4q-105 -33 -169.5 -162t-84.5 -338h559q7 2 12 -0.5t7 -6.5l1 -3l-41 -66q-3 -4 -7.5 -7t-7.5 -4l-3 -1h-526q-4 -132 4 -234h561q7 2 12 -0.5t7 -6.5l1 -3l-41 -65 q-3 -4 -7.5 -7.5t-7.5 -4.5l-3 -1h-512q13 -78 34.5 -145t56.5 -127.5t89 -98t121 -42.5q59 -5 109 10t82.5 38.5t62 61.5t44.5 67t32 68q2 4 5 5t5 0l2 -2l22 -15q1 0 2 -1t2.5 -4t0.5 -7q-92 -270 -305 -308q-51 -9 -105 -5q-162 12 -278.5 143.5t-155.5 361.5h-168 q-6 -2 -11 1.5t-7 7.5z" />
<glyph unicode="&#x2122;" horiz-adv-x="1992" d="M59 1354q64 223 66 227t10 4q98 -2 295 -2q217 0 315 2q9 0 11 -4l65 -227q0 -3 -1.5 -4.5t-3.5 -1.5h-1h-37l-10 4q-24 59 -64 109t-79 50h-121v-430q0 -47 11.5 -81t25.5 -49t34.5 -23.5t30 -9t19.5 -0.5h2l10 -7q2 -35 0 -41q-1 -3 -3.5 -4t-4.5 0h-2l-187 11 q-51 -1 -184 -11q-8 -2 -10 4v41q0 7 10 7q104 0 120 120q3 20 3 43v430h-123q-39 0 -79 -50t-64 -109q-1 -4 -11 -4h-36q-7 0 -7 6zM866 868v41q1 6 11 6h2q79 -2 107 77q13 36 13 87v289q0 47 -11.5 81t-25.5 49.5t-34.5 24t-29.5 9t-19 0.5h-2q-4 0 -7 1.5t-4 2.5v2 q-2 35 0 41q1 3 3.5 4t4.5 1l3 -1q32 -4 62 -6.5t44 -2.5l14 -1q27 0 78 10q13 2 17 -4l280 -514l227 518q2 2 5.5 2.5t6.5 0.5l3 -1q23 -4 43 -6.5t29 -2.5l8 -1q49 0 121 10q8 2 10 -4v-41q0 -6 -10 -6h-2q-11 1 -20 0t-28.5 -8.5t-33 -23t-24.5 -48.5t-11 -80v-293 q0 -138 88 -160q15 -3 35 -3l10 -7q2 -35 0 -41l-10 -4l-187 11q-51 -1 -184 -11q-8 0 -10 4v41q0 7 10 7h2q81 -3 109 79q12 35 12 84v312l-230 -516q-2 -15 -10 -15l-10 4l-268 486v-273q0 -47 11.5 -81t25.5 -49.5t35 -24t30 -9t19 -0.5h2l10 -6q2 -35 0 -41 q-1 -3 -3.5 -4t-4.5 0h-2l-150 10q-16 0 -149 -10q-9 -2 -11 4z" />
<glyph unicode="&#x25fc;" horiz-adv-x="870" d="M0 0v870h870v-870h-870z" />
</font>
</defs>
</svg>
